<svg width="159" height="32" viewBox="0 0 159 32" fill="none" xmlns="http://www.w3.org/2000/svg">
<rect width="158.085" height="32" transform="translate(0.0839844)" fill="white"/>
<path d="M47.2079 20.8939H55.0754V23.9858H43.5547V8.20679H47.2079V20.8939ZM59.7792 19.2983C60.0506 20.8608 61.184 21.6421 63.1793 21.6421C64.199 21.6421 65.4607 21.477 66.9645 21.1469L67.3496 23.3806C66.8875 23.6081 66.2346 23.8171 65.391 24.0078C64.5474 24.2059 63.6745 24.3049 62.7722 24.3049C60.7915 24.3049 59.218 23.7548 58.0517 22.6544C56.8853 21.5467 56.3021 20.1493 56.3021 18.4621C56.3021 16.7309 56.8633 15.3077 57.9856 14.1927C59.1153 13.0777 60.6045 12.5202 62.4531 12.5202C64.1476 12.5202 65.5194 13.0153 66.5684 14.0056C67.6247 14.996 68.1529 16.2724 68.1529 17.8349C68.1529 18.363 68.1162 18.8509 68.0429 19.2983H59.7792ZM59.8232 17.0866H64.8188C64.8188 16.5585 64.6208 16.0963 64.2246 15.7002C63.8285 15.3041 63.2013 15.106 62.343 15.106C60.9933 15.106 60.1533 15.7662 59.8232 17.0866ZM75.5745 12.5202C77.4965 12.5202 78.8793 12.887 79.7229 13.6205C80.5665 14.3541 80.9883 15.5645 80.9883 17.2517V23.4687C78.9636 24.0555 77.0784 24.349 75.3325 24.349C71.5913 24.349 69.7207 23.1312 69.7207 20.6958C69.7207 19.5074 70.1682 18.6161 71.0631 18.0219C71.9581 17.4277 73.2088 17.1306 74.8153 17.1306C75.4315 17.1306 76.3558 17.2077 77.5882 17.3617V17.0866C77.5882 16.3384 77.3791 15.8396 76.961 15.5902C76.5502 15.3407 75.857 15.216 74.8813 15.216C73.7223 15.216 72.5192 15.3811 71.2722 15.7112L70.865 13.2134C72.5449 12.7512 74.1147 12.5202 75.5745 12.5202ZM73.0988 20.5858C73.0988 21.0332 73.2858 21.3597 73.6599 21.5651C74.0341 21.7631 74.6429 21.8622 75.4865 21.8622C76.1761 21.8622 76.8766 21.8181 77.5882 21.7301V19.5184C76.6859 19.401 75.9193 19.3424 75.2885 19.3424C73.8287 19.3424 73.0988 19.7568 73.0988 20.5858ZM91.3919 6.69931L94.814 6.47924V23.5347C92.804 24.0482 90.9481 24.3049 89.2462 24.3049C87.1849 24.3049 85.6334 23.7584 84.5917 22.6654C83.55 21.5651 83.0292 20.1493 83.0292 18.4181C83.0292 16.6135 83.539 15.1794 84.5587 14.1157C85.5857 13.052 87.0015 12.5202 88.8061 12.5202C89.6057 12.5202 90.4676 12.7219 91.3919 13.1254V6.69931ZM86.4623 18.33C86.4623 20.5234 87.4453 21.6201 89.4113 21.6201C89.9981 21.6201 90.6583 21.5687 91.3919 21.466V15.5131C90.673 15.3151 90.0128 15.216 89.4113 15.216C87.4453 15.216 86.4623 16.254 86.4623 18.33ZM103.413 21.367C103.941 21.367 104.572 21.3157 105.306 21.213L105.57 23.6227C104.44 24.0115 103.307 24.2059 102.17 24.2059C101.135 24.2059 100.31 23.9162 99.6938 23.3366C99.0776 22.7498 98.7769 21.8255 98.7915 20.5637V15.3811H97.031L97.196 12.8283H98.7915V9.96735L102.192 9.51621V12.8283H105.603L105.416 15.3811H102.192V20.2006C102.192 20.6041 102.283 20.9012 102.467 21.0919C102.65 21.2753 102.966 21.367 103.413 21.367ZM115.566 12.8283H119.098L114.235 23.5127C113.721 24.6277 112.999 25.6584 112.067 26.6047C111.135 27.551 110.101 28.2699 108.964 28.7614L107.787 26.2196C109.452 25.2586 110.582 24.1839 111.176 22.9955L111.418 22.4784L106.708 12.8283H110.273L113.09 19.1883L115.566 12.8283ZM133.749 12.5202C136.962 12.5202 138.569 13.9836 138.569 16.9106V23.9858H135.169V17.0426C135.169 16.4264 135.048 15.9679 134.806 15.6672C134.571 15.3664 134.09 15.216 133.364 15.216C132.601 15.216 131.846 15.3004 131.097 15.4691V23.9858H127.829V16.9106C127.829 16.3531 127.708 15.9313 127.466 15.6452C127.224 15.3591 126.751 15.216 126.047 15.216C125.313 15.216 124.554 15.2931 123.769 15.4471V23.9858H120.369V13.8406C122.416 12.953 124.301 12.5128 126.025 12.5202C127.47 12.5202 128.695 12.8796 129.7 13.5985C131.02 12.8796 132.37 12.5202 133.749 12.5202Z" fill="black"/>
<path d="M20.453 16.5633H27.2393L27.1113 9.98769C26.8352 9.16924 26.5913 8.7838 25.7455 8.38487C24.6059 7.95116 24.0863 8.07807 23.2273 8.46709L18.6178 12.9467C18.239 13.8423 18.2232 14.3547 18.7031 15.2892C19.1944 16.1356 19.6268 16.297 20.453 16.5633Z" fill="url(#paint0_linear_62_6718)" stroke="#5E12F6" stroke-width="0.112676"/>
<path d="M34.1221 16.5983L27.2836 16.5857L27.3993 23.147C27.6758 23.9642 27.9208 24.3493 28.7723 24.7489C29.9198 25.1838 30.4437 25.0581 31.31 24.6715L35.9641 20.2104C36.3476 19.3175 36.3646 18.8062 35.8829 17.8728C35.3895 17.0274 34.9541 16.8655 34.1221 16.5983Z" fill="url(#paint1_linear_62_6718)" stroke="#6B29FE" stroke-width="0.112676"/>
<path d="M18.3379 24.7887H26.6759C23.1294 22.0647 21.2904 20.3573 18.3379 16.9014V16.9655V24.7887Z" fill="black" stroke="black" stroke-width="0.112676"/>
<path d="M35.8445 8.28661L27.5065 8.24652C31.0386 10.9876 32.8686 12.7038 35.8027 16.1738L35.8031 16.1097L35.8445 8.28661Z" fill="black" stroke="black" stroke-width="0.112676"/>
<defs>
<linearGradient id="paint0_linear_62_6718" x1="17.7277" y1="8.11255" x2="29.3858" y2="10.2298" gradientUnits="userSpaceOnUse">
<stop stop-color="#9181F4"/>
<stop offset="1" stop-color="#5038ED"/>
</linearGradient>
<linearGradient id="paint1_linear_62_6718" x1="36.8512" y1="25.0356" x2="25.1157" y2="22.8585" gradientUnits="userSpaceOnUse">
<stop stop-color="#9181F4"/>
<stop offset="1" stop-color="#5038ED"/>
</linearGradient>
</defs>
</svg>
