<svg width="177" height="37" viewBox="0 0 177 37" fill="none" xmlns="http://www.w3.org/2000/svg">
<path d="M4.77829 16.9806H16.9006L16.6719 4.54597C16.1788 2.99824 15.7431 2.26936 14.2322 1.51496C12.1966 0.694816 11.2683 0.934804 9.73396 1.67045L1.49992 10.1416C0.823334 11.8352 0.795078 12.8041 1.6524 14.5714C2.53007 16.1719 3.30238 16.4772 4.77829 16.9806Z" fill="url(#paint0_linear_87_6700)" stroke="url(#paint1_linear_87_6700)" stroke-width="0.15052"/>
<path d="M29.1921 17.047L16.9765 17.0231L17.1831 29.4309C17.677 30.9762 18.1147 31.7043 19.6358 32.46C21.6855 33.2824 22.6213 33.0448 24.1689 32.3138L32.4825 23.8775C33.1676 22.189 33.1979 21.2222 32.3374 19.4572C31.456 17.8584 30.6784 17.5523 29.1921 17.047Z" fill="url(#paint2_linear_87_6700)" stroke="url(#paint3_linear_87_6700)" stroke-width="0.15052"/>
<path d="M1 32.5349H15.8943C9.55911 27.3836 6.27405 24.1548 1 17.6196V17.7409V32.5349Z" fill="black" stroke="black" stroke-width="0.15052"/>
<path d="M32.2737 1.32886L17.3797 1.25304C23.689 6.43647 26.9579 9.68192 32.1992 16.2439L32.1998 16.1226L32.2737 1.32886Z" fill="black" stroke="black" stroke-width="0.15052"/>
<path d="M45.1816 25.6094H56.3535V30H39.9941V7.59375H45.1816V25.6094ZM63.0329 23.3438C63.4183 25.5625 65.0277 26.6719 67.861 26.6719C69.3089 26.6719 71.1006 26.4375 73.236 25.9688L73.7829 29.1406C73.1266 29.4635 72.1996 29.7604 71.0016 30.0312C69.8037 30.3125 68.5641 30.4531 67.2829 30.4531C64.4704 30.4531 62.236 29.6719 60.5798 28.1094C58.9235 26.5365 58.0954 24.5521 58.0954 22.1562C58.0954 19.6979 58.8923 17.6771 60.486 16.0938C62.0902 14.5104 64.2048 13.7188 66.8298 13.7188C69.236 13.7188 71.1839 14.4219 72.6735 15.8281C74.1735 17.2344 74.9235 19.0469 74.9235 21.2656C74.9235 22.0156 74.8714 22.7083 74.7673 23.3438H63.0329ZM63.0954 20.2031H70.1891C70.1891 19.4531 69.9079 18.7969 69.3454 18.2344C68.7829 17.6719 67.8923 17.3906 66.6735 17.3906C64.7568 17.3906 63.5641 18.3281 63.0954 20.2031ZM85.4623 13.7188C88.1914 13.7188 90.155 14.2396 91.3529 15.2812C92.5508 16.3229 93.1498 18.0417 93.1498 20.4375V29.2656C90.2748 30.099 87.5977 30.5156 85.1185 30.5156C79.806 30.5156 77.1498 28.7865 77.1498 25.3281C77.1498 23.6406 77.7852 22.375 79.056 21.5312C80.3268 20.6875 82.1029 20.2656 84.3841 20.2656C85.2591 20.2656 86.5716 20.375 88.3216 20.5938V20.2031C88.3216 19.1406 88.0248 18.4323 87.431 18.0781C86.8477 17.724 85.8633 17.5469 84.4779 17.5469C82.8321 17.5469 81.1237 17.7812 79.3529 18.25L78.7748 14.7031C81.1602 14.0469 83.3893 13.7188 85.4623 13.7188ZM81.9466 25.1719C81.9466 25.8073 82.2123 26.2708 82.7435 26.5625C83.2748 26.8438 84.1393 26.9844 85.3373 26.9844C86.3164 26.9844 87.3112 26.9219 88.3216 26.7969V23.6562C87.0404 23.4896 85.9518 23.4062 85.056 23.4062C82.9831 23.4062 81.9466 23.9948 81.9466 25.1719ZM107.923 5.45312L112.782 5.14062V29.3594C109.928 30.0885 107.293 30.4531 104.876 30.4531C101.949 30.4531 99.7458 29.6771 98.2666 28.125C96.7875 26.5625 96.0479 24.5521 96.0479 22.0938C96.0479 19.5312 96.7718 17.4948 98.2198 15.9844C99.6781 14.474 101.689 13.7188 104.251 13.7188C105.386 13.7188 106.61 14.0052 107.923 14.5781V5.45312ZM100.923 21.9688C100.923 25.0833 102.319 26.6406 105.11 26.6406C105.944 26.6406 106.881 26.5677 107.923 26.4219V17.9688C106.902 17.6875 105.965 17.5469 105.11 17.5469C102.319 17.5469 100.923 19.0208 100.923 21.9688ZM124.993 26.2812C125.743 26.2812 126.639 26.2083 127.68 26.0625L128.055 29.4844C126.451 30.0365 124.842 30.3125 123.227 30.3125C121.759 30.3125 120.587 29.901 119.712 29.0781C118.837 28.2448 118.41 26.9323 118.43 25.1406V17.7812H115.93L116.165 14.1562H118.43V10.0938L123.259 9.45312V14.1562H128.102L127.837 17.7812H123.259V24.625C123.259 25.1979 123.389 25.6198 123.649 25.8906C123.91 26.151 124.357 26.2812 124.993 26.2812ZM142.25 14.1562H147.266L140.36 29.3281C139.631 30.9115 138.605 32.375 137.282 33.7188C135.959 35.0625 134.49 36.0833 132.875 36.7812L131.204 33.1719C133.568 31.8073 135.172 30.2812 136.016 28.5938L136.36 27.8594L129.672 14.1562H134.735L138.735 23.1875L142.25 14.1562ZM168.07 13.7188C172.633 13.7188 174.914 15.7969 174.914 19.9531V30H170.086V20.1406C170.086 19.2656 169.914 18.6146 169.57 18.1875C169.237 17.7604 168.555 17.5469 167.524 17.5469C166.44 17.5469 165.367 17.6667 164.305 17.9062V30H159.664V19.9531C159.664 19.1615 159.492 18.5625 159.149 18.1562C158.805 17.75 158.133 17.5469 157.133 17.5469C156.091 17.5469 155.013 17.6562 153.899 17.875V30H149.07V15.5938C151.977 14.3333 154.654 13.7083 157.102 13.7188C159.154 13.7188 160.893 14.2292 162.32 15.25C164.195 14.2292 166.112 13.7188 168.07 13.7188Z" fill="black"/>
<defs>
<linearGradient id="paint0_linear_87_6700" x1="-0.0899624" y1="1" x2="20.8068" y2="4.58493" gradientUnits="userSpaceOnUse">
<stop stop-color="#9181F4"/>
<stop offset="1" stop-color="#5038ED"/>
</linearGradient>
<linearGradient id="paint1_linear_87_6700" x1="-0.0899624" y1="1" x2="20.8068" y2="4.58493" gradientUnits="userSpaceOnUse">
<stop stop-color="#9181F4"/>
<stop offset="1" stop-color="#5038ED"/>
</linearGradient>
<linearGradient id="paint2_linear_87_6700" x1="34.0671" y1="33.0022" x2="13.0285" y2="29.3154" gradientUnits="userSpaceOnUse">
<stop stop-color="#9181F4"/>
<stop offset="1" stop-color="#5038ED"/>
</linearGradient>
<linearGradient id="paint3_linear_87_6700" x1="34.0671" y1="33.0022" x2="13.0285" y2="29.3154" gradientUnits="userSpaceOnUse">
<stop stop-color="#9181F4"/>
<stop offset="1" stop-color="#5038ED"/>
</linearGradient>
</defs>
</svg>
