<svg width="71" height="29" viewBox="0 0 71 29" fill="none" xmlns="http://www.w3.org/2000/svg">
<path fill-rule="evenodd" clip-rule="evenodd" d="M0.65625 12H6.44522L11.2694 16L16.0935 5L20.9177 11L25.7418 1L30.5659 4L35.3901 1L40.2142 8L45.0384 15L49.8625 9L54.6867 21L59.5108 23L64.335 4L70.1239 10V29H0.65625V12Z" fill="url(#paint0_linear_176_68776)"/>
<path d="M1.61719 12H6.44133L11.2655 16L16.0896 5L20.9138 11L25.7379 1L30.5621 4L35.3862 1L40.2103 8L45.0345 15L49.8586 9L54.6828 21L59.5069 23L64.3311 4L69.1552 10" stroke="#A9611E" stroke-width="1.5" stroke-linecap="round" stroke-linejoin="round"/>
<defs>
<linearGradient id="paint0_linear_176_68776" x1="-13.5387" y1="-10.6667" x2="-13.5387" y2="28.7763" gradientUnits="userSpaceOnUse">
<stop stop-color="#A9611E" stop-opacity="0.5"/>
<stop offset="1" stop-color="#A9611E" stop-opacity="0.01"/>
</linearGradient>
</defs>
</svg>
