<svg width="70" height="29" viewBox="0 0 70 29" fill="none" xmlns="http://www.w3.org/2000/svg">
<path fill-rule="evenodd" clip-rule="evenodd" d="M5.94522 23L10.7694 19L15.5935 24L20.4177 16L25.2418 20H30.0659L34.8901 11L39.7142 8L44.5384 11L49.3625 1L54.1867 11L59.0108 9L63.835 4L69.6239 8V29H0.15625V21L5.94522 23Z" fill="url(#paint0_linear_176_68735)"/>
<path d="M1.11719 21L5.94133 23L10.7655 19L15.5896 23L20.4138 16L25.2379 20H30.0621L34.8862 11L39.7103 8L44.5345 11L49.3586 1L54.1828 11L59.0069 9L63.8311 4L68.6552 8" stroke="#D9CF46" stroke-width="1.5" stroke-linecap="round" stroke-linejoin="round"/>
<defs>
<linearGradient id="paint0_linear_176_68735" x1="-14.3162" y1="-10.6667" x2="-14.3162" y2="29" gradientUnits="userSpaceOnUse">
<stop stop-color="#D9CF46"/>
<stop offset="1" stop-color="#D9CF46" stop-opacity="0.01"/>
</linearGradient>
</defs>
</svg>
