<svg width="70" height="25" viewBox="0 0 70 25" fill="none" xmlns="http://www.w3.org/2000/svg">
<rect x="66.5625" y="6" width="2.81215" height="19" rx="1.40608" fill="#16A249"/>
<rect x="61.875" width="2.81215" height="25" rx="1.40608" fill="#16A249"/>
<rect x="57.1875" y="2" width="2.81215" height="23" rx="1.40608" fill="#16A249"/>
<rect x="52.5" y="18" width="2.81215" height="7" rx="1.40608" fill="#16A249"/>
<rect x="47.8125" y="20" width="2.81215" height="5" rx="1.40608" fill="#16A249"/>
<rect x="43.1328" y="16" width="2.81215" height="9" rx="1.40608" fill="#16A249"/>
<rect x="38.4375" y="11" width="2.81215" height="14" rx="1.40608" fill="#16A249"/>
<rect x="33.7578" width="2.81215" height="25" rx="1.40608" fill="#16A249"/>
<rect x="29.0703" y="7" width="2.81215" height="18" rx="1.40608" fill="#16A249"/>
<rect x="24.3828" y="10" width="2.81215" height="15" rx="1.40608" fill="#16A249"/>
<rect x="19.6953" y="5" width="2.81215" height="20" rx="1.40608" fill="#16A249"/>
<rect x="15.0078" y="17" width="2.81215" height="8" rx="1.40608" fill="#16A249"/>
<rect x="10.3203" y="11" width="2.81215" height="14" rx="1.40608" fill="#16A249"/>
<rect x="5.63281" y="19" width="2.81215" height="6" rx="1.40608" fill="#16A249"/>
<rect x="0.945312" y="17" width="2.81215" height="8" rx="1.40608" fill="#16A249"/>
</svg>
