<svg width="68" height="25" viewBox="0 0 68 25" fill="none" xmlns="http://www.w3.org/2000/svg">
<rect x="5.0625" y="13" width="2.77104" height="12" rx="1.38552" fill="#1E4691"/>
<rect x="9.67969" y="5" width="2.77104" height="20" rx="1.38552" fill="#1E4691"/>
<rect x="14.2969" y="7" width="2.77104" height="18" rx="1.38552" fill="#1E4691"/>
<rect x="18.9219" width="2.77104" height="25" rx="1.38552" fill="#1E4691"/>
<rect x="23.5391" y="12" width="2.77104" height="13" rx="1.38552" fill="#1E4691"/>
<rect x="28.1562" y="17" width="2.77104" height="8" rx="1.38552" fill="#1E4691"/>
<rect x="32.7734" y="3" width="2.77104" height="22" rx="1.38552" fill="#1E4691"/>
<rect x="37.3906" width="2.77104" height="25" rx="1.38552" fill="#1E4691"/>
<rect x="42.0156" y="8" width="2.77104" height="17" rx="1.38552" fill="#1E4691"/>
<rect x="46.625" y="2" width="2.77104" height="23" rx="1.38552" fill="#1E4691"/>
<rect x="51.25" y="8" width="2.77104" height="17" rx="1.38552" fill="#1E4691"/>
<rect x="55.8672" y="15" width="2.77104" height="10" rx="1.38552" fill="#1E4691"/>
<rect x="60.4844" y="17" width="2.77104" height="8" rx="1.38552" fill="#1E4691"/>
<rect x="65.1016" y="3" width="2.77104" height="22" rx="1.38552" fill="#1E4691"/>
<rect x="0.445312" y="20" width="2.77104" height="5" rx="1.38552" fill="#1E4691"/>
</svg>
