<svg width="32" height="32" viewBox="0 0 32 32" fill="none" xmlns="http://www.w3.org/2000/svg">
<path d="M15.9993 29.3332C23.3631 29.3332 29.3327 23.3636 29.3327 15.9998C29.3327 8.63604 23.3631 2.6665 15.9993 2.6665C8.63555 2.6665 2.66602 8.63604 2.66602 15.9998C2.66602 23.3636 8.63555 29.3332 15.9993 29.3332Z" fill="white" stroke="white"/>
<path d="M11 22V21C11 18.2386 13.2386 16 16 16C18.7614 16 21 18.2386 21 21V22" stroke="#5E17EB" stroke-linecap="round"/>
<path d="M16.002 16C17.6589 16 19.002 14.6569 19.002 13C19.002 11.3432 17.6589 10 16.002 10C14.3451 10 13.002 11.3432 13.002 13C13.002 14.6569 14.3451 16 16.002 16Z" stroke="#5E17EB" stroke-linecap="round" stroke-linejoin="round"/>
</svg>
