<svg width="16" height="16" viewBox="0 0 16 16" fill="none" xmlns="http://www.w3.org/2000/svg">
<path d="M14.5113 10.1279C14.6483 9.83525 14.6755 9.4949 14.5869 9.18694C14.5488 9.04888 14.4863 8.91478 14.4079 8.7983L14.2608 8.57729L13.9653 8.13523L13.375 7.24945L13.0795 6.80739L13.0051 6.6966L12.9744 6.65171L12.9687 6.64319C12.9631 6.63183 12.9602 6.61819 12.9602 6.60512V6.35511V6.20512L12.9517 6.05228L12.9358 5.78637C12.9284 5.6949 12.9153 5.58581 12.9051 5.48524C12.796 4.67388 12.4267 3.89542 11.8551 3.31084C11.2881 2.72333 10.5329 2.31424 9.72448 2.17618C9.60516 2.15743 9.47277 2.13697 9.33754 2.11481H9.29947C8.89379 2.09606 8.47163 2.10345 8.44833 2.51765C8.42219 2.98015 8.88186 2.96879 9.29208 2.94947C9.37788 2.95516 9.46254 2.96084 9.53527 2.96993C10.354 3.11084 11.0989 3.59834 11.5671 4.27902C11.7984 4.62107 11.9614 5.00799 12.0416 5.41198C12.0853 5.61425 12.0955 5.81368 12.1114 6.04891C12.12 6.17107 12.1245 6.25403 12.1228 6.36879C12.1285 6.48925 12.1097 6.57562 12.1387 6.77163C12.1546 6.85743 12.1836 6.94039 12.2228 7.01765C12.2404 7.05402 12.2677 7.09777 12.2853 7.1239L12.333 7.19492L12.5234 7.47844L12.9046 8.0472L13.6637 9.18583L13.7114 9.25686C13.7217 9.27561 13.7319 9.28754 13.7393 9.30458C13.7569 9.33527 13.77 9.36879 13.7785 9.40345C13.7989 9.47163 13.8046 9.54436 13.7944 9.61424C13.7768 9.75515 13.6984 9.8864 13.5836 9.96765C13.5268 10.0086 13.4615 10.0375 13.3933 10.0517C13.3597 10.0591 13.3251 10.0631 13.2899 10.0631H13.1257L12.4421 10.0529C12.2586 10.05 12.1092 10.1955 12.1046 10.3784V10.3898L12.0757 11.8137L12.0654 12.1699L12.0626 12.2586C12.0626 12.2892 12.058 12.2949 12.058 12.3137C12.0535 12.3455 12.045 12.3762 12.0348 12.4069C11.9899 12.5262 11.891 12.6205 11.7774 12.6614C11.7194 12.6819 11.6637 12.6892 11.6001 12.6847L11.2438 12.6688L10.5325 12.6341L10.1762 12.6137L10.1313 12.6108C10.1126 12.6108 10.1126 12.608 10.0717 12.6091C10.0063 12.6091 9.94101 12.6165 9.87681 12.6307C9.74897 12.6597 9.6251 12.7148 9.51886 12.7949C9.41261 12.8733 9.32226 12.9767 9.25692 13.0944C9.1859 13.237 9.18249 13.2586 9.15238 13.3182L9.00409 13.641C8.73193 14.2273 8.34954 15.0779 9.03591 15.3166C9.60011 15.5132 9.85352 14.6564 10.0689 14.0962L10.1984 13.7587L10.22 13.7007H10.4859L11.2058 13.6933L11.5649 13.6888H11.6143L11.6899 13.6842C11.741 13.6825 11.7905 13.674 11.8399 13.6655C11.9405 13.6479 12.0376 13.6189 12.1325 13.5814C12.5092 13.4285 12.8047 13.107 12.9308 12.7234C12.9626 12.6274 12.9831 12.5286 12.995 12.4297C12.9995 12.3803 13.0007 12.3291 13.0024 12.2797V12.1865L12.9967 11.8274L12.9853 10.9166H13.0376L13.1859 10.9149C13.2353 10.9149 13.2762 10.9149 13.3694 10.9104C13.5308 10.8973 13.6893 10.8581 13.8365 10.7911C14.1302 10.6587 14.3745 10.4161 14.5086 10.1251L14.5113 10.1279ZM10.1057 13.7028H10.1114H10.1085H10.104H10.1057Z" fill="#35353A"/>
<path d="M1.96285 10.5603C2.24069 10.5631 2.51683 10.5603 2.79467 10.5518C2.76115 10.9126 2.72763 11.2733 2.69581 11.6341C2.6799 11.8143 2.51229 12.0688 3.04467 12.1302C3.6191 12.1955 3.48387 11.9006 3.50717 11.7302C3.55944 11.3285 3.60319 10.9256 3.64126 10.5228C4.09921 10.5052 4.55604 10.4893 5.01455 10.4893H6.06341C6.02875 10.8705 5.99353 11.2529 5.96 11.6341C5.94409 11.8143 5.77648 12.0688 6.30886 12.1302C6.88329 12.1955 6.74806 11.9006 6.77136 11.7302C6.82534 11.3171 6.86909 10.904 6.9083 10.4893C7.34012 10.4893 7.7725 10.4893 8.20603 10.4864C8.38046 10.4864 8.64069 10.629 8.65091 10.0938C8.66228 9.51654 8.39068 9.67791 8.22478 9.67052C7.81 9.65461 7.39694 9.64893 6.98273 9.64893C7.04977 8.88075 7.11511 8.11307 7.22136 7.34783C7.62705 7.34783 8.03272 7.34783 8.43897 7.34499C8.6134 7.34499 8.8725 7.48761 8.88386 6.95238C8.89522 6.3734 8.62478 6.53647 8.45886 6.52908C8.09238 6.51431 7.72419 6.50863 7.35772 6.50749C7.43215 6.10749 7.52192 5.70919 7.63385 5.31318C7.70374 5.06715 7.79237 4.70977 7.06795 4.65124C6.47307 4.60352 6.50771 4.95238 6.48443 5.18192C6.43954 5.62282 6.41 6.06601 6.38386 6.50976C5.62306 6.5143 4.86226 6.51828 4.10153 6.47794C4.17596 6.08817 4.2629 5.69953 4.37199 5.3126C4.44188 5.06658 4.53051 4.7092 3.80608 4.65067C3.2112 4.60294 3.24585 4.9518 3.22256 5.18134C3.18052 5.58588 3.15268 5.98987 3.12938 6.39612C2.82995 6.36146 2.52995 6.31771 2.23052 6.26089C1.98903 6.2143 1.63847 6.15919 1.64586 6.88647C1.65154 7.48306 1.98336 7.41601 2.20723 7.41886C2.4953 7.4217 2.78336 7.41715 3.07143 7.41033C3.05268 7.71999 3.03052 8.03135 3.00325 8.33988C2.96689 8.73988 2.92882 9.13818 2.89132 9.53818C2.59018 9.50352 2.29075 9.45977 1.99075 9.40295C1.74927 9.35636 1.39757 9.30124 1.40439 10.0285C1.41008 10.6251 1.74303 10.5581 1.96576 10.5609L1.96285 10.5603ZM3.95267 7.38078C4.38449 7.36487 4.818 7.34897 5.2504 7.34897H6.33278C6.31233 7.67908 6.29074 8.0109 6.26005 8.34101C6.21915 8.77908 6.1788 9.21544 6.1379 9.65294C5.33221 9.65862 4.52655 9.66146 3.72204 9.61203C3.78625 8.86714 3.85159 8.12112 3.95328 7.38076L3.95267 7.38078Z" fill="#35353A"/>
</svg>
