<svg width="58" height="16" viewBox="0 0 58 16" fill="none" xmlns="http://www.w3.org/2000/svg">
<path d="M30.8131 5.81709L28.7891 7.81246L26.7652 5.81709C24.7659 3.84557 23.7669 2.8598 24.0461 2.00893C24.07 1.93603 24.0995 1.86518 24.135 1.79638C24.547 1 25.9612 1 28.7891 1C31.617 1 33.0313 1 33.4432 1.79706C33.4788 1.86518 33.5082 1.93603 33.5322 2.00893C33.8127 2.8598 32.8124 3.84557 30.8131 5.81709Z" stroke="#EF6C00" stroke-width="1.42823"/>
<path opacity="0.5" d="M26.7656 9.813L28.7895 7.81763L30.8134 9.813C32.8127 11.7845 33.8124 12.7703 33.5325 13.6212C33.5086 13.6943 33.4789 13.7653 33.4436 13.8337C33.0317 14.6301 31.6174 14.6301 28.7895 14.6301C25.9616 14.6301 24.5473 14.6301 24.1354 13.833C24.1002 13.7649 24.0704 13.694 24.0465 13.6212C23.7659 12.7703 24.7663 11.7845 26.7656 9.813Z" stroke="#EF6C00" stroke-width="1.42823"/>
</svg>
