<svg width="24" height="22" viewBox="0 0 24 22" fill="none" xmlns="http://www.w3.org/2000/svg">
<g clip-path="url(#clip0_866_37382)">
<path d="M14.034 8.81124C15.026 8.82497 15.9207 8.86165 16.8129 8.83074C17.548 8.80528 17.8249 9.11443 17.7682 9.80181C17.7385 10.1623 17.7506 10.5268 17.7584 10.8893C17.7692 11.3988 17.5023 11.5998 17.0018 11.5937C15.0285 11.5694 13.0551 11.553 11.0818 11.5336C10.4787 11.5277 10.2117 11.2322 10.2336 10.6453C10.3516 7.48912 10.0639 4.34155 10.0044 1.18886C9.98044 -0.0779227 10.8832 0.205857 11.6163 0.141983C12.3937 0.0742546 12.8621 0.225452 12.866 1.17098C12.8753 3.37996 13.0149 5.58814 13.0596 7.79745C13.0722 8.41988 13.2906 8.75936 14.034 8.81124Z" fill="#0E0E0E"/>
<path d="M8.25191 7.22661C5.86561 7.14371 3.58732 7.05696 1.30904 6.9702C1.2835 6.87501 1.25796 6.77983 1.23242 6.68464C2.17271 5.90475 3.37078 5.4919 4.36019 4.7881C5.55202 3.94031 6.85373 4.00485 8.19732 4.11867C8.79028 4.1689 9.06605 4.43292 9.03814 5.02108C9.01414 5.52693 9.02536 6.0345 9.02633 6.54131C9.02716 6.97862 8.8237 7.21974 8.25191 7.22661Z" fill="#5E17EB"/>
<path d="M6.71892 3.37494C4.78426 2.52296 3.07596 1.47189 1.32031 0.4353C1.65731 0.00254115 2.02026 0.137267 2.32187 0.153761C4.21475 0.25728 6.10542 0.415173 8.00383 0.351117C8.76134 0.325557 9.11358 0.65266 9.04634 1.39392C9.04308 1.42986 9.04533 1.46635 9.04623 1.50256C9.09909 3.62951 8.98553 3.72585 6.71892 3.37494Z" fill="#5E17EB"/>
<path d="M19.2248 9.40627C19.3111 9.15063 19.3624 8.88044 19.474 8.85426C20.8232 8.53794 22.2422 8.45692 23.5273 8.84872C24.314 9.08856 23.8776 10.1329 23.887 10.8229C23.895 11.3988 23.4446 11.5086 22.9575 11.5114C22.2141 11.5157 21.4708 11.5217 20.7275 11.5193C19.2928 11.5147 19.218 11.4402 19.211 10.048C19.2101 9.86708 19.2155 9.68609 19.2248 9.40627Z" fill="#0E0E0E"/>
<path d="M0.112559 11.1639C0.0392757 10.9035 -0.00271347 10.7242 0.000136275 10.5456C0.0303118 8.6547 0.117708 8.58485 2.04609 8.77754C2.45201 8.8181 2.86566 8.79127 3.26979 8.84125C3.7544 8.90117 4.43957 8.58479 4.66594 9.18219C4.92359 9.86217 4.7786 10.6128 4.55976 11.3165C4.49716 11.5178 4.31982 11.5958 4.12596 11.5866C2.80114 11.5232 1.44695 11.7755 0.112559 11.1639Z" fill="#0E0E0E"/>
<path d="M12.3093 17.3585C13.2138 17.2731 13.5799 17.5863 13.5228 18.4004C13.4751 19.0822 13.5156 19.7697 13.5111 20.4546C13.5031 21.6888 12.1498 22.3918 11.0025 21.7691C10.6777 21.5928 10.6952 21.3 10.6895 21.0207C10.6747 20.2999 10.6774 19.5787 10.6791 18.8577C10.6828 17.3738 10.6844 17.3738 12.3093 17.3585Z" fill="#0E0E0E"/>
<path d="M9.50169 17.2645C9.26663 18.335 8.55302 19.104 8.07223 19.9939C7.85195 20.4017 7.52439 20.4297 7.14244 20.1957C6.98551 20.0995 6.81858 20.0188 6.65582 19.9318C5.25881 19.1845 5.21342 19.1573 6.04349 17.8456C7.41906 15.672 6.72197 15.4156 9.50169 17.2645Z" fill="#0E0E0E"/>
<path d="M19.4432 15.9267C17.4098 14.7542 17.3861 14.4015 19.2415 12.583C20.0994 13.0785 20.9847 13.5885 21.8685 14.1009C22.2552 14.325 22.3503 14.6241 22.103 15.0067C22.0241 15.1287 21.9489 15.253 21.8738 15.3773C20.986 16.8464 20.9861 16.8465 19.4432 15.9267Z" fill="#0E0E0E"/>
<path d="M18.1972 6.23874C17.6288 5.46973 17.802 5.00287 18.6274 4.6795C19.1075 4.49147 19.567 4.23452 19.9998 3.95572C20.7461 3.47507 21.2112 3.55914 21.6496 4.39708C22.4245 5.87818 22.4761 5.85217 20.9572 6.62086C20.7591 6.72109 20.5643 6.82741 20.367 6.92911C18.9902 7.63859 18.9902 7.63843 18.1972 6.23874Z" fill="#0E0E0E"/>
<path d="M15.1611 1.88851C15.5726 1.23688 15.9431 0.654124 16.3588 0C17.235 0.374646 18.1565 0.562144 18.6506 1.41122C18.7664 1.61032 17.1761 4.26695 16.932 4.27329C15.9723 4.29823 15.3544 3.61111 14.6264 3.20667C14.601 2.67025 14.9188 2.3365 15.1611 1.88851Z" fill="#0E0E0E"/>
<path d="M16.6405 15.9237C17.3053 16.1826 18.6822 18.6127 18.4147 19.0521C17.9895 19.7503 17.1367 19.8681 16.4188 20.0958C15.7894 20.2955 15.8062 19.6256 15.5909 19.2933C15.4926 19.1416 15.4197 18.9721 15.3521 18.8042C14.4851 16.651 14.0027 16.9981 16.6405 15.9237Z" fill="#0E0E0E"/>
<path d="M3.07355 16.4937C2.02514 16.257 1.94298 15.36 1.77814 14.6587C1.62584 14.0107 2.45816 14.0314 2.87405 13.806C3.55006 13.4397 4.2688 13.1483 4.92508 12.8457C5.063 12.9202 5.15074 12.9384 5.18494 12.9902C6.45565 14.9146 6.43202 14.9987 4.3689 15.9282C3.96509 16.1101 3.55888 16.287 3.07355 16.4937Z" fill="#0E0E0E"/>
</g>
<defs>
<clipPath id="clip0_866_37382">
<rect width="24" height="22" fill="white"/>
</clipPath>
</defs>
</svg>
