<svg width="16" height="16" viewBox="0 0 16 16" fill="none" xmlns="http://www.w3.org/2000/svg">
<g clip-path="url(#clip0_1880_108253)">
<path d="M15.5597 1.0318C15.4891 0.835132 15.3307 0.674799 15.1022 0.568132C14.4632 0.269799 13.239 0.374799 11.9836 0.835632C11.8024 0.902132 11.6242 0.974799 11.4514 1.05247C11.3374 0.923966 11.1997 0.806966 11.0309 0.709466C10.4964 0.400799 9.95472 0.461966 9.49538 0.562466L5.73338 1.3858C5.43238 1.45163 5.19272 1.62897 5.04022 1.89863L0.536714 9.85997C0.248881 10.3686 0.425048 11.0193 0.929214 11.3105L7.11072 14.8793C7.27205 14.9725 7.45122 15.0201 7.63272 15.0201C7.72555 15.0201 7.81888 15.0076 7.91105 14.9826C8.18488 14.908 8.41272 14.7306 8.55272 14.4831L13.056 6.5218C13.208 6.25297 13.2375 5.95547 13.1416 5.66163L12.4839 3.6508C12.6362 3.60497 12.79 3.55397 12.9444 3.4973C13.7371 3.2063 14.4425 2.81163 14.9309 2.38597C15.4787 1.90847 15.7021 1.42763 15.5597 1.0318ZM12.6755 5.81413C12.7292 5.97813 12.714 6.13063 12.6294 6.2803L8.12588 14.2416C8.05088 14.3743 7.92872 14.4695 7.78205 14.5095C7.63688 14.5491 7.48555 14.5296 7.35588 14.4546L1.17438 10.8856C0.902381 10.7286 0.807881 10.3768 0.963548 10.1015L5.46688 2.1403C5.55122 1.9913 5.67255 1.9013 5.83805 1.86513L9.60005 1.0418C9.81072 0.995632 9.99205 0.972299 10.1537 0.972299C10.3974 0.972299 10.5967 1.02547 10.7855 1.13447C11.1002 1.31613 11.2979 1.60213 11.4679 2.12163L11.8564 3.30947C11.3547 3.42163 10.9202 3.45597 10.5837 3.43563C10.6227 3.2518 10.6097 3.0603 10.5432 2.87913C10.3517 2.35747 9.77338 2.08763 9.25422 2.27763C9.00338 2.36947 8.80322 2.55363 8.69072 2.79647C8.57738 3.04097 8.56622 3.3153 8.65938 3.56897C8.80922 3.9773 9.19605 4.2313 9.60622 4.2313C9.72005 4.2313 9.83555 4.2118 9.94838 4.17047C10.1019 4.1143 10.236 4.02347 10.3432 3.90597C10.4764 3.92397 10.6199 3.93297 10.7724 3.93297C11.1427 3.93297 11.5645 3.87997 12.0094 3.77713L12.6755 5.81413ZM9.13555 3.00263C9.18672 2.89247 9.27322 2.80613 9.38155 2.75547C9.29938 2.98697 9.32155 3.17113 9.36822 3.30113C9.42988 3.47263 9.55822 3.61663 9.74188 3.72147C9.48655 3.79313 9.21338 3.6553 9.11955 3.3998C9.07172 3.26913 9.07738 3.12813 9.13555 3.00263ZM10.0334 3.32047C9.92422 3.26947 9.85588 3.20713 9.82988 3.13513C9.79922 3.05013 9.82305 2.9358 9.89672 2.80397C9.97905 2.86263 10.0454 2.94597 10.0829 3.04813C10.1187 3.1458 10.1245 3.24947 10.1009 3.34797C10.0769 3.33913 10.0542 3.33013 10.0334 3.32047ZM12.7755 3.03697C12.6239 3.09263 12.4757 3.14163 12.3315 3.1848L11.934 1.96913C11.88 1.8043 11.816 1.63263 11.7302 1.46597C11.8682 1.4058 12.0092 1.3488 12.1525 1.29613C13.4409 0.823132 14.477 0.817632 14.8947 1.01263C15.0039 1.06363 15.0724 1.12597 15.0982 1.19797C15.2292 1.5618 14.4089 2.43747 12.7755 3.03697ZM8.18005 11.3886C8.13472 11.4673 8.05222 11.5113 7.96738 11.5113C7.92572 11.5113 7.88355 11.5006 7.84505 11.4785L3.41538 8.92097C3.29805 8.8533 3.25788 8.7033 3.32572 8.58597C3.39338 8.46863 3.54338 8.42846 3.66072 8.4963L8.09038 11.0538C8.20755 11.1215 8.24788 11.2715 8.18005 11.3886ZM7.39788 12.7435C7.35255 12.8221 7.27005 12.8661 7.18522 12.8661C7.14355 12.8661 7.10138 12.8555 7.06288 12.8333L2.63321 10.2758C2.51588 10.2081 2.47571 10.0581 2.54355 9.9408C2.61121 9.82347 2.76121 9.7833 2.87855 9.85113L7.30822 12.4086C7.42538 12.4763 7.46555 12.6263 7.39788 12.7435ZM8.96238 10.0338C8.91705 10.1125 8.83455 10.1565 8.74972 10.1565C8.70805 10.1565 8.66588 10.1458 8.62738 10.1236L4.19772 7.56596C4.08038 7.4983 4.04022 7.3483 4.10805 7.23097C4.17572 7.11363 4.32572 7.07347 4.44305 7.1413L8.87272 9.6988C8.98988 9.76647 9.03005 9.91646 8.96238 10.0338Z" fill="#35353A" stroke="#35353A" stroke-width="0.4"/>
</g>
<defs>
<clipPath id="clip0_1880_108253">
<rect width="16" height="16" fill="white"/>
</clipPath>
</defs>
</svg>
