<svg width="16" height="17" viewBox="0 0 16 17" fill="none" xmlns="http://www.w3.org/2000/svg">
<path d="M14.3736 7.66012L13.4669 6.60679C13.2936 6.40679 13.1536 6.03345 13.1536 5.76679V4.63345C13.1536 3.92679 12.5736 3.34679 11.8669 3.34679H10.7336C10.4736 3.34679 10.0936 3.20679 9.89358 3.03345L8.84025 2.12679C8.38025 1.73345 7.62691 1.73345 7.16025 2.12679L6.11358 3.04012C5.91358 3.20679 5.53358 3.34679 5.27358 3.34679H4.12025C3.41358 3.34679 2.83358 3.92679 2.83358 4.63345V5.77345C2.83358 6.03345 2.69358 6.40679 2.52691 6.60679L1.62691 7.66679C1.24025 8.12679 1.24025 8.87345 1.62691 9.33345L2.52691 10.3935C2.69358 10.5935 2.83358 10.9668 2.83358 11.2268V12.3668C2.83358 13.0735 3.41358 13.6535 4.12025 13.6535H5.27358C5.53358 13.6535 5.91358 13.7935 6.11358 13.9668L7.16691 14.8735C7.62691 15.2668 8.38025 15.2668 8.84691 14.8735L9.90025 13.9668C10.1002 13.7935 10.4736 13.6535 10.7402 13.6535H11.8736C12.5802 13.6535 13.1602 13.0735 13.1602 12.3668V11.2335C13.1602 10.9735 13.3002 10.5935 13.4736 10.3935L14.3802 9.34012C14.7669 8.88012 14.7669 8.12012 14.3736 7.66012ZM10.7736 7.24012L7.55358 10.4601C7.46025 10.5535 7.33358 10.6068 7.20025 10.6068C7.06691 10.6068 6.94025 10.5535 6.84691 10.4601L5.23358 8.84679C5.04025 8.65345 5.04025 8.33345 5.23358 8.14012C5.42691 7.94679 5.74691 7.94679 5.94025 8.14012L7.20025 9.40012L10.0669 6.53345C10.2602 6.34012 10.5802 6.34012 10.7736 6.53345C10.9669 6.72679 10.9669 7.04679 10.7736 7.24012Z" fill="#AD7BFF"/>
</svg>
