<svg width="20" height="20" viewBox="0 0 20 20" fill="none" xmlns="http://www.w3.org/2000/svg">
<path fill-rule="evenodd" clip-rule="evenodd" d="M7.78735 2.70123C8.77516 2.70123 9.20083 2.70312 9.595 2.76838C10.5876 2.93272 11.5075 3.39268 12.2345 4.08813C12.3922 4.23896 12.5404 4.40864 12.7389 4.66032H3.68054C3.13955 4.66032 2.70099 4.22176 2.70099 3.68077C2.70099 3.13978 3.13955 2.70123 3.68054 2.70123H7.78735ZM1.58438 3.08163H1.50099V3.68077V3.68163V9.99982L1.50098 10.1424C1.50081 12.1451 1.50071 13.3044 1.82015 14.2611C2.4375 16.1101 3.88846 17.561 5.73742 18.1784C6.6941 18.4978 7.85346 18.4977 9.85613 18.4975H9.85616L9.99871 18.4975H11.5783H11.6227C12.2476 18.4976 12.6087 18.4976 12.9199 18.4661C15.2819 18.2274 17.2457 16.6758 18.0742 14.5484H18.1019V14.4759C18.2862 13.9845 18.4102 13.4633 18.465 12.921C18.4965 12.6098 18.4965 12.2487 18.4964 11.6239V11.6238V11.5794V11.5349V11.5348C18.4965 10.91 18.4965 10.5489 18.465 10.2377C18.4102 9.69546 18.2862 9.17417 18.1019 8.68279V8.60979H18.074C17.4411 6.98512 16.1461 5.69633 14.5172 5.07177C14.4971 5.01109 14.4672 4.95311 14.4276 4.90031L14.3328 4.77395L14.2965 4.72553L14.2965 4.7255L14.2964 4.72546L14.2964 4.72546C13.7504 3.99739 13.4326 3.57364 13.064 3.22099C12.1625 2.35863 11.0218 1.78828 9.79101 1.5845C9.28768 1.50116 8.758 1.50118 7.8479 1.50122H7.84786L7.78735 1.50123H3.68054C2.68459 1.50123 1.84467 2.16923 1.58438 3.08163ZM17.2711 12.8003C17.2523 12.9863 17.2234 13.1691 17.185 13.3484H17.107C16.1299 13.3484 15.3377 12.5563 15.3377 11.5791C15.3377 10.6019 16.1299 9.80979 17.107 9.80979H17.1849C17.2234 9.98922 17.2523 10.1723 17.2711 10.3584C17.2957 10.6016 17.2964 10.8977 17.2964 11.5794C17.2964 12.261 17.2957 12.5571 17.2711 12.8003ZM14.1377 11.5791C14.1377 10.0528 15.2893 8.79552 16.7709 8.6286C16.0226 7.12986 14.5459 6.06305 12.7992 5.88652C12.556 5.86194 12.2599 5.86117 11.5783 5.86117H9.99871H9.39871V5.86031H3.68054C3.32825 5.86031 2.99549 5.77674 2.70099 5.62832V9.99982C2.70099 12.1864 2.70878 13.1335 2.95837 13.8811C3.45624 15.3722 4.62637 16.5423 6.11746 17.0402C6.86499 17.2898 7.81213 17.2975 9.99871 17.2975H11.5783C12.2599 17.2975 12.556 17.2968 12.7992 17.2722C14.5461 17.0956 16.0229 16.0286 16.7712 14.5296C15.2894 14.3628 14.1377 13.1055 14.1377 11.5791ZM7.59905 13.9781L8.02331 14.4024L8.87184 13.5539L8.44758 13.1296L7.49741 12.1794H10.7875H11.3875V10.9794H10.7875H7.49741L8.44758 10.0293L8.87184 9.605L8.02331 8.75647L7.59905 9.18074L5.62462 11.1552C5.39031 11.3895 5.39031 11.7694 5.62462 12.0037L7.59905 13.9781Z" fill="#0E0E0E"/>
</svg>
