<svg width="1216" height="808" viewBox="0 0 1216 808" fill="none" xmlns="http://www.w3.org/2000/svg">
<g filter="url(#filter0_d_6_114)">
<g clip-path="url(#clip0_6_114)">
<path d="M1793.2 582.234C1801.77 622.648 1777.14 663.025 1728.57 688.151L866.046 1134.43C817.487 1159.56 752.367 1165.62 695.229 1150.33L-319.632 878.787C-376.77 863.499 -417.257 829.182 -425.837 788.765L-578.17 70.9427C-586.742 30.5281 -562.109 -9.84851 -513.543 -34.9749L348.985 -481.254C397.543 -506.383 462.663 -512.442 519.802 -497.154L1534.66 -225.611C1591.8 -210.322 1632.29 -176.006 1640.87 -135.589L1793.2 582.234Z" stroke="white" stroke-opacity="0.2"/>
<path d="M1774.04 519.685C1786.39 558.179 1766.79 598.116 1722.63 624.45L938.258 1092.16C894.1 1118.5 832.074 1127.23 775.558 1115.07L-228.255 899.069C-284.771 886.908 -327.203 855.701 -339.561 817.205L-559.005 133.491C-571.356 94.9968 -551.762 55.0598 -507.596 28.7263L276.772 -438.988C320.93 -465.324 382.956 -474.053 439.472 -461.892L1443.28 -245.893C1499.8 -233.732 1542.23 -202.525 1554.59 -164.029L1774.04 519.685Z" stroke="white" stroke-opacity="0.2"/>
<path d="M1747.68 460.186C1763.45 496.615 1748.68 535.851 1708.92 563.113L1002.89 1047.3C963.138 1074.56 904.44 1085.71 848.916 1076.54L-137.272 913.703C-192.796 904.535 -236.722 876.444 -252.499 840.014L-532.65 192.989C-548.419 156.56 -533.647 117.324 -493.892 90.0626L212.145 -394.125C251.892 -421.387 310.59 -432.533 366.114 -423.365L1352.3 -260.527C1407.83 -251.359 1451.75 -223.269 1467.53 -186.839L1747.68 460.186Z" stroke="white" stroke-opacity="0.2"/>
<path d="M1714.69 404.09C1733.5 438.333 1723.31 476.624 1687.94 504.538L1059.75 1000.33C1024.38 1028.25 969.209 1041.54 915.022 1035.22L-47.4186 922.83C-101.605 916.503 -146.584 891.509 -165.407 857.266L-499.658 249.087C-518.473 214.844 -508.278 176.553 -472.906 148.639L155.283 -347.154C190.647 -375.07 245.821 -388.368 300.008 -382.04L1262.45 -269.653C1316.64 -263.326 1361.61 -238.333 1380.44 -204.09L1714.69 404.09Z" stroke="white" stroke-opacity="0.2"/>
<path d="M1675.65 351.707C1697.13 383.665 1691.24 420.787 1660.19 449.089L1108.73 951.75C1077.68 980.052 1026.19 995.234 973.659 991.577L40.6018 926.631C-11.9307 922.975 -57.5324 901.034 -79.0204 869.076L-460.619 301.469C-482.1 269.511 -476.208 232.389 -445.156 204.087L106.302 -298.574C137.346 -326.876 188.839 -342.057 241.372 -338.401L1174.43 -273.455C1226.96 -269.798 1272.56 -247.858 1294.05 -215.9L1675.65 351.707Z" stroke="white" stroke-opacity="0.2"/>
<path d="M1631.19 303.314C1654.95 332.915 1653.06 368.664 1626.23 397.095L1149.78 902.052C1122.96 930.483 1075.26 947.277 1024.67 946.107L126.117 925.327C75.527 924.157 29.7172 905.201 5.94857 875.6L-416.156 349.862C-439.917 320.261 -438.032 284.512 -411.203 256.081L65.2496 -248.876C92.0712 -277.307 139.766 -294.101 190.356 -292.931L1088.91 -272.151C1139.5 -270.981 1185.31 -252.025 1209.08 -222.424L1631.19 303.314Z" stroke="white" stroke-opacity="0.2"/>
<path d="M1581.95 259.146C1607.6 286.341 1609.41 320.536 1586.67 348.85L1182.92 851.73C1160.19 880.044 1116.37 898.175 1067.98 899.295L208.493 919.171C160.103 920.29 114.481 904.227 88.8193 877.032L-366.918 394.03C-392.574 366.835 -394.377 332.64 -371.642 304.326L32.11 -198.554C54.8383 -226.868 98.6566 -244.999 147.047 -246.118L1006.54 -265.995C1054.93 -267.114 1100.55 -251.051 1126.21 -223.856L1581.95 259.146Z" stroke="white" stroke-opacity="0.2"/>
<path d="M1528.61 219.4C1555.77 244.164 1560.93 276.646 1542.13 304.61L1208.23 801.266C1189.43 829.229 1149.53 848.427 1103.56 851.626L287.14 908.454C241.174 911.653 196.117 898.369 168.947 873.605L-313.579 433.777C-340.743 409.013 -345.898 376.531 -327.096 348.567L6.80295 -148.089C25.5986 -176.052 65.5001 -195.25 111.466 -198.449L927.891 -255.277C973.857 -258.476 1018.91 -245.192 1046.08 -220.428L1528.61 219.4Z" stroke="white" stroke-opacity="0.2"/>
<path d="M1471.86 184.227C1500.15 206.56 1508.31 237.192 1493.25 264.587L1225.85 751.131C1210.79 778.524 1174.81 798.519 1131.46 803.581L361.51 893.49C318.16 898.552 274.021 887.914 245.723 865.582L-256.828 468.948C-285.119 446.616 -293.276 415.983 -278.218 388.588L-10.8161 -97.9555C4.23576 -125.349 40.2188 -145.344 83.5683 -150.406L853.521 -240.315C896.87 -245.377 941.009 -234.739 969.307 -212.407L1471.86 184.227Z" stroke="white" stroke-opacity="0.2"/>
<path d="M1412.4 153.742C1441.44 173.664 1452.24 202.337 1440.71 228.959L1235.98 701.785C1224.46 728.406 1192.36 748.934 1151.78 755.633L431.107 874.63C390.531 881.33 347.637 873.185 318.585 853.263L-197.365 499.434C-226.411 479.511 -237.206 450.839 -225.677 424.217L-20.9509 -48.6093C-9.42768 -75.2305 22.6722 -95.7582 63.2474 -102.458L783.924 -221.454C824.499 -228.154 867.393 -220.009 896.445 -200.088L1412.4 153.742Z" stroke="white" stroke-opacity="0.2"/>
<path d="M1350.93 128.012C1380.37 145.569 1393.43 172.194 1385.19 197.858L1238.89 653.667C1230.66 679.33 1202.37 700.135 1164.69 708.242L495.487 852.242C457.809 860.349 416.459 854.529 387.015 836.973L-135.897 525.164C-165.336 507.607 -178.399 480.982 -170.16 455.318L-23.8637 -0.491181C-15.63 -26.1542 12.6579 -46.9589 50.3353 -55.0663L719.544 -199.066C757.221 -207.173 798.572 -201.353 828.016 -183.797L1350.93 128.012Z" stroke="white" stroke-opacity="0.2"/>
<path d="M1288.16 107.066C1317.64 122.323 1332.6 146.837 1327.39 171.376L1234.9 607.197C1229.7 631.734 1205.12 652.569 1170.43 661.852L554.26 826.717C519.569 835.999 480.032 832.32 450.545 817.065L-73.1323 546.11C-102.614 530.853 -117.57 506.339 -112.361 481.8L-19.8727 45.9794C-14.6684 21.4419 9.91318 0.60662 44.6042 -8.67556L660.77 -173.541C695.461 -182.823 734.998 -179.144 764.485 -163.889L1288.16 107.066Z" stroke="white" stroke-opacity="0.2"/>
<path d="M1224.8 90.8893C1253.99 103.932 1270.47 126.298 1268.01 149.563L1224.38 562.769C1221.92 586.033 1200.91 606.664 1169.26 616.887L607.096 798.467C575.445 808.69 537.96 806.955 508.763 793.914L-9.77116 562.288C-38.9637 549.245 -55.4356 526.879 -52.9775 503.614L-9.34768 90.4076C-6.89399 67.1435 14.1197 46.5129 45.7704 36.2896L607.934 -145.29C639.585 -155.513 677.07 -153.778 706.267 -140.737L1224.8 90.8893Z" stroke="white" stroke-opacity="0.2"/>
<path d="M1161.54 79.4239C1190.13 90.357 1207.74 110.561 1207.74 132.425L1207.74 520.752C1207.74 542.615 1190.13 562.82 1161.53 573.751L653.721 767.914C625.13 778.846 589.901 778.847 561.308 767.915L53.4942 573.751C24.9049 562.818 7.29145 542.615 7.29287 520.75L7.29247 132.423C7.28989 110.56 24.905 90.3558 53.4957 79.4241L561.309 -114.739C589.9 -125.671 625.129 -125.671 653.722 -114.74L1161.54 79.4239Z" stroke="white" stroke-opacity="0.2"/>
<path d="M1099.04 72.5766C1126.74 81.5233 1145.12 99.5746 1147.27 119.932L1185.45 481.487C1187.6 501.843 1173.18 521.414 1147.64 532.825L693.922 735.498C668.377 746.908 635.578 748.428 607.881 739.483L115.987 580.6C88.2943 571.653 69.9088 553.602 67.7606 533.245L29.5837 171.689C27.4319 151.333 41.8464 131.763 67.3914 120.352L521.108 -82.3209C546.653 -93.7317 579.453 -95.2512 607.15 -86.3061L1099.04 72.5766Z" stroke="white" stroke-opacity="0.2"/>
<path d="M1037.98 70.2097C1064.51 77.3092 1083.3 93.2416 1087.28 112.007L1158.01 445.281C1161.99 464.045 1150.56 482.792 1128.01 494.458L727.55 701.658C705.003 713.324 674.769 716.138 648.239 709.041L177.053 582.967C150.525 575.867 131.729 559.935 127.748 541.169L57.0214 207.895C53.0372 189.131 64.4752 170.384 87.0217 158.719L487.481 -48.4819C510.027 -60.1476 540.261 -62.9622 566.792 -55.8643L1037.98 70.2097Z" stroke="white" stroke-opacity="0.2"/>
<path d="M978.97 72.1519C1004.09 77.5581 1022.94 91.4276 1028.43 108.537L1125.97 412.41C1131.46 429.518 1122.75 447.269 1103.12 458.972L754.514 666.845C734.887 678.549 707.32 682.43 682.2 677.025L236.061 581.025C210.943 575.619 192.086 561.75 186.596 544.64L89.0644 240.767C83.5713 223.659 92.281 205.908 111.908 194.205L460.516 -13.6679C480.143 -25.3715 507.71 -29.2525 532.83 -23.8479L978.97 72.1519Z" stroke="white" stroke-opacity="0.2"/>
<path d="M922.619 78.1931C946.109 82.0731 964.692 93.9573 971.364 109.37L1089.89 383.112C1096.57 398.523 1090.32 415.124 1073.5 426.657L774.79 631.505C757.972 643.039 733.139 647.755 709.646 643.877L292.412 574.984C268.921 571.104 250.339 559.219 243.666 543.806L125.14 270.065C118.465 254.653 124.715 238.053 141.533 226.52L440.241 21.6713C457.059 10.138 481.892 5.42173 505.384 9.30007L922.619 78.1931Z" stroke="white" stroke-opacity="0.2"/>
<path d="M869.49 88.091C891.164 90.6231 909.154 100.62 916.681 114.318L1050.38 357.59C1057.91 371.286 1053.83 386.603 1039.69 397.768L788.41 596.085C774.263 607.251 752.194 612.571 730.518 610.04L345.541 565.085C323.867 562.553 305.876 552.556 298.349 538.858L164.648 295.587C157.119 281.89 161.198 266.573 175.345 255.408L426.62 57.091C440.768 45.9254 462.837 40.6054 484.513 43.136L869.49 88.091Z" stroke="white" stroke-opacity="0.2"/>
<path d="M820.108 101.571C839.808 102.944 856.907 111.171 864.964 123.156L1008.06 336.009C1016.12 347.992 1013.91 361.913 1002.27 372.526L795.472 561.024C783.829 571.636 764.52 577.33 744.819 575.959L394.922 551.605C375.222 550.232 358.123 542.005 350.066 530.02L206.967 317.168C198.908 305.184 201.119 291.263 212.761 280.65L419.558 92.1525C431.201 81.5398 450.511 75.8459 470.212 77.2166L820.108 101.571Z" stroke="white" stroke-opacity="0.2"/>
<path d="M774.959 118.331C792.555 118.739 808.488 125.332 816.754 135.629L963.573 318.494C971.84 328.789 971.184 341.224 961.854 351.113L796.131 526.75C786.801 536.638 770.211 542.48 752.614 542.074L440.072 534.846C422.475 534.438 406.542 527.844 398.276 517.548L251.457 334.683C243.19 324.388 243.846 311.953 253.177 302.064L418.899 126.427C428.23 116.538 444.819 110.696 462.417 111.103L774.959 118.331Z" stroke="white" stroke-opacity="0.2"/>
<path d="M734.477 138.038C749.874 137.683 764.389 142.794 772.553 151.447L917.561 305.13C925.726 313.782 926.299 324.662 919.066 333.671L790.6 493.678C783.367 502.687 769.425 508.456 754.027 508.813L480.553 515.137C465.156 515.492 450.641 510.381 442.477 501.728L297.469 348.046C289.304 339.393 288.731 328.513 295.964 319.504L424.43 159.497C431.663 150.489 445.605 144.719 461.003 144.362L734.477 138.038Z" stroke="white" stroke-opacity="0.2"/>
<path d="M699.051 160.34C712.185 159.427 725.057 163.223 732.819 170.298L870.684 295.963C878.447 303.038 879.919 312.319 874.548 320.308L779.148 462.21C773.777 470.199 762.377 475.685 749.243 476.599L515.979 492.836C502.846 493.749 489.973 489.953 482.211 482.878L344.346 357.213C336.584 350.138 335.111 340.857 340.482 332.868L435.882 190.966C441.253 182.977 452.653 177.491 465.787 176.577L699.051 160.34Z" stroke="white" stroke-opacity="0.2"/>
<path d="M669.017 184.862C679.854 183.597 690.888 186.256 697.962 191.84L823.6 290.998C830.674 296.58 832.713 304.239 828.949 311.087L762.099 432.723C758.335 439.571 749.34 444.57 738.502 445.836L546.013 468.314C535.176 469.579 524.142 466.919 517.068 461.336L391.43 362.177C384.356 356.595 382.317 348.936 386.081 342.088L452.931 220.452C456.695 213.604 465.691 208.605 476.528 207.339L669.017 184.862Z" stroke="white" stroke-opacity="0.2"/>
<path d="M644.654 211.21C653.196 209.8 662.226 211.515 668.342 215.709L776.963 290.2C783.079 294.393 785.351 300.43 782.925 306.034L739.824 405.576C737.398 411.181 730.64 415.503 722.098 416.914L570.376 441.965C561.834 443.375 552.804 441.661 546.688 437.466L438.067 362.976C431.951 358.782 429.679 352.746 432.105 347.141L475.206 247.599C477.632 241.995 484.39 237.673 492.932 236.262L644.654 211.21Z" stroke="white" stroke-opacity="0.2"/>
<path d="M626.187 238.979C632.466 237.628 639.358 238.599 644.265 241.525L731.417 293.493C736.324 296.419 738.501 300.856 737.128 305.133L712.746 381.101C711.373 385.379 706.658 388.846 700.379 390.198L588.844 414.198C582.564 415.548 575.673 414.578 570.766 411.652L483.613 359.684C478.706 356.758 476.529 352.321 477.902 348.044L502.285 272.075C503.658 267.798 508.372 264.331 514.652 262.979L626.187 238.979Z" stroke="white" stroke-opacity="0.2"/>
<path d="M613.78 267.749C617.862 266.657 622.513 267.09 625.982 268.885L687.591 300.762C691.06 302.557 692.819 305.441 692.207 308.328L681.326 359.601C680.713 362.487 677.821 364.939 673.74 366.031L601.25 385.427C597.168 386.519 592.517 386.086 589.048 384.291L527.439 352.414C523.97 350.619 522.211 347.735 522.823 344.848L533.704 293.575C534.317 290.689 537.209 288.237 541.29 287.145L613.78 267.749Z" stroke="white" stroke-opacity="0.2"/>
<path d="M607.541 297.095C609.52 296.456 611.862 296.565 613.687 297.38L646.096 311.857C647.92 312.672 648.95 314.069 648.796 315.523L646.069 341.349C645.916 342.803 644.603 344.092 642.624 344.731L607.489 356.08C605.511 356.719 603.168 356.61 601.343 355.795L568.935 341.319C567.11 340.504 566.081 339.106 566.234 337.652L568.961 311.826C569.115 310.372 570.428 309.083 572.406 308.444L607.541 297.095Z" stroke="white" stroke-opacity="0.2"/>
</g>
</g>
<defs>
<filter id="filter0_d_6_114" x="0" y="0" width="1216" height="808" filterUnits="userSpaceOnUse" color-interpolation-filters="sRGB">
<feFlood flood-opacity="0" result="BackgroundImageFix"/>
<feColorMatrix in="SourceAlpha" type="matrix" values="0 0 0 0 0 0 0 0 0 0 0 0 0 0 0 0 0 0 127 0" result="hardAlpha"/>
<feOffset dy="4"/>
<feGaussianBlur stdDeviation="2"/>
<feComposite in2="hardAlpha" operator="out"/>
<feColorMatrix type="matrix" values="0 0 0 0 0 0 0 0 0 0 0 0 0 0 0 0 0 0 0.25 0"/>
<feBlend mode="normal" in2="BackgroundImageFix" result="effect1_dropShadow_6_114"/>
<feBlend mode="normal" in="SourceGraphic" in2="effect1_dropShadow_6_114" result="shape"/>
</filter>
<clipPath id="clip0_6_114">
<rect width="1208" height="800" fill="white" transform="translate(4)"/>
</clipPath>
</defs>
</svg>
