<svg width="42" height="42" viewBox="0 0 42 42" fill="none" xmlns="http://www.w3.org/2000/svg">
<path d="M20.5921 33.3817C27.4409 33.3817 33.0147 27.808 33.0147 20.9592C33.0147 14.1104 27.4409 8.53662 20.5921 8.53662C13.7433 8.53662 8.16956 14.1104 8.16956 20.9592C8.16956 27.808 13.7433 33.3817 20.5921 33.3817ZM20.5921 9.70635C26.7975 9.70635 31.8449 14.7538 31.8449 20.9592C31.8449 27.1646 26.7975 32.212 20.5921 32.212C14.3867 32.212 9.33929 27.1646 9.33929 20.9592C9.33929 14.7538 14.3867 9.70635 20.5921 9.70635Z" fill="black"/>
<path d="M26.6694 20.9591C26.6694 20.6374 26.4063 20.3742 26.0846 20.3742H21.1775V12.1452C21.1775 11.8235 20.9144 11.5603 20.5927 11.5603C20.271 11.5603 20.0078 11.8235 20.0078 12.1452V21.544H26.0846C26.4063 21.544 26.6694 21.2808 26.6694 20.9591Z" fill="black"/>
<path d="M26.774 4.09204C25.306 3.53056 23.7327 3.19719 22.1653 3.04512C21.6447 3.09776 21.1066 2.6942 20.5861 3.60075C20.4282 3.86979 20.4223 4.2324 20.5861 4.51899C21.054 5.47232 21.5044 5.1214 21.9722 5.22083C22.4343 5.24422 22.8905 5.3495 23.3467 5.40214C39.4714 8.52532 41.1208 30.3584 25.7505 36.0316C8.72503 41.4708 -2.92551 20.6496 9.63742 8.75342V9.84712C9.63742 10.1688 9.9006 10.432 10.2223 10.432C10.544 10.432 10.8071 10.1688 10.8071 9.84712V7.61293C10.8071 7.29125 10.544 7.02806 10.2223 7.02806H7.80678C7.48511 7.02806 7.22192 7.29125 7.22192 7.61293C7.22192 7.93461 7.48511 8.1978 7.80678 8.1978H8.80106C7.65472 9.22716 6.63705 10.4027 5.80069 11.7011C-3.06003 25.8549 10.5557 42.9856 26.3763 37.833C42.3256 32.3469 42.542 10.0226 26.774 4.09204Z" fill="black"/>
</svg>
