<svg width="42" height="42" viewBox="0 0 42 42" fill="none" xmlns="http://www.w3.org/2000/svg">
<path d="M20.999 25.1298L36.2792 17.4594L20.999 9.78911L5.71884 17.4594L20.999 25.1298ZM6.62449 22.2017C7.04068 21.9942 7.54442 22.1628 7.75251 22.5792C7.95918 22.9957 7.79126 23.5029 7.37652 23.7118L5.72035 24.5447L21.0005 32.215L36.2807 24.5447L34.6245 23.7118C34.2098 23.5029 34.0418 22.9971 34.2485 22.5792C34.4552 22.1613 34.9604 21.9942 35.3765 22.2017L38.5339 23.7868C38.6918 23.866 38.8267 23.9943 38.9113 24.1657C39.118 24.5822 38.9515 25.0894 38.5353 25.2969L21.3811 33.9083C21.1514 34.025 20.873 34.0351 20.6247 33.9111L3.46753 25.2983C3.30966 25.2191 3.17475 25.0908 3.0901 24.9193C2.88344 24.5029 3.04991 23.9957 3.46609 23.7882L6.62632 22.2017L6.62449 22.2017ZM38.5339 18.2133L21.3796 26.8246C21.15 26.9413 20.8716 26.9514 20.6233 26.8275L3.46609 18.2147C3.30823 18.1354 3.17332 18.0072 3.08866 17.8357C2.882 17.4193 3.04848 16.912 3.46466 16.7031L20.6189 8.09175C20.8486 7.97503 21.127 7.96494 21.3753 8.08887L38.5325 16.7017C38.6903 16.781 38.8252 16.9092 38.9099 17.0807C39.1166 17.4985 38.9501 18.0043 38.5339 18.2133Z" fill="black"/>
</svg>
