<svg width="63" height="87" viewBox="0 0 63 87" fill="none" xmlns="http://www.w3.org/2000/svg">
<path d="M32.9395 84.2552C32.561 83.8299 32.2206 83.5075 31.8142 83.3672C31.3971 83.223 30.0309 84.2213 30.0507 84.6719C30.0692 85.115 30.2821 85.5514 30.5442 85.9862C30.9386 86.6396 31.803 86.8619 32.4828 86.4909L32.5615 86.4476C33.3742 86.0031 33.5526 84.9445 32.9395 84.2552Z" fill="#1C1C1C"/>
<path d="M39.6458 61.4971C41.2334 58.3155 40.8448 54.8976 38.6263 52.4834C35.2917 48.8558 25.7956 48.413 22.1511 51.736C21.7795 52.0744 21.4264 52.5084 21.2578 52.9666C20.8612 54.044 21.8668 55.0938 23.0054 54.7739C23.618 54.6014 24.1447 54.1557 24.729 53.8703C27.2958 52.6164 30.012 52.3374 32.7953 52.9282C37.1075 53.8425 38.692 57.2162 36.2384 60.7215C35.1084 62.3371 33.4071 63.6226 31.7895 64.8448L31.7223 64.8956C29.9872 66.207 27.0817 66.9036 26.456 68.5278C25.7433 70.3748 26.9836 72.9515 27.3867 75.2098C27.4774 75.7161 27.5637 76.2847 27.7672 76.69C28.1817 77.5136 29.179 78.4827 29.8588 78.4556C31.2185 78.4023 31.1596 77.1765 30.909 76.0725C30.4558 74.0758 30.0629 72.067 29.5845 69.7736C31.212 68.8885 32.4869 68.2382 33.7181 67.5169C36.2438 66.0353 38.3337 64.1275 39.6458 61.4971Z" fill="#1C1C1C"/>
<path d="M50.5635 62.5441C51.2032 61.965 51.1852 60.9234 50.5281 60.3596C50.265 60.1341 50.0336 59.9899 49.8237 60.0165C49.3149 60.0796 48.5585 60.9642 48.5559 61.498C48.5525 61.9975 49.3727 62.8774 49.8673 62.9086C50.0844 62.9216 50.3104 62.7731 50.5635 62.5441Z" fill="#1C1C1C"/>
<path d="M60.3202 38.8484C62.3525 36.3312 62.7324 33.1849 61.6293 30.032C60.75 27.5181 59.0036 25.8629 56.3265 25.6114C53.4744 25.3431 51.0463 26.4312 49.2744 28.6992C48.9299 29.1394 48.9385 30.293 49.2754 30.7185C49.5633 31.0826 50.6365 31.0895 51.218 30.8679C52.0246 30.5601 52.6465 29.7928 53.4333 29.3954C56.2177 27.9868 58.5921 29.2762 58.9621 32.3926C59.2228 34.5827 58.5094 36.5931 57.0128 38.0591C55.1097 39.9235 53.0178 41.6381 50.8126 43.1218C49.1888 44.2139 48.1255 45.3362 48.1546 47.4181C48.1914 49.9985 48.033 52.5811 48.0192 55.1639L48.0194 55.1981C48.0115 57.0432 50.673 57.3004 51.0058 55.4869C51.0444 55.2749 51.074 55.0645 51.0921 54.8522C51.2038 53.5177 51.2026 52.1713 51.186 50.8269L51.1722 49.8192C51.145 47.7593 51.7513 46.3626 53.6617 45.089C56.1611 43.421 58.4165 41.2064 60.3202 38.8484Z" fill="#1C1C1C"/>
<path d="M11.2696 43.5618C10.7758 43.0275 10.3685 42.6161 9.88087 42.4823C9.5938 42.403 9.2195 42.6241 8.82739 42.9088C8.27293 43.3116 8.14439 44.0615 8.52673 44.6254C8.84096 45.0889 9.17444 45.5174 9.61864 45.7469C9.88122 45.8827 10.3516 45.6447 10.9753 45.3096C11.6322 44.9567 11.7736 44.1057 11.2696 43.5618Z" fill="#1C1C1C"/>
<path d="M23.6389 21.9722C27.0277 19.2818 28.9896 15.6558 29.0989 11.205C29.2363 5.6123 25.6594 1.29688 20.1514 0.93902C12.2063 0.421505 5.97346 3.92191 1.12441 10.1377C1.04684 10.2382 0.966994 10.3674 0.889241 10.5104C0.416739 11.3781 0.270748 12.4076 0.509131 13.3673C0.634611 13.8687 0.828272 14.3045 1.13517 14.5038C2.29046 15.2568 2.75008 14.1047 3.2982 13.1211C6.71704 6.98474 12.2872 4.31693 18.9396 4.0462C23.5464 3.85856 26.279 7.30974 25.829 11.9299C25.4898 15.4147 23.664 18.0577 20.9765 20.0369C18.8391 21.6108 16.575 23.0142 14.3066 24.4002L13.1726 25.0924C11.5732 26.0692 10.1372 27.1187 9.85339 29.1345C9.41884 32.2248 8.97215 35.3151 8.64891 38.4178L8.64479 38.4569C8.44892 40.4086 11.273 40.8062 11.6966 38.8915C11.7262 38.7592 11.7516 38.6258 11.7728 38.4912C12.139 36.1801 12.4422 33.8523 12.6281 31.5201C12.7772 29.6406 13.6728 28.525 15.2751 27.5737C18.1562 25.8625 21.0153 24.0546 23.6389 21.9722Z" fill="#1C1C1C"/>
</svg>
