<svg width="602" height="510" viewBox="0 0 602 510" fill="none" xmlns="http://www.w3.org/2000/svg">
<g clip-path="url(#clip0_2061_11818)">
<rect x="2" y="2" width="598" height="506" rx="30" fill="#735CFF"/>
<g clip-path="url(#clip1_2061_11818)">
<path d="M1086.22 510.645C1091.9 551.06 1075.59 591.437 1043.42 616.563L472.212 1062.84C440.054 1087.97 396.928 1094.03 359.088 1078.74L-313.005 807.199C-350.845 791.91 -377.658 757.594 -383.34 717.177L-484.222 -0.645591C-489.899 -41.0603 -473.586 -81.4368 -441.423 -106.563L129.788 -552.842C161.945 -577.971 205.072 -584.031 242.911 -568.742L915.004 -297.199C952.844 -281.911 979.657 -247.594 985.339 -207.177L1086.22 510.645Z" stroke="white" stroke-opacity="0.2"/>
<path d="M1073.53 448.097C1081.71 486.591 1068.73 526.528 1039.48 552.862L520.035 1020.58C490.791 1046.91 449.714 1055.64 412.286 1043.48L-252.49 827.481C-289.918 815.32 -318.019 784.113 -326.203 745.617L-471.53 61.9034C-479.709 23.4089 -466.733 -16.5282 -437.484 -42.8616L81.9649 -510.576C111.208 -536.912 152.285 -545.641 189.713 -533.48L854.49 -317.481C891.918 -305.32 920.018 -274.113 928.203 -235.617L1073.53 448.097Z" stroke="white" stroke-opacity="0.2"/>
<path d="M1056.08 388.599C1066.52 425.028 1056.74 464.264 1030.41 491.525L562.835 975.713C536.512 1002.98 497.639 1014.12 460.868 1004.95L-192.237 842.115C-229.008 832.947 -258.098 804.857 -268.546 768.426L-454.077 121.401C-464.519 84.972 -454.737 45.7361 -428.409 18.475L39.1652 -465.713C65.4881 -492.975 104.361 -504.12 141.132 -494.953L794.237 -332.115C831.007 -322.947 860.098 -294.857 870.546 -258.426L1056.08 388.599Z" stroke="white" stroke-opacity="0.2"/>
<path d="M1034.23 332.502C1046.69 366.744 1039.94 405.035 1016.51 432.95L600.492 928.742C577.072 956.658 540.533 969.956 504.647 963.628L-132.731 851.241C-168.616 844.914 -198.403 819.921 -210.869 785.678L-432.227 177.498C-444.687 143.256 -437.936 104.965 -414.511 77.0501L1.5085 -418.743C24.9287 -446.658 61.4678 -459.956 97.3532 -453.629L734.731 -341.242C770.616 -334.914 800.404 -309.921 812.869 -275.678L1034.23 332.502Z" stroke="white" stroke-opacity="0.2"/>
<path d="M1008.37 280.119C1022.6 312.077 1018.7 349.199 998.133 377.501L632.929 880.162C612.37 908.464 578.269 923.645 543.479 919.989L-74.4396 855.043C-109.229 851.387 -139.429 829.446 -153.66 797.488L-406.374 229.881C-420.6 197.923 -416.698 160.801 -396.134 132.499L-30.9298 -370.162C-10.3706 -398.464 23.7309 -413.645 58.5207 -409.989L676.439 -345.043C711.229 -341.387 741.429 -319.446 755.659 -287.488L1008.37 280.119Z" stroke="white" stroke-opacity="0.2"/>
<path d="M978.928 231.726C994.664 261.327 993.416 297.076 975.648 325.507L660.116 830.464C642.354 858.895 610.768 875.689 577.264 874.519L-17.8066 853.738C-51.31 852.568 -81.6477 833.612 -97.3884 804.011L-376.928 278.274C-392.664 248.673 -391.415 212.924 -373.648 184.493L-58.1162 -320.465C-40.3536 -348.896 -8.76752 -365.689 24.7359 -364.519L619.807 -343.739C653.31 -342.569 683.648 -323.613 699.389 -294.012L978.928 231.726Z" stroke="white" stroke-opacity="0.2"/>
<path d="M946.32 187.558C963.31 214.753 964.504 248.948 949.448 277.262L682.063 780.142C667.011 808.456 637.992 826.587 605.945 827.706L36.7472 847.583C4.70049 848.702 -25.5123 832.639 -42.5071 805.444L-344.32 322.442C-361.31 295.247 -362.505 261.052 -347.448 232.738L-80.0629 -270.142C-65.011 -298.456 -35.9923 -316.587 -3.9456 -317.707L565.253 -337.583C597.299 -338.702 627.512 -322.639 644.507 -295.444L946.32 187.558Z" stroke="white" stroke-opacity="0.2"/>
<path d="M910.996 147.812C928.986 172.576 932.399 205.058 919.948 233.021L698.823 729.677C686.375 757.64 659.95 776.838 629.509 780.038L88.8308 836.865C58.3898 840.065 28.551 826.781 10.5574 802.017L-308.996 362.189C-326.986 337.424 -330.399 304.942 -317.948 276.979L-96.8227 -219.677C-84.3753 -247.641 -57.9504 -266.838 -27.5094 -270.038L513.169 -326.865C543.61 -330.065 573.449 -316.781 591.443 -292.017L910.996 147.812Z" stroke="white" stroke-opacity="0.2"/>
<path d="M873.413 112.639C892.149 134.972 897.55 165.605 887.578 192.999L710.491 679.543C700.523 706.937 676.693 726.931 647.985 731.993L138.082 821.903C109.374 826.965 80.1428 816.326 61.4027 793.995L-271.413 397.36C-290.149 375.028 -295.55 344.395 -285.578 317.001L-108.491 -169.543C-98.5228 -196.937 -74.693 -216.931 -45.9847 -221.993L463.918 -311.903C492.626 -316.965 521.857 -306.327 540.597 -283.995L873.413 112.639Z" stroke="white" stroke-opacity="0.2"/>
<path d="M834.033 82.1538C853.269 102.076 860.418 130.749 852.783 157.371L717.203 630.197C709.571 656.818 688.313 677.346 661.442 684.046L184.173 803.042C157.302 809.742 128.895 801.597 109.655 781.675L-232.033 427.846C-251.269 407.923 -258.418 379.251 -250.783 352.629L-115.203 -120.197C-107.571 -146.818 -86.3132 -167.346 -59.4422 -174.046L417.827 -293.042C444.698 -299.742 473.105 -291.597 492.344 -271.676L834.033 82.1538Z" stroke="white" stroke-opacity="0.2"/>
<path d="M793.326 56.4243C812.822 73.9811 821.473 100.606 816.017 126.27L719.132 582.079C713.679 607.742 694.945 628.547 669.993 636.654L226.809 780.654C201.857 788.761 174.472 782.941 154.973 765.385L-191.326 453.575C-210.822 436.019 -219.473 409.394 -214.017 383.73L-117.132 -72.0794C-111.679 -97.7424 -92.9453 -118.547 -67.9933 -126.654L375.191 -270.654C400.143 -278.761 427.528 -272.941 447.027 -255.386L793.326 56.4243Z" stroke="white" stroke-opacity="0.2"/>
<path d="M751.76 35.4781C771.284 50.7347 781.189 75.2491 777.739 99.7879L716.488 535.609C713.042 560.146 696.763 580.981 673.788 590.263L265.732 755.129C242.758 764.411 216.574 760.732 197.046 745.477L-149.76 474.522C-169.284 459.265 -179.189 434.751 -175.739 410.212L-114.489 -25.6088C-111.042 -50.1463 -94.7628 -70.9816 -71.7886 -80.2638L336.268 -245.129C359.242 -254.411 385.426 -250.732 404.953 -235.477L751.76 35.4781Z" stroke="white" stroke-opacity="0.2"/>
<path d="M709.799 19.3008C729.131 32.3432 740.04 54.7091 738.412 77.9746L709.518 491.181C707.893 514.445 693.977 535.076 673.016 545.299L300.722 726.879C279.762 737.102 254.937 735.367 235.601 722.326L-107.799 490.699C-127.132 477.657 -138.04 455.291 -136.412 432.025L-107.518 18.8192C-105.893 -4.44489 -91.9771 -25.0755 -71.0164 -35.2988L301.277 -216.879C322.238 -227.102 347.063 -225.367 366.399 -212.326L709.799 19.3008Z" stroke="white" stroke-opacity="0.2"/>
<path d="M667.901 7.83596C686.834 18.7691 698.499 38.9726 698.498 60.8374L698.498 449.164C698.5 471.027 686.834 491.232 667.9 502.163L331.6 696.326C312.665 707.258 289.335 707.259 270.399 696.327L-65.9013 502.164C-84.8346 491.23 -96.4991 471.027 -96.4982 449.162L-96.4985 60.8354C-96.5002 38.9721 -84.8345 18.7679 -65.9003 7.83624L270.4 -186.327C289.334 -197.259 312.665 -197.259 331.6 -186.328L667.901 7.83596Z" stroke="white" stroke-opacity="0.2"/>
<path d="M626.515 0.988233C644.855 9.93493 657.031 27.9862 658.453 48.3437L683.736 409.899C685.161 430.255 675.615 449.826 658.698 461.237L358.223 663.909C341.306 675.32 319.584 676.84 301.242 667.894L-24.5152 509.012C-42.855 500.065 -55.0308 482.014 -56.4534 461.656L-81.7361 100.101C-83.1611 79.745 -73.6151 60.1742 -56.698 48.7634L243.777 -153.909C260.694 -165.32 282.416 -166.84 300.758 -157.895L626.515 0.988233Z" stroke="white" stroke-opacity="0.2"/>
<path d="M586.074 -1.37838C603.642 5.72109 616.09 21.6535 618.727 40.4187L665.566 373.693C668.204 392.457 660.629 411.204 645.698 422.869L380.493 630.07C365.562 641.736 345.539 644.55 327.969 637.452L15.9256 511.378C-1.64226 504.279 -14.09 488.347 -16.7265 469.581L-63.5654 136.307C-66.2039 117.543 -58.6291 98.7963 -43.6977 87.1306L221.507 -120.07C236.438 -131.736 256.461 -134.55 274.031 -127.452L586.074 -1.37838Z" stroke="white" stroke-opacity="0.2"/>
<path d="M546.996 0.563307C563.63 5.9695 576.119 19.839 579.755 36.9487L644.345 340.821C647.983 357.93 642.215 375.68 629.217 387.384L398.351 595.256C385.352 606.96 367.096 610.841 350.46 605.436L55.0037 509.437C38.3696 504.03 25.8815 490.161 22.2455 473.051L-42.3449 169.178C-45.9827 152.07 -40.2147 134.32 -27.2166 122.616L203.65 -85.2566C216.648 -96.9601 234.904 -100.841 251.54 -95.4366L546.996 0.563307Z" stroke="white" stroke-opacity="0.2"/>
<path d="M509.678 6.6047C525.234 10.4847 537.541 22.3689 541.96 37.7821L620.454 311.523C624.874 326.935 620.735 343.536 609.597 355.069L411.778 559.917C400.64 571.45 384.194 576.167 368.636 572.288L92.3223 503.395C76.7658 499.515 64.4593 487.631 60.0404 472.218L-18.4539 198.477C-22.8744 183.065 -18.7349 166.464 -7.5974 154.931L190.222 -49.9171C201.36 -61.4504 217.806 -66.1667 233.364 -62.2883L509.678 6.6047Z" stroke="white" stroke-opacity="0.2"/>
<path d="M474.493 16.5029C488.847 19.0351 500.761 29.0322 505.746 42.7298L594.29 286.002C599.276 299.698 596.575 315.015 587.206 326.18L420.798 524.497C411.429 535.663 396.814 540.983 382.459 538.452L127.507 493.497C113.153 490.965 101.239 480.968 96.2543 467.27L7.71041 223.998C2.72423 210.302 5.42547 194.985 14.7945 183.82L181.202 -14.4971C190.571 -25.6626 205.186 -30.9826 219.542 -28.4521L474.493 16.5029Z" stroke="white" stroke-opacity="0.2"/>
<path d="M441.79 29.9834C454.836 31.3556 466.16 39.5831 471.496 51.568L566.264 264.42C571.601 276.404 570.137 290.325 562.426 300.938L425.475 489.435C417.764 500.048 404.977 505.742 391.929 504.371L160.21 480.016C147.164 478.644 135.84 470.417 130.504 458.432L35.7361 245.579C30.3996 233.596 31.8632 219.675 39.5738 209.062L176.525 20.5643C184.236 9.95165 197.024 4.25776 210.071 5.62849L441.79 29.9834Z" stroke="white" stroke-opacity="0.2"/>
<path d="M411.89 46.7426C423.543 47.1505 434.094 53.7438 439.569 64.0403L536.8 246.905C542.275 257.2 541.84 269.636 535.661 279.524L425.911 455.161C419.732 465.05 408.746 470.892 397.092 470.485L190.11 463.257C178.457 462.849 167.905 456.256 162.431 445.96L65.2 263.094C59.725 252.799 60.1596 240.364 66.3387 230.476L176.089 54.8385C182.268 44.9499 193.254 39.1081 204.908 39.5145L411.89 46.7426Z" stroke="white" stroke-opacity="0.2"/>
<path d="M385.081 66.4503C395.277 66.0951 404.89 71.2062 410.297 79.8595L506.328 233.542C511.736 242.194 512.115 253.075 507.325 262.083L422.248 422.09C417.458 431.099 408.225 436.869 398.028 437.225L216.919 443.55C206.723 443.905 197.11 438.794 191.703 430.14L95.6717 276.458C90.2643 267.806 89.8846 256.925 94.6746 247.916L179.752 87.9095C184.542 78.9009 193.775 73.1312 203.972 72.7747L385.081 66.4503Z" stroke="white" stroke-opacity="0.2"/>
<path d="M361.62 88.7524C370.318 87.8389 378.842 91.6344 383.983 98.7103L475.284 224.375C480.425 231.45 481.4 240.731 477.843 248.72L414.664 390.622C411.107 398.611 403.558 404.097 394.86 405.011L240.38 421.247C231.683 422.161 223.158 418.365 218.017 411.29L126.716 285.624C121.575 278.55 120.6 269.269 124.157 261.28L187.336 119.378C190.893 111.389 198.442 105.903 207.14 104.989L361.62 88.7524Z" stroke="white" stroke-opacity="0.2"/>
<path d="M341.73 113.274C348.907 112.009 356.214 114.669 360.899 120.252L444.103 219.41C448.787 224.993 450.138 232.651 447.645 239.5L403.373 361.136C400.881 367.984 394.924 372.983 387.746 374.249L260.27 396.726C253.093 397.991 245.786 395.331 241.101 389.748L157.897 290.589C153.212 285.007 151.862 277.348 154.355 270.5L198.627 148.864C201.119 142.016 207.076 137.017 214.254 135.751L341.73 113.274Z" stroke="white" stroke-opacity="0.2"/>
<path d="M325.595 139.622C331.252 138.212 337.232 139.927 341.283 144.121L413.217 218.612C417.268 222.805 418.772 228.842 417.165 234.446L388.622 333.989C387.015 339.593 382.54 343.915 376.883 345.326L276.405 370.377C270.748 371.787 264.768 370.073 260.717 365.878L188.783 291.388C184.733 287.194 183.228 281.158 184.835 275.553L213.378 176.011C214.985 170.407 219.46 166.085 225.117 164.674L325.595 139.622Z" stroke="white" stroke-opacity="0.2"/>
<path d="M313.365 167.391C317.524 166.04 322.088 167.01 325.337 169.936L383.054 221.904C386.304 224.83 387.746 229.268 386.836 233.545L370.689 309.513C369.78 313.79 366.658 317.258 362.499 318.609L288.635 342.609C284.476 343.96 279.912 342.99 276.663 340.064L218.946 288.095C215.696 285.17 214.254 280.732 215.164 276.455L231.311 200.487C232.22 196.21 235.342 192.742 239.501 191.391L313.365 167.391Z" stroke="white" stroke-opacity="0.2"/>
<path d="M305.149 196.161C307.852 195.069 310.932 195.502 313.23 197.297L354.03 229.174C356.328 230.969 357.493 233.853 357.087 236.74L349.881 288.013C349.476 290.899 347.561 293.351 344.858 294.443L296.851 313.839C294.148 314.931 291.068 314.498 288.77 312.703L247.97 280.826C245.672 279.031 244.507 276.147 244.913 273.26L252.119 221.987C252.525 219.101 254.44 216.649 257.143 215.557L305.149 196.161Z" stroke="white" stroke-opacity="0.2"/>
<path d="M301.017 225.507C302.327 224.869 303.879 224.977 305.087 225.792L326.55 240.269C327.758 241.084 328.44 242.482 328.338 243.936L326.532 269.761C326.431 271.215 325.561 272.505 324.251 273.144L300.983 284.492C299.673 285.131 298.121 285.023 296.913 284.208L275.45 269.731C274.242 268.916 273.56 267.518 273.662 266.064L275.467 240.239C275.569 238.785 276.439 237.495 277.749 236.856L301.017 225.507Z" stroke="white" stroke-opacity="0.2"/>
</g>
<g clip-path="url(#clip2_2061_11818)">
<path fill-rule="evenodd" clip-rule="evenodd" d="M123.439 217.574C117.778 215.843 112.175 213.877 106.437 212.46C102.182 211.41 97.7566 211.092 93.3601 212.062C86.8385 213.5 82.0593 218.627 81.3664 225.202C80.7305 231.24 83.4096 234.747 88.625 236.314C91.3085 237.119 94.0888 236.993 96.8217 236.216C100.44 235.189 103.378 233.074 106.214 230.707C111.691 226.138 116.765 221.018 123.439 217.574ZM99.8124 193.796C99.8541 188.303 99.9836 183.051 99.9003 177.801C99.852 174.737 99.7461 171.625 99.1667 168.628C98.0391 162.794 95.2525 157.808 90.2891 154.274C85.6225 150.95 79.9668 150.84 75.4286 153.86C70.528 157.121 68.1277 162.924 69.347 168.371C69.7653 170.239 70.484 171.953 71.7665 173.349C73.4665 175.199 75.1383 177.132 77.1025 178.675C84.2563 184.296 92.1159 188.878 99.8124 193.796ZM131.365 213.698C134.567 211.737 137.412 209.994 140.258 208.252C145.918 204.789 150.131 200.023 152.759 193.967C156.108 186.251 155.027 178.999 149.793 172.434C146.853 168.745 142.539 167.718 138.11 169.341C135.917 170.145 134.099 171.485 132.552 173.211C129.379 176.749 127.888 180.997 127.464 185.634C127.265 187.811 127.228 190.026 127.369 192.209C127.841 199.452 129.91 206.401 131.365 213.698ZM183.161 299.546C183.18 299.361 183.2 299.175 183.22 298.989C178.914 297.144 174.634 295.231 170.295 293.468C163.734 290.801 156.933 288.989 149.851 288.489C143.891 288.068 138.022 288.621 132.541 291.298C129.106 292.977 126.259 295.378 124.574 298.902C120.356 307.722 126.344 318.163 136.222 319.446C142.004 320.196 147.372 318.806 152.434 316.26C156.995 313.966 161.352 311.26 165.787 308.714C169.519 306.571 173.191 304.321 176.97 302.267C178.944 301.194 181.091 300.443 183.161 299.546ZM166.042 258.885C160.302 257.047 155.884 253.3 150.978 250.387C146.745 247.873 142.497 245.34 138.062 243.22C133.172 240.883 127.935 239.842 122.471 240.891C114.266 242.468 107.932 251.028 110.646 260.18C112.917 267.839 120.624 274.5 128.62 275.229C137.133 276.006 145.031 274.195 152.033 269.123C156.61 265.808 161.16 262.455 166.042 258.885ZM175.952 253.815C181.522 251.905 186.895 250.099 192.24 248.215C195.484 247.072 198.449 245.371 201.146 243.259C209.273 236.892 214.552 228.741 215.886 218.441C216.902 210.608 213.245 203.543 204.674 202.017C202.129 201.564 199.643 201.873 197.206 202.6C190.696 204.542 186.047 208.716 182.829 214.575C179.486 220.661 178.06 227.27 177.604 234.125C177.287 238.887 177.102 243.66 176.765 248.421C176.641 250.17 176.249 251.899 175.952 253.815ZM195.435 340.939C194.468 340.76 193.621 340.61 192.777 340.444C188.811 339.661 184.834 338.93 180.884 338.072C176.221 337.059 171.607 335.808 166.926 334.892C161.664 333.863 156.345 333.536 151.015 334.598C147.299 335.339 143.841 336.684 140.924 339.167C137.146 342.382 135.268 346.5 135.783 351.478C136.727 360.599 144.051 366.944 151.17 368.734C155.96 369.939 160.628 369.21 165.1 367.021C169.156 365.035 172.723 362.343 176.037 359.344C182.421 353.567 188.674 347.641 194.973 341.768C195.134 341.618 195.202 341.366 195.435 340.939ZM203.497 339.843C204.08 340.087 204.363 340.246 204.666 340.326C212.681 342.454 220.677 344.66 228.723 346.663C233.897 347.95 239.212 348.17 244.41 346.994C250.917 345.522 256.693 342.467 261.846 338.188C264.704 335.815 266.292 332.836 266.795 329.281C267.458 324.595 266.484 320.286 262.5 317.326C257.732 313.785 252.362 312.079 246.293 312.681C238.317 313.472 231.194 316.381 224.667 320.853C218.429 325.126 212.696 330.021 207.343 335.348C205.987 336.699 204.841 338.26 203.497 339.843ZM194.044 297.484C200.505 297.547 206.637 297.668 212.769 297.651C218.208 297.636 223.592 297.082 228.798 295.343C238.362 292.147 246.132 286.65 251.249 277.717C253.225 274.268 254.563 270.663 254.4 266.61C254.2 261.64 251.494 257.957 246.802 256.427C241.303 254.634 235.909 255.362 230.673 257.479C223.14 260.526 217.126 265.683 211.717 271.642C204.682 279.392 200.297 288.95 194.044 297.484ZM200.946 338.43C201.451 337.926 201.75 337.669 201.999 337.371C208.454 329.634 216.163 323.306 224.495 317.746C231.648 312.973 239.53 310.067 248.238 309.912C253.249 309.822 258.123 310.485 262.427 313.404C268.132 317.275 270.55 322.609 269.963 329.472C269.304 337.176 264.748 342.047 258.397 345.512C255.425 347.133 252.214 348.396 248.994 349.471C242.004 351.803 234.863 351.339 227.843 349.691C220.013 347.852 212.274 345.624 204.493 343.571C203.724 343.368 202.944 343.208 201.963 342.98C201.997 343.688 201.97 344.229 202.053 344.753C203.199 351.967 204.365 359.176 205.513 366.389C205.785 368.101 205.492 368.85 204.561 369.015C203.535 369.198 202.875 368.531 202.591 366.755C201.72 361.306 200.927 355.844 200.055 350.395C199.675 348.021 199.174 345.667 198.656 342.928C197.685 343.716 196.977 344.225 196.344 344.814C191.232 349.57 186.214 354.43 181.004 359.076C177.737 361.988 174.315 364.763 170.738 367.28C165.928 370.664 160.59 372.664 154.539 372.357C144.342 371.838 135.005 363.952 132.891 353.972C131.133 345.673 135.437 337.753 143.703 334.06C149.34 331.541 155.26 330.975 161.34 331.488C166.945 331.962 172.38 333.336 177.848 334.566C183.706 335.884 189.597 337.06 195.48 338.269C196.096 338.396 196.751 338.325 197.689 338.355C194.871 325.92 191.744 313.771 188.142 301.526C184.24 302.644 180.598 303.971 177.202 305.843C173.221 308.039 169.4 310.521 165.431 312.741C160.899 315.277 156.371 317.847 151.678 320.057C146.751 322.375 141.485 323.211 136.002 322.504C125.601 321.164 118.473 311.287 120.77 301.2C121.9 296.242 125.037 292.703 129.235 290.054C134.051 287.016 139.458 286.03 145.039 285.744C150.444 285.467 155.735 286.298 160.942 287.619C167.734 289.341 174.26 291.814 180.559 294.898C182.443 295.821 184.416 296.562 186.909 297.625C182.879 284.161 177.977 271.648 171.351 259.408C168.251 261.389 165.276 263.17 162.433 265.141C159.165 267.408 156.079 269.94 152.798 272.189C145.072 277.486 136.401 279.156 127.249 278.027C117.863 276.869 109.124 268.281 107.335 258.96C105.391 248.824 112.592 239.118 123.164 237.651C128.996 236.841 134.448 238.271 139.752 240.533C146.214 243.288 151.933 247.304 157.778 251.11C160.425 252.834 162.993 254.73 166.108 255.583C167.006 255.829 167.93 255.979 168.842 256.174C168.949 256.025 169.056 255.876 169.164 255.726C168.689 254.925 168.236 254.11 167.738 253.323C161.119 242.872 152.404 234.456 142.344 227.377C138.83 224.904 135.156 222.657 131.612 220.225C130.636 219.554 129.745 219.493 128.645 219.701C124.206 220.543 120.42 222.654 116.999 225.509C113.508 228.422 110.034 231.358 106.536 234.263C103.488 236.794 100.085 238.626 96.1502 239.362C92.8057 239.988 89.4932 239.876 86.3388 238.541C80.6242 236.124 77.8006 231.038 78.5903 224.81C79.6154 216.728 85.3488 210.634 93.3939 209.089C98.5257 208.105 103.607 208.686 108.598 209.901C112.3 210.803 115.908 212.091 119.75 212.915C119.229 212.511 118.734 212.066 118.181 211.71C110.609 206.815 103.406 201.423 96.2828 195.897C92.5221 192.979 88.2787 190.677 84.2205 188.15C80.0828 185.572 75.9809 182.959 72.5091 179.483C69.8843 176.855 67.786 173.905 66.7615 170.287C64.8512 163.541 67.0671 157.905 71.8104 153.225C76.3695 148.728 81.9415 147.636 88.0283 149.643C90.933 150.601 93.3617 152.386 95.4333 154.622C99.6625 159.187 102.189 164.59 102.682 170.769C103.016 174.96 102.81 179.192 102.89 183.404C102.949 186.484 102.951 189.572 103.21 192.637C103.36 194.41 103.724 196.945 103.724 196.945C103.724 196.945 106.837 200.521 108.622 201.685C114.671 205.624 120.652 209.667 126.673 213.651C127.054 213.904 127.76 214.726 128.472 215.025C127.828 211.986 127.032 208.511 126.417 205.751C124.948 199.159 123.704 192.546 124.387 185.739C124.973 179.905 126.907 174.645 131.259 170.548C135.522 166.535 140.46 164.868 146.251 166.828C148.891 167.722 150.915 169.472 152.508 171.676C158.039 179.325 158.835 187.506 154.899 196.061C151.972 202.422 147.465 207.435 141.445 211.066C139.22 212.409 137.005 213.771 134.832 215.195C134.059 215.701 133.423 216.416 132.475 217.257C133.56 217.969 134.345 218.497 135.143 219.006C144.197 224.783 152.881 231.022 160.248 238.926C164.026 242.979 167.424 247.32 170.384 252.004C170.853 252.745 171.337 253.475 171.939 254.403C173.271 252.426 173.42 250.37 173.595 248.416C173.964 244.297 174.066 240.156 174.325 236.026C174.758 229.104 175.742 222.309 178.673 215.911C182.537 207.477 188.462 201.447 197.751 199.27C205.366 197.486 212.696 200.384 216.325 206.634C218.527 210.428 219.174 214.585 218.555 218.872C217.063 229.212 212.01 237.602 204.161 244.367C199.334 248.527 193.61 250.976 187.605 252.924C183.593 254.226 179.666 255.791 175.698 257.231C175.167 257.424 174.621 257.578 173.848 257.825C180.744 270.432 185.619 283.398 189.915 297.083C190.909 296.048 191.84 295.315 192.472 294.381C194.741 291.023 196.969 287.634 199.101 284.187C202.479 278.725 206.054 273.416 210.455 268.708C215.49 263.319 221.12 258.691 227.886 255.637C234.204 252.784 240.75 251.679 247.552 253.849C253.708 255.812 257.299 260.692 257.4 267.15C257.482 272.315 255.565 276.831 252.82 281.046C245.772 291.865 235.449 297.568 223.008 299.833C217.147 300.901 211.21 300.679 205.283 300.525C202.283 300.447 199.276 300.465 196.276 300.568C194.677 300.622 193.088 300.949 191.351 301.171C194.56 313.632 197.708 325.852 200.946 338.43Z" fill="white"/>
<path fill-rule="evenodd" clip-rule="evenodd" d="M399.296 345.393C395.679 333.096 391.508 321.112 386.292 309.515C381.099 297.973 374.487 287.215 367.946 276.423C356.201 257.043 344.519 237.628 334.064 217.506C330.094 209.864 326.329 202.133 324.229 193.714C324.081 193.122 323.827 192.556 323.487 191.592C322.858 192.48 322.409 192.955 322.14 193.517C320.222 197.521 319.699 201.818 320.284 206.121C320.964 211.124 321.826 216.144 323.145 221.011C326.619 233.834 332.644 245.574 339.06 257.126C348.985 274.996 361.109 291.358 373.54 307.503C382.703 319.404 391.864 331.294 398.761 344.729C398.889 344.976 399.115 345.173 399.296 345.393ZM402.099 341.238C402.208 341.214 402.318 341.189 402.427 341.165C402.427 340.721 402.501 340.262 402.416 339.835C400.832 331.874 399.55 323.835 397.562 315.975C393.949 301.699 388.778 287.908 383.63 274.128C376.371 254.7 368.679 235.456 359.005 217.067C354.577 208.65 349.403 200.766 342.921 193.779C340.212 190.859 337.195 188.411 333.155 187.632C330.776 187.173 328.479 187.28 326.595 188.862C328.358 197.058 331.396 204.566 335.072 211.833C342.755 227.021 351.229 241.767 359.944 256.376C364.4 263.845 368.738 271.39 373.415 278.718C385.367 297.447 394.331 317.538 401.184 338.622C401.47 339.5 401.793 340.367 402.099 341.238ZM449.702 108.525C449.359 109.14 449.153 109.452 449.002 109.788C440.175 129.358 434.665 149.908 431.249 171.032C429.234 183.489 427.514 196 425.937 208.52C424.456 220.286 423.192 232.083 422.1 243.89C421.095 254.748 420.518 265.643 419.622 276.512C418.42 291.098 417.091 305.674 415.824 320.254C415.595 322.896 414.845 328.294 414.636 330.937C415.215 330.041 416.089 326.385 416.231 325.455C418.378 311.374 420.68 297.313 422.58 283.197C424.161 271.448 425.179 259.623 426.599 247.85C428.614 231.135 432.905 214.998 439.699 199.592C443.825 190.237 448.309 181.038 452.699 171.801C457.68 161.321 460.728 150.332 461.518 138.748C461.971 132.128 461.888 125.543 459.445 119.219C457.615 114.481 454.606 110.826 449.702 108.525ZM410.904 329.423C411.076 329.427 411.25 329.429 411.422 329.432C411.529 328.643 411.668 327.857 411.736 327.065C412.562 317.536 413.383 308.007 414.196 298.477C415.09 287.993 415.96 277.507 416.866 267.024C418.233 251.207 419.39 235.366 421.062 219.582C422.916 202.087 425.19 184.637 428.33 167.313C431.767 148.353 436.482 129.769 444.285 112.074C444.893 110.696 445.383 109.265 445.921 107.876C445.537 107.693 445.376 107.561 445.203 107.544C444.729 107.497 444.249 107.469 443.773 107.483C437.997 107.648 433.067 110.018 428.538 113.393C421.416 118.703 416.753 125.839 413.472 133.959C407.569 148.565 404.994 163.906 403.715 179.497C402.492 194.396 402.561 209.327 403.146 224.253C403.903 243.569 405.583 262.818 407.27 282.07C408.523 296.361 409.491 310.677 410.584 324.982C410.697 326.462 410.798 327.943 410.904 329.423ZM407.645 351.577C407.645 345.751 407.962 339.905 407.586 334.104C406.466 316.829 405.103 299.57 403.78 282.309C402.67 267.813 401.278 253.336 400.381 238.828C399.306 221.443 398.762 204.026 399.734 186.613C400.725 168.887 403.089 151.394 409.443 134.663C412.786 125.861 417.455 117.952 424.851 111.887C428.891 108.574 433.308 105.989 438.416 104.727C448.731 102.179 456.37 106.545 461.037 114.479C463.663 118.944 464.758 123.894 465.03 128.999C465.877 144.828 462.327 159.736 455.539 173.977C450.894 183.725 446.159 193.442 441.907 203.363C435.695 217.853 431.858 233.039 430.007 248.699C428.772 259.144 427.8 269.621 426.545 280.064C423.519 305.234 419.97 330.315 412.608 354.673C411.091 359.69 409.315 364.628 407.697 369.616C407.352 370.68 406.743 371.407 405.641 371.054C404.54 370.7 402.934 370.658 402.881 369.003C402.507 357.082 396.304 347.4 390.678 337.563C385.111 327.83 378.073 319.093 371.248 310.224C357.942 292.937 344.99 275.408 334.547 256.169C328.193 244.465 322.426 232.518 319.066 219.555C317.282 212.675 315.971 205.738 317.022 198.569C317.443 195.697 318.258 192.981 319.839 190.52C323.613 184.651 329.711 182.566 336.279 184.904C340.18 186.292 343.189 188.907 345.92 191.907C351.941 198.52 356.933 205.848 361.162 213.72C369 228.312 375.512 243.503 381.536 258.911C388.496 276.716 395.228 294.607 400.43 313.022C403.922 325.381 406.071 338 407.159 350.798C407.182 351.074 407.269 351.345 407.326 351.618C407.432 351.604 407.539 351.59 407.645 351.577Z" fill="white"/>
<path fill-rule="evenodd" clip-rule="evenodd" d="M116.626 188.363C118.502 187.993 119.909 187.745 121.301 187.435C127.289 186.102 133.139 184.367 138.534 181.354C140.945 180.007 143.208 178.455 144.747 176.096C145.975 174.214 146.995 172.165 145.657 169.97C144.384 167.883 142.179 167.839 140.036 167.999C136.016 168.299 132.449 169.897 129.087 171.998C123.026 175.785 119.423 181.431 116.626 188.363ZM115.399 130.754C120.832 126.679 133.213 113.405 136.501 108.186C137.518 106.572 138.355 104.833 139.139 103.091C139.543 102.192 139.782 101.174 139.871 100.189C140.125 97.3603 138.901 96.0849 136.082 96.1473C133.334 96.2078 130.957 97.3769 128.694 98.7862C119.925 104.245 113.205 115.062 115.001 127.636C115.073 128.134 115.221 130.219 115.399 130.754ZM112.721 135.728C112.721 133.054 112.926 130.595 112.682 128.18C111.987 121.292 109.218 115.363 103.937 110.751C101.979 109.041 99.7387 107.847 97.1015 107.523C92.9427 107.012 89.5175 109.9 89.2963 114.057C89.1421 116.968 90.2708 119.423 91.9652 121.641C96.1548 127.126 101.58 131.087 107.762 134.032C109.299 134.765 111.002 135.152 112.721 135.728ZM114.233 225.101C114.233 224.441 114.02 224.063 113.934 223.726C112.518 218.177 110.338 212.975 106.85 208.382C104.949 205.879 102.703 203.748 99.976 202.149C97.8613 200.91 95.601 200.302 93.1412 200.577C88.1248 201.139 85.0201 205.864 86.7931 210.56C87.4547 212.313 88.5123 214.068 89.8279 215.383C91.55 217.105 93.5876 218.599 95.7008 219.828C101.248 223.057 107.704 224.308 114.233 225.101ZM114.887 273.984C113.64 265.108 111.607 256.975 105.875 250.227C104.196 248.25 102.155 246.672 99.6959 245.819C98.3435 245.351 96.8496 245.04 95.4277 245.069C91.2346 245.154 88.3843 248.329 88.925 252.48C89.1648 254.323 89.8243 256.265 90.829 257.815C92.1501 259.852 93.8582 261.7 95.6489 263.362C101.027 268.354 107.536 271.399 114.887 273.984ZM115.399 152.722C120.036 150.361 124.763 148.162 129.318 145.651C133.315 143.447 137.314 141.176 140.998 138.503C144.003 136.324 146.687 133.641 149.232 130.919C150.495 129.569 151.36 127.712 151.984 125.936C152.918 123.28 151.761 121.728 148.957 121.406C148.237 121.323 147.499 121.345 146.772 121.379C143.674 121.519 140.876 122.648 138.264 124.194C129.209 129.557 122.334 136.971 117.731 146.435C116.758 148.436 116.219 150.647 115.399 152.722ZM113.709 172.578C112.798 170.824 112.213 169.494 111.455 168.27C105.474 158.607 91.8352 151.786 80.4849 152.826C78.9597 152.966 77.4053 153.352 75.9824 153.919C73.2394 155.014 72.5099 157.147 74.0275 159.655C74.7203 160.8 75.6887 161.869 76.7574 162.675C78.2059 163.766 79.8223 164.669 81.4513 165.482C85.9809 167.742 90.8376 169.045 95.7497 170.167C101.466 171.474 107.266 172.11 113.709 172.578ZM116.883 339.379C116.873 338.739 116.772 338.087 116.735 337.758C115.758 328.903 113.866 320.298 109.7 312.326C108.125 309.313 106.305 306.425 103.641 304.285C102.04 303 100.188 301.78 98.2488 301.214C93.9529 299.961 90.8527 302.442 90.6567 306.918C90.5464 309.44 91.0512 311.879 92.3426 314.02C93.9872 316.747 95.6892 319.478 97.6941 321.942C102.794 328.209 108.908 333.431 115.325 338.305C115.662 338.56 116.332 339.082 116.883 339.379ZM117.341 247.397C119.559 246.705 121.266 246.158 122.983 245.64C131.441 243.081 139.478 239.573 146.813 234.631C149.064 233.114 151.164 231.257 152.959 229.227C154.111 227.925 154.862 226.091 155.291 224.371C155.994 221.553 154.757 219.411 151.913 218.733C149.93 218.261 147.732 218.228 145.702 218.51C141.896 219.039 138.658 221.014 135.686 223.367C128.845 228.785 123.479 235.455 119.234 243.042C118.545 244.275 118.096 245.641 117.341 247.397ZM119.587 359.514C120.931 358.788 121.85 358.381 122.674 357.831C126.1 355.546 129.58 353.329 132.886 350.881C138.725 346.559 144.066 341.649 148.307 335.733C150.364 332.864 151.955 329.622 153.458 326.408C154.247 324.72 154.887 322.56 153.305 320.966C151.724 319.373 149.609 320.017 147.892 320.808C145.169 322.063 142.368 323.351 140.009 325.159C131.768 331.476 125.737 339.55 121.993 349.256C120.782 352.398 119.876 355.65 119.587 359.514ZM118.988 299.505C120.537 299.121 121.347 299 122.097 298.722C131.34 295.288 139.958 290.733 147.528 284.348C151.044 281.383 154.272 278.118 156.483 274.046C157.426 272.311 158.194 270.381 158.546 268.449C159.028 265.802 157.693 264.295 155.012 263.944C154.212 263.839 153.364 263.914 152.562 264.05C148.993 264.654 145.71 266.05 142.689 267.991C132.871 274.3 125.698 282.908 120.884 293.487C120.11 295.191 119.739 297.078 118.988 299.505ZM116.783 250.233C117.223 264.394 117.657 278.358 118.091 292.321C118.064 294.035 118.115 294.106 118.208 293.815C118.34 293.396 118.526 292.997 118.726 292.604C118.99 292.085 119.287 291.436 119.453 291.095C123.604 282.558 129.433 275.346 136.785 269.377C141.239 265.762 146.146 262.922 151.892 261.949C153.257 261.719 154.737 261.746 156.125 261.986C158.736 262.436 160.693 264.56 160.871 267.202C161.02 269.397 160.397 271.415 159.454 273.35C157.793 276.758 155.57 279.783 152.867 282.418C143.239 291.802 131.931 298.286 118.953 301.849C118.876 301.87 118.684 301.881 118.446 302.036C118.752 317.025 119.096 332.419 119.407 347.622C119.491 349.298 119.638 348.315 119.995 347.707C120.304 347.09 120.632 346.483 120.917 345.856C124.685 337.551 130.065 330.448 137.036 324.587C140.701 321.505 144.687 318.947 149.533 318.021C154.173 317.134 157.042 319.959 156.216 324.632C155.886 326.497 155.186 328.334 154.409 330.074C152.602 334.12 149.975 337.642 147.047 340.946C140.113 348.77 131.831 354.92 122.94 360.306C121.777 361.011 120.498 361.524 119.067 362.228C119.067 363.089 119.076 363.986 119.065 364.882C119.041 366.804 119.017 368.726 118.974 370.647C118.952 371.638 118.735 372.628 117.462 372.404C116.45 372.224 116.391 371.413 116.591 370.467C116.795 369.497 116.815 368.476 116.817 367.477C116.834 360.063 116.759 352.647 116.871 345.235C116.886 344.253 116.883 342.902 116.747 342.147C116.747 342.147 115.507 341.169 114.562 340.48C107.96 335.673 101.742 330.38 96.5493 324.044C94.1862 321.16 92.0851 318.01 90.238 314.77C88.4942 311.71 87.8744 308.283 88.6937 304.733C89.5775 300.906 93.0621 298.312 96.9766 298.663C100.585 298.987 103.398 300.782 105.861 303.217C109.986 307.298 112.542 312.339 114.557 317.691C115.132 319.218 115.62 320.778 116.558 322.281C116.558 319.005 116.64 315.727 116.543 312.455C116.227 301.662 115.786 290.874 115.542 280.08C115.519 279.084 115.366 277.661 115.141 277.029C115.141 277.029 113.93 276.363 113.068 275.939C111.83 275.331 110.561 274.779 109.282 274.258C104.254 272.207 99.5336 269.466 95.3259 266.036C91.5717 262.975 88.2286 259.567 87.038 254.855C85.0171 246.854 91.1157 240.966 99.0872 243.227C103.132 244.375 106.393 246.762 108.681 250.18C110.649 253.122 112.12 256.397 113.797 259.532C114.031 259.971 114.974 262.542 115.19 262.851C115.052 251.85 114.529 238.823 114.389 227.641C112.138 227.217 110.09 226.812 108.035 226.45C102.756 225.518 97.757 223.81 93.1709 221.013C89.5014 218.774 86.444 215.941 84.8427 211.856C82.3421 205.475 86.7402 198.631 93.5912 198.337C96.8345 198.197 99.6707 199.158 102.284 200.939C105.829 203.353 108.602 206.491 110.763 210.166C111.863 212.037 113.782 216.759 114.582 218.33C114.405 204.721 113.958 188.627 113.782 175.053C108.748 174.394 104.013 173.917 99.3316 173.129C92.9135 172.049 86.5911 170.505 80.7136 167.606C78.5959 166.562 76.5578 165.284 74.6769 163.859C73.5483 163.002 72.596 161.761 71.9103 160.505C69.9735 156.953 71.1993 153.523 74.9032 151.892C79.0015 150.087 83.372 150.065 87.6008 150.862C97.6296 152.75 106.273 157.187 112.453 165.648C112.606 165.857 113.492 167.432 113.492 167.432C113.643 157.816 112.836 147.663 112.982 138.271C112.206 137.994 111.55 137.715 110.87 137.524C103.873 135.557 98.2256 131.389 93.1432 126.421C91.3999 124.718 89.9992 122.62 88.6614 120.56C87.3353 118.52 86.9297 116.164 87.0814 113.718C87.4154 108.354 92.1522 104.52 97.5011 105.294C101.615 105.888 104.857 108.061 107.497 111.095C109.276 113.139 111.378 117.138 113.133 119.535C113.252 116.375 113.914 114.467 114.111 113.809C115.335 109.723 116.833 108.221 119.217 104.766C122.294 100.306 126.293 96.815 131.447 94.9535C133.29 94.2879 135.365 93.9838 137.33 94.0007C140.089 94.0266 141.987 95.9595 142.027 98.7298C142.052 100.51 141.808 102.439 141.107 104.052C139.988 106.631 138.666 109.22 136.934 111.415C133.936 115.214 130.65 118.799 127.317 122.314C124.106 125.701 120.667 128.87 117.359 132.166C116.462 133.06 115.399 133.651 115.399 133.651C115.399 133.651 115.012 138.308 115.027 139.574C115.027 139.574 115.162 143.285 115.151 145.986C115.76 144.915 116.41 143.867 117.022 142.797C121.702 134.617 127.97 127.941 135.968 122.929C139.259 120.867 142.777 119.37 146.722 119.111C149.355 118.938 151.962 119.063 153.631 121.471C155.308 123.893 154.519 126.385 153.347 128.758C151.525 132.447 148.701 135.314 145.581 137.901C140.265 142.311 134.3 145.698 128.166 148.814C124.012 150.924 119.866 153.05 115.53 155.264C115.725 164.343 115.92 173.378 116.114 182.414C116.111 183.756 116.286 183.647 116.453 183.256C116.738 182.586 117.067 181.933 117.446 181.311C117.658 180.961 117.87 180.611 118.082 180.262C122.352 173.203 128.445 168.527 136.413 166.347C138.718 165.717 141.051 165.359 143.457 165.955C147.191 166.879 149.124 169.848 148.282 173.584C147.514 176.993 145.344 179.431 142.608 181.406C138.248 184.553 133.319 186.518 128.188 187.962C124.322 189.05 120.395 189.925 116.266 190.952C116.447 207.779 116.628 224.664 116.81 241.547C116.791 242.289 116.714 242.84 116.831 242.585C117.091 242.018 117.365 241.457 117.719 240.943C117.932 240.632 118.144 240.319 118.342 239.998C122.355 233.486 127.106 227.591 132.981 222.654C136.595 219.618 140.533 217.165 145.264 216.258C147.852 215.762 150.438 215.686 152.962 216.614C156.16 217.79 158.048 221.109 157.615 224.486C157.324 226.748 156.47 228.838 154.907 230.445C152.815 232.594 150.634 234.747 148.167 236.421C140.541 241.595 132.163 245.229 123.343 247.88C121.176 248.531 119.075 249.403 116.783 250.233Z" fill="black"/>
<path fill-rule="evenodd" clip-rule="evenodd" d="M147.892 320.808C149.609 320.017 151.724 319.373 153.305 320.966C154.887 322.559 154.247 324.719 153.458 326.408C151.955 329.622 150.364 332.864 148.307 335.733C144.066 341.649 138.725 346.559 132.886 350.881C129.579 353.329 126.1 355.546 122.674 357.831C121.85 358.38 120.931 358.788 119.587 359.514C119.876 355.649 120.782 352.398 121.993 349.256C125.737 339.55 131.768 331.475 140.009 325.158C142.368 323.35 145.169 322.062 147.892 320.808ZM90.6567 306.917C90.8527 302.442 93.9529 299.96 98.2488 301.214C100.188 301.78 102.04 303 103.641 304.285C106.305 306.424 108.125 309.313 109.7 312.326C113.866 320.298 115.758 328.903 116.735 337.758C116.771 338.087 116.873 338.739 116.883 339.379C116.332 339.081 115.662 338.56 115.325 338.305C108.908 333.431 102.794 328.209 97.694 321.942C95.6892 319.478 93.9871 316.746 92.3426 314.019C91.0512 311.879 90.5463 309.439 90.6567 306.917ZM152.562 264.05C153.364 263.914 154.212 263.839 155.012 263.944C157.693 264.294 159.028 265.802 158.546 268.449C158.194 270.381 157.426 272.311 156.483 274.046C154.272 278.118 151.044 281.383 147.528 284.348C139.958 290.733 131.34 295.288 122.097 298.722C121.346 299 120.537 299.121 118.988 299.505C119.739 297.078 120.11 295.191 120.884 293.487C125.698 282.908 132.871 274.3 142.689 267.991C145.71 266.05 148.993 264.654 152.562 264.05ZM95.4277 245.069C96.8495 245.039 98.3435 245.351 99.6958 245.819C102.155 246.672 104.196 248.25 105.875 250.226C111.607 256.974 113.64 265.108 114.887 273.983C107.536 271.398 101.027 268.354 95.6489 263.361C93.8582 261.699 92.1501 259.852 90.829 257.815C89.8243 256.265 89.1647 254.323 88.9249 252.48C88.3843 248.329 91.2346 245.154 95.4277 245.069ZM145.702 218.51C147.732 218.228 149.93 218.261 151.913 218.733C154.757 219.411 155.994 221.553 155.291 224.371C154.862 226.091 154.111 227.925 152.959 229.227C151.164 231.257 149.064 233.114 146.813 234.63C139.478 239.573 131.441 243.081 122.982 245.64C121.266 246.158 119.559 246.705 117.341 247.397C118.096 245.641 118.545 244.275 119.234 243.042C123.479 235.455 128.845 228.785 135.686 223.367C138.658 221.013 141.896 219.039 145.702 218.51ZM93.1412 200.577C95.601 200.302 97.8613 200.909 99.976 202.149C102.703 203.748 104.949 205.879 106.85 208.382C110.338 212.975 112.518 218.177 113.934 223.726C114.02 224.063 114.233 224.441 114.233 225.1C107.704 224.308 101.248 223.057 95.7008 219.828C93.5876 218.599 91.55 217.105 89.8278 215.383C88.5123 214.068 87.4547 212.312 86.7931 210.56C85.02 205.864 88.1248 201.139 93.1412 200.577ZM140.035 167.999C142.179 167.839 144.384 167.882 145.657 169.97C146.995 172.165 145.975 174.214 144.747 176.096C143.208 178.455 140.945 180.007 138.533 181.354C133.139 184.367 127.289 186.102 121.301 187.435C119.908 187.745 118.502 187.993 116.626 188.363C119.423 181.431 123.026 175.784 129.087 171.998C132.449 169.897 136.016 168.299 140.035 167.999ZM80.4848 152.826C91.8352 151.786 105.474 158.607 111.455 168.27C112.213 169.494 112.798 170.824 113.709 172.578C107.266 172.11 101.466 171.473 95.7496 170.167C90.8375 169.045 85.9809 167.742 81.4512 165.482C79.8223 164.669 78.2059 163.766 76.7573 162.675C75.6886 161.869 74.7202 160.8 74.0274 159.655C72.5098 157.147 73.2394 155.014 75.9824 153.919C77.4053 153.352 78.9597 152.965 80.4848 152.826ZM146.772 121.378C147.499 121.345 148.237 121.323 148.957 121.406C151.761 121.727 152.918 123.28 151.984 125.936C151.36 127.712 150.494 129.569 149.232 130.918C146.687 133.64 144.003 136.324 140.998 138.503C137.314 141.176 133.315 143.447 129.318 145.651C124.763 148.162 120.036 150.361 115.398 152.722C116.219 150.647 116.758 148.435 117.731 146.435C122.334 136.971 129.209 129.556 138.264 124.194C140.876 122.648 143.674 121.519 146.772 121.378ZM89.2963 114.057C89.5174 109.9 92.9427 107.012 97.1015 107.523C99.7386 107.847 101.979 109.041 103.937 110.75C109.218 115.363 111.987 121.292 112.682 128.18C112.926 130.595 112.721 133.054 112.721 135.728C111.002 135.151 109.299 134.765 107.762 134.032C101.58 131.087 96.1547 127.126 91.9652 121.641C90.2707 119.423 89.1421 116.968 89.2963 114.057ZM136.082 96.1472C138.901 96.0848 140.125 97.3602 139.871 100.189C139.782 101.174 139.543 102.192 139.139 103.091C138.355 104.833 137.518 106.572 136.501 108.186C133.213 113.405 120.832 126.678 115.398 130.754C115.221 130.219 115.072 128.134 115.001 127.636C113.205 115.062 119.925 104.245 128.694 98.7861C130.957 97.3768 133.334 96.2076 136.082 96.1472Z" fill="white"/>
<path fill-rule="evenodd" clip-rule="evenodd" d="M437.402 204.785C437.053 202.911 436.815 201.013 436.421 199.149C435.203 193.381 433.282 187.88 429.677 183.139C428.421 181.488 426.877 180.025 425.313 178.65C424.384 177.834 423.122 176.964 421.841 177.78C420.48 178.647 420.672 180.186 421.021 181.519C421.411 183.008 421.871 184.515 422.561 185.884C425.792 192.298 430.079 197.948 435.239 202.935C435.92 203.593 436.757 204.09 437.402 204.785ZM439.68 206.817C443.191 203.529 446.889 200.428 450.269 197.011C453.725 193.516 457.035 189.865 460.221 186.123C461.496 184.625 462.356 182.744 463.236 180.955C463.704 180.004 464.163 178.646 463.1 177.938C462.308 177.412 460.934 177.168 460.061 177.478C458.027 178.201 455.962 179.089 454.224 180.345C447.399 185.278 442.969 191.928 440.866 200.084C440.299 202.284 440.155 204.593 439.68 206.817ZM437.589 342.592C437.548 342.025 437.505 341.854 437.465 341.696C435.304 333.257 432.537 325.046 427.672 317.735C425.962 315.166 423.919 312.798 421.853 310.497C420.838 309.366 419.476 308.508 418.167 307.694C417.109 307.037 415.844 306.21 414.619 307.083C413.408 307.947 413.788 309.424 413.962 310.655C414.125 311.817 414.398 313.018 414.906 314.065C416.178 316.686 417.412 319.361 419.016 321.779C423.939 329.198 429.895 335.746 436.449 341.757C436.698 341.985 437.257 342.381 437.589 342.592ZM442.443 357.334C443.313 356.69 444.328 356.261 445.222 355.654C450.435 352.11 455.793 348.755 460.796 344.937C464.993 341.734 468.83 338.045 472.706 334.442C473.884 333.348 474.826 331.911 475.589 330.478C476.834 328.14 476.031 327 473.413 327.132C472.781 327.164 472.113 327.228 471.534 327.458C469.251 328.361 466.835 329.068 464.759 330.328C455.534 335.929 448.725 343.782 443.952 353.428C443.336 354.673 443.038 356.077 442.443 357.334ZM442.099 293.092C451.142 289.232 459.474 284.371 466.213 277.204C468.069 275.229 469.538 272.869 471.044 270.593C471.63 269.709 471.958 268.594 472.174 267.537C472.709 264.917 471.482 263.657 468.84 264.184C467.424 264.466 465.976 264.907 464.714 265.592C453.492 271.683 446.663 281.431 442.099 293.092ZM437.826 279.535C437.529 270.099 431.897 259.521 424.649 254.526C423.307 253.601 421.842 252.772 420.316 252.219C418.886 251.7 417.301 251.369 415.785 251.37C411.713 251.372 409.914 254.212 411.827 257.824C412.919 259.887 414.424 261.829 416.091 263.472C421.773 269.07 427.959 274.057 434.918 278.017C435.772 278.502 436.66 278.928 437.826 279.535ZM440.96 249.578C442.13 249.154 443.359 248.88 444.52 248.435C454.278 244.689 462.865 239.03 470.635 232.127C472.522 230.451 474.044 228.328 475.548 226.275C476.338 225.196 476.864 223.864 477.261 222.57C477.969 220.263 477.078 218.977 474.707 218.907C473.266 218.865 471.71 218.879 470.393 219.37C467.674 220.384 464.91 221.463 462.464 222.995C453.888 228.365 447.592 235.85 443.053 244.849C442.278 246.386 441.688 248.017 440.96 249.578ZM437.878 236.295C437.76 231.92 437.298 229.445 436.787 227.454C435.128 222.13 431.597 216.772 425.64 212.689C423.499 211.222 420.984 210.164 418.494 209.377C415.743 208.506 412.885 208.752 410.257 210.191C407.466 211.719 406.529 214.313 408.007 217.13C408.8 218.641 409.902 220.048 411.093 221.281C416.588 226.971 423.363 230.715 430.569 233.738C432.735 234.646 435.008 235.3 437.878 236.295ZM438.957 318.67C438.88 310.806 438.715 302.943 438.592 295.079C438.538 291.605 438.397 288.128 438.486 284.657C438.507 283.841 438.31 282.818 438.31 282.818C438.31 282.818 437.201 281.817 436.518 281.462C428.92 277.512 422.157 272.377 415.982 266.484C413.948 264.542 412.077 262.367 410.463 260.066C408.772 257.656 407.98 254.839 409.704 252.082C411.416 249.344 414.229 248.901 417.194 249.144C419.795 249.356 422.162 250.31 424.376 251.645C429.801 254.915 433.532 259.682 436.329 265.266C436.737 266.079 437.22 266.855 437.596 267.684C437.705 267.925 437.9 268.538 437.9 268.538C437.9 258.931 437.861 248.506 437.861 238.743C435.735 237.984 433.697 237.259 431.659 236.529C424.537 233.978 418.02 230.34 412.248 225.45C410.448 223.925 408.754 222.195 407.332 220.316C402.813 214.345 405.595 207.918 413.065 206.902C416.302 206.461 419.433 206.924 422.437 208.259C428.059 210.758 432.282 214.805 435.499 219.978C436.028 220.83 437.359 223.018 438.018 225.136C438.018 225.136 437.709 221.36 437.703 220.47C437.677 217.073 437.674 215.236 437.674 210.938C437.674 209.495 437.25 208.291 437.25 208.291C437.25 208.291 436.351 206.815 435.691 206.263C429.222 200.843 424.309 194.181 420.451 186.716C419.351 184.589 418.584 182.355 418.677 179.892C418.828 175.836 421.654 173.987 425.175 176.017C427.255 177.217 429.142 178.964 430.702 180.815C434.354 185.149 436.48 190.306 437.937 195.748C438.143 196.516 438.373 197.278 438.751 198.6C439.229 197.328 439.497 196.606 439.771 195.886C442.227 189.42 446.079 183.949 451.446 179.576C453.653 177.777 456.015 176.198 458.81 175.466C459.853 175.193 460.976 175.007 462.042 175.079C464.77 175.262 466.341 177.317 465.82 179.996C465.597 181.147 465.188 182.3 464.654 183.344C463.95 184.721 463.137 186.067 462.202 187.298C455.853 195.664 447.857 202.364 440.075 209.373V245.41C440.687 244.309 441.3 243.208 441.912 242.107C446.75 233.399 453.131 226.107 461.635 220.812C465.066 218.676 468.684 216.92 472.82 216.648C473.816 216.582 474.841 216.588 475.823 216.746C478.562 217.19 480.214 219.35 479.659 222.08C479.319 223.748 478.61 225.39 477.801 226.902C475.964 230.341 473.251 233.076 470.253 235.51C461.32 242.761 451.749 248.891 440.207 252.203C440.374 264.567 440.541 276.952 440.709 289.335C441.269 288.224 441.928 287.163 442.498 286.057C446.062 279.141 450.805 273.156 456.74 268.137C459.901 265.464 463.323 263.209 467.425 262.202C469.644 261.658 471.878 261.436 473.523 263.367C475.137 265.261 474.836 267.569 473.905 269.597C472.848 271.902 471.591 274.18 470.053 276.186C465.879 281.628 460.475 285.722 454.67 289.254C451.163 291.386 447.464 293.202 443.846 295.151C442.892 295.665 441.922 296.149 440.799 296.73C441.068 315.294 441.311 333.8 441.661 352.306C442.232 351.289 442.913 350.335 443.503 349.328C448.097 341.484 453.99 334.829 461.5 329.661C464.532 327.574 467.783 325.917 471.421 325.178C472.484 324.962 473.606 324.843 474.68 324.931C477.522 325.163 479.045 327.154 478.163 329.874C477.589 331.646 476.619 333.467 475.34 334.799C472.118 338.152 468.879 341.583 465.18 344.363C457.669 350.01 449.85 355.246 441.895 360.837C441.895 363.535 441.896 366.721 441.894 369.906C441.893 370.82 441.985 371.752 441.829 372.64C441.756 373.054 441.195 373.383 440.855 373.751C440.473 373.342 439.795 372.956 439.759 372.52C439.592 370.427 439.584 368.32 439.548 366.218C439.456 361.006 439.335 355.794 439.318 350.582C439.315 349.559 438.811 347.257 438.811 347.257C438.811 347.257 437.909 346.268 437.131 345.543C431.311 340.119 425.653 334.525 420.819 328.163C417.882 324.297 414.962 320.402 413.205 315.841C412.402 313.755 411.772 311.491 411.653 309.276C411.443 305.355 414.179 303.436 417.743 305.081C419.933 306.091 422.037 307.562 423.768 309.249C429.509 314.847 433.082 321.845 435.925 329.24C437.038 332.137 437.94 335.118 438.969 338.048C438.964 331.589 439.02 325.129 438.957 318.67Z" fill="black"/>
<path fill-rule="evenodd" clip-rule="evenodd" d="M473.413 327.132C476.031 327 476.834 328.14 475.589 330.478C474.826 331.911 473.884 333.348 472.706 334.442C468.83 338.045 464.993 341.734 460.796 344.937C455.793 348.755 450.435 352.11 445.222 355.654C444.328 356.261 443.313 356.69 442.443 357.334C443.038 356.077 443.336 354.673 443.952 353.428C448.725 343.782 455.534 335.929 464.759 330.328C466.835 329.068 469.251 328.361 471.534 327.458C472.113 327.228 472.781 327.164 473.413 327.132ZM414.619 307.083C415.844 306.21 417.109 307.037 418.167 307.694C419.476 308.509 420.838 309.366 421.853 310.497C423.919 312.798 425.962 315.166 427.672 317.735C432.537 325.047 435.304 333.257 437.465 341.696C437.505 341.854 437.548 342.025 437.589 342.592C437.257 342.381 436.698 341.986 436.449 341.757C429.895 335.746 423.939 329.198 419.016 321.779C417.412 319.361 416.178 316.686 414.906 314.065C414.398 313.018 414.126 311.817 413.962 310.655C413.788 309.424 413.408 307.948 414.619 307.083ZM468.84 264.184C471.482 263.657 472.709 264.917 472.174 267.537C471.958 268.594 471.63 269.709 471.044 270.593C469.538 272.87 468.069 275.229 466.213 277.204C459.474 284.371 451.142 289.232 442.099 293.092C446.663 281.431 453.492 271.683 464.714 265.592C465.976 264.907 467.424 264.466 468.84 264.184ZM415.785 251.37C417.301 251.37 418.886 251.7 420.316 252.219C421.842 252.772 423.307 253.601 424.649 254.526C431.897 259.521 437.529 270.099 437.826 279.535C436.66 278.928 435.772 278.502 434.918 278.017C427.959 274.057 421.773 269.07 416.091 263.472C414.424 261.829 412.919 259.887 411.827 257.824C409.914 254.212 411.713 251.372 415.785 251.37ZM470.393 219.37C471.71 218.879 473.267 218.865 474.707 218.907C477.078 218.977 477.969 220.263 477.261 222.57C476.864 223.864 476.338 225.196 475.548 226.275C474.044 228.328 472.522 230.451 470.635 232.127C462.865 239.03 454.278 244.689 444.52 248.435C443.359 248.88 442.13 249.154 440.96 249.578C441.688 248.017 442.278 246.386 443.053 244.849C447.592 235.85 453.888 228.365 462.464 222.995C464.91 221.463 467.674 220.384 470.393 219.37ZM410.257 210.191C412.885 208.752 415.743 208.506 418.494 209.377C420.984 210.164 423.499 211.222 425.64 212.689C431.597 216.772 435.128 222.131 436.787 227.454C437.298 229.445 437.76 231.92 437.878 236.295C435.008 235.3 432.735 234.646 430.569 233.738C423.363 230.715 416.588 226.971 411.093 221.281C409.902 220.048 408.8 218.641 408.007 217.13C406.529 214.313 407.466 211.719 410.257 210.191ZM460.061 177.478C460.934 177.168 462.308 177.412 463.1 177.938C464.163 178.646 463.704 180.004 463.236 180.955C462.356 182.744 461.496 184.625 460.221 186.123C457.035 189.865 453.725 193.516 450.269 197.011C446.889 200.428 443.191 203.529 439.68 206.817C440.155 204.593 440.299 202.284 440.866 200.084C442.969 191.928 447.399 185.278 454.224 180.346C455.962 179.089 458.027 178.201 460.061 177.478ZM421.841 177.78C423.122 176.964 424.384 177.834 425.313 178.65C426.877 180.026 428.421 181.488 429.677 183.14C433.282 187.88 435.203 193.381 436.421 199.149C436.815 201.013 437.053 202.911 437.402 204.785C436.757 204.09 435.92 203.594 435.239 202.935C430.079 197.948 425.792 192.298 422.561 185.884C421.871 184.515 421.411 183.008 421.021 181.519C420.672 180.186 420.48 178.647 421.841 177.78Z" fill="white"/>
<path fill-rule="evenodd" clip-rule="evenodd" d="M75 479.019C77.1425 493.46 82.3383 501.102 90.5875 501.944C102.961 503.208 110.941 482.732 110.941 479.019C110.941 476.544 110.941 474.077 110.941 471.618L118.635 463.107C127.648 469.974 134.467 469.441 139.092 461.509C146.03 449.611 138.749 431.154 135.847 428.325C132.946 425.496 122.012 417.413 116.059 425.496C110.105 433.579 110.246 440.923 111.511 447.425L103.757 456.627C94.6031 452.265 87.6357 452.68 82.8553 457.872C78.0749 463.065 75.4565 470.114 75 479.019Z" fill="white"/>
<path fill-rule="evenodd" clip-rule="evenodd" d="M464.319 369L535 481L110.612 479.164C110.623 478.815 110.628 478.464 110.628 478.112C110.628 464.642 102.994 453.722 93.5777 453.722C84.1612 453.722 76.5276 464.642 76.5276 478.112C76.5276 478.415 76.5314 478.716 76.5391 479.016L16 478.754L106.97 372.327L464.319 369ZM141.558 451.536C143.841 441.648 135.799 416.285 120.289 421.531C112.901 426.666 110.136 435.195 111.993 447.117L104.749 455.421L111.993 470.131C116.937 466.46 119.409 464.625 119.409 464.625C132.72 475.768 139.276 461.424 141.558 451.536Z" fill="white"/>
<path fill-rule="evenodd" clip-rule="evenodd" d="M105.198 455.916C109.326 461.001 110.551 464.881 111.171 467.565C115.479 463.244 119.929 458.887 124.301 454.352C126.407 452.168 126.806 449.041 125.336 445.857C124.528 444.106 123.331 442.708 122.175 441.438C121.754 440.977 120.817 440.99 120.332 441.396C115.099 445.761 109.759 450.656 105.198 455.916ZM119.487 463.089C121.223 463.86 122.898 465.085 124.663 465.642C134.678 468.801 142.337 455.839 139.29 440.965C136.912 429.36 128.892 421.666 121.098 423.514C114.334 425.118 110.084 435.045 111.59 445.176C111.67 445.218 111.669 445.13 111.718 445.088C113.945 443.166 116.241 441.402 118.37 439.248C120.67 436.922 122.709 437.343 124.657 439.955C125.547 441.147 126.422 442.467 127.066 443.969C129.196 448.939 128.51 453.898 125.315 457.229C123.394 459.232 121.425 461.125 119.487 463.089ZM77.1295 478.051C77.2857 486.29 79.8875 492.202 84.5943 495.924C92.0431 501.815 101.933 497.892 106.737 487.267C111.806 476.059 109.186 461.916 101.028 456.446C93.6385 451.492 84.415 455.432 79.7713 465.533C78.0493 469.278 77.0857 473.405 77.1295 478.051ZM109.7 447.052C109.174 443.661 108.962 441.178 109.224 438.102C110.032 428.633 115.209 421.168 121.426 420.157C132.316 418.386 142.217 431.867 141.996 448.164C141.843 459.469 136.393 468.261 129.002 469.153C125.592 469.566 122.344 468.645 119.35 466.132C118.869 465.728 118.326 465.076 118.071 464.752C118.071 464.752 116.176 466.355 115.505 467.008C114.199 468.281 112.664 469.488 111.788 471.518C111.788 471.518 112.024 474.41 111.557 478.099C110.631 488.859 106.412 495.163 100.087 499.337C94.3616 503.115 88.5817 502.961 83.052 498.311C75.3416 491.828 72.7986 477.962 77.0434 466.15C81.5248 453.679 92.1024 447.775 100.997 453.029C101.781 453.492 103.059 454.118 103.059 454.118C103.059 454.118 104.298 453.142 104.936 452.363C106.331 450.661 108.368 448.478 109.7 447.052Z" fill="black"/>
<path fill-rule="evenodd" clip-rule="evenodd" d="M212.462 455.556C207.672 457.973 205.876 460.404 207.076 462.848C208.276 465.291 213.549 465.479 222.896 463.41L269.332 459.827L298.52 457.513L318.711 455.453L339.677 456.862L360.428 454.39L365.071 450.193L364.642 446.978L404.109 436.284L431.811 421.367L444.187 409.17L449.105 400.285L451.289 388.084L446.816 377.046L434.163 365.745C418.9 359.589 407.707 356.398 400.582 356.172C389.896 355.834 358.908 352.312 348.177 353.936C341.023 355.018 332.054 355.523 321.271 355.448L317.523 344.575L236.778 349.838L236.039 355.879L188.254 368.112L151.687 383.366C141.458 389.079 135.648 393.737 134.255 397.339C132.167 402.743 130.102 411.553 135.681 419.455C141.259 427.358 166.516 442.5 175.091 446.402C180.808 449.003 193.265 452.055 212.462 455.556Z" fill="white"/>
<path fill-rule="evenodd" clip-rule="evenodd" d="M318.765 344.715C319.517 346.58 320.06 348.532 320.65 350.461C321.01 351.643 321.312 352.842 321.68 354.177C322.537 354.103 323.279 354.059 324.015 353.972C338.596 352.241 353.231 352.314 367.885 352.586C379.454 352.801 391.007 353.691 402.455 355.388C413.116 356.968 423.634 359.28 433.208 364.441C436.312 366.114 439.328 368.052 442.094 370.238C451.99 378.062 454.41 388.458 449.948 400.765C448.224 405.52 445.332 409.589 441.973 413.349C435.863 420.187 428.434 425.215 420.397 429.434C405.955 437.015 390.598 442.005 374.781 445.689C371.993 446.338 369.192 446.938 366.22 447.601C367.066 451.208 364.852 453.02 362.223 454.378C360.805 455.11 359.166 455.488 357.584 455.806C348.616 457.604 339.535 457.939 330.427 457.688C325.259 457.545 320.081 456.914 314.933 457.128C309.023 457.373 303.08 457.966 297.262 459.019C285.514 461.143 273.646 460.905 261.814 461.477C251.207 461.99 240.594 462.48 230.005 463.279C224.581 463.688 219.213 464.806 213.804 465.484C212.218 465.682 210.559 465.624 208.971 465.407C207.044 465.144 205.632 464.036 205.047 462.062C204.482 460.149 205.618 458.981 206.861 457.857C207.267 457.49 207.665 457.114 208.382 456.449C204.96 455.683 201.879 455.068 198.837 454.297C183.103 450.309 167.762 445.264 153.672 436.96C148.617 433.981 143.852 430.599 139.786 426.314C136.105 422.434 133.139 418.102 131.599 412.907C129.217 404.877 130.877 397.907 137.039 392.119C140.919 388.477 145.32 385.607 149.975 383.076C162.586 376.221 176.064 371.551 189.598 366.985C203.429 362.318 217.628 359.21 231.933 356.509C234.769 355.973 234.765 355.99 235.33 353.18C235.594 351.861 235.9 350.55 236.184 349.234C236.39 348.285 236.908 348.098 237.5 348.088C237.903 348.081 238.22 348.437 238.173 348.84C237.886 351.325 237.685 353.672 237.229 355.969C237.069 356.773 236.192 357.532 235.476 358.098C234.83 358.609 234.521 358.576 232.807 358.851C233.496 360.532 235.963 361.65 236.352 363.522C236.444 363.971 236.035 364.37 235.584 364.301C233.957 364.055 232.562 362.724 229.83 359.021C220.867 361.111 211.67 362.962 202.642 365.435C190.45 368.775 178.45 372.817 166.793 377.734C160.361 380.447 154.077 383.586 147.967 386.973C144.486 388.902 141.3 391.503 138.319 394.181C133.206 398.774 131.815 404.632 133.52 411.265C134.444 414.86 135.966 418.217 138.375 420.995C140.942 423.953 143.615 426.918 146.669 429.334C157.186 437.654 169.352 442.742 181.957 446.958C183.078 445.976 183.884 444.819 184.875 443.924C185.836 443.056 187.277 444.254 186.577 445.345C186.042 446.177 184.804 447.2 184.589 447.814C193.663 450.547 203.152 453.656 212.881 454.397C214.878 448.566 219.653 446.37 224.604 444.527C227.411 443.483 230.308 442.722 233.225 442.046C236.025 441.399 238.018 439.919 239.696 437.575C242.709 433.365 245.911 429.29 249.126 425.232C250.191 423.888 251.467 422.684 252.774 421.566C255.682 419.078 259.092 417.994 262.903 418.377C267.308 418.82 271.696 419.536 275.582 421.777C279.041 423.773 282.287 422.119 285.614 421.644C285.791 421.619 286.197 421.587 286.365 421.393C286.365 421.393 286.464 420.841 286.533 420.638C287.11 418.932 287.589 417.193 288.218 415.086C256.302 410.092 244.004 407.334 219.252 403.589C218.018 405.798 216.947 408.312 214.672 409.588C214.143 409.885 213.48 409.453 213.543 408.847C213.758 406.785 214.979 405.474 215.88 403.741C212.516 403.327 209.203 402.9 205.885 402.515C203.698 402.261 201.494 402.126 199.317 401.807C198.754 401.725 197.928 401.228 197.832 400.786C197.736 400.35 198.291 399.475 198.768 399.263C200.145 398.648 201.608 397.954 203.072 397.859C206.982 397.605 210.916 397.493 214.832 397.604C224.163 397.87 233.415 398.968 242.595 400.682C244.264 400.994 245.941 401.264 247.626 401.47C257.889 402.728 268.102 404.214 278.251 406.293C286.892 408.063 295.726 408.436 304.565 408.083C308.771 407.916 312.983 407.905 317.187 407.733C318.594 407.676 319.989 407.341 321.591 407.103C321.491 405.273 321.404 403.667 321.316 402.062C321.284 401.486 321.102 400.863 321.259 400.345C321.457 399.693 321.853 398.695 322.305 398.61C323.264 398.431 323.428 399.39 323.488 400.192C323.632 402.101 323.773 404.01 323.935 406.169C324.939 405.936 325.74 405.781 326.523 405.563C338.483 402.236 350.378 398.64 362.421 395.647C372.443 393.156 382.636 391.362 392.761 389.298L392.996 389.251C394.426 388.965 394.924 391.112 393.508 391.461C393.35 391.5 393.19 391.533 393.031 391.568C390.321 392.159 387.602 392.715 384.889 393.299C384.156 393.458 383.433 393.669 382.726 393.85C382.87 396.219 384.787 397.995 385.167 400.463C385.296 401.301 384.26 401.788 383.684 401.169C381.811 399.159 381.415 396.456 379.876 394.342C368.092 396.548 356.073 399.103 344.615 402.751C344.87 404.2 345.074 405.443 345.119 406.815C345.167 408.26 343.044 408.43 342.847 406.999C342.693 405.881 343.14 404.502 342.446 403.525C341.739 403.703 340.574 403.98 339.8 404.266C333.871 406.456 327.889 408.517 322.046 410.922C310.982 415.477 300.198 420.644 289.822 426.638C288.994 427.116 288.227 427.699 287.416 428.206C287.077 428.419 286.475 428.924 286.254 429.022L286.236 429.028L286.238 429.048C286.261 429.386 286.236 430.253 286.252 430.641C286.468 435.726 286.671 441.23 286.861 446.56C287.626 446.401 288.216 445.919 288.799 445.717C290.971 444.968 293.113 444.126 295.299 443.418C295.341 443.404 295.384 443.39 295.427 443.377C296.799 442.967 297.475 445.01 296.134 445.516L296.103 445.527C294.221 446.237 292.309 446.866 290.438 447.604C289.301 448.053 288.275 448.26 287.033 448.851C287.25 451.747 287.399 454.879 287.635 458.046C301.444 456.058 315.57 453.86 328.642 451.978L328.644 451.962C328.683 451.691 329.196 448.213 330.181 446.692C330.809 445.724 332.321 446.273 332.137 447.413C331.926 448.725 331.226 449.925 331.396 451.288C332.067 451.233 332.696 451.225 333.309 451.125C350.309 448.341 367.312 445.546 383.953 440.982C398.507 436.99 412.558 431.717 425.551 423.863C431.851 420.056 437.422 415.399 442.056 409.662C443.712 407.612 445.064 405.315 446.603 403.17L442.23 403.671C441.502 403.754 440.773 403.836 440.043 403.915C439.051 404.024 437.639 404.619 437.417 403.165C437.164 401.508 439.143 401.894 440.036 401.602C441.571 401.1 443.183 400.915 444.797 400.904C445.759 400.897 447.082 400.935 447.65 400.597C447.65 400.597 448.03 399.545 448.296 398.684C451.813 387.308 449.275 377.552 438.066 370.16C436.109 371.047 435.377 373.615 433.251 374.493C432.785 374.686 432.245 374.41 432.147 373.914C431.929 372.817 432.87 372.177 433.455 371.444C434.164 370.555 434.918 369.703 435.875 368.573C434.213 367.634 432.775 366.751 431.277 365.988C425.52 363.052 419.39 361.176 413.133 359.701C403.591 357.453 393.86 356.519 384.129 355.601C383.668 355.557 383.198 355.62 382.776 355.631C381.906 358.105 381.274 360.476 379.611 362.682C379.12 363.334 378.067 362.969 378.103 362.153C378.205 359.774 379.111 358.29 379.762 355.464C369.791 354.719 359.801 354.61 349.805 354.746C339.771 354.882 329.765 355.452 319.596 356.904C319.357 355.488 319.242 354.188 318.905 352.947C318.226 350.445 317.442 347.97 316.666 345.495C316.426 344.729 316.075 343.827 317.125 343.636C317.61 343.547 318.553 344.191 318.765 344.715ZM263.38 424.198C258.846 424.566 254.918 426.429 251.167 428.845C246.963 431.553 243.713 435.186 241.184 439.437C239.52 442.236 237.133 443.637 234.06 444.146C233.494 444.239 232.932 444.364 232.377 444.508C227.92 445.669 223.519 446.984 219.582 449.485C217.594 450.749 215.712 452.267 215.473 454.751C215.234 457.208 213.88 457.939 211.767 458.301C210.587 458.504 209.356 458.984 208.379 459.671C206.7 460.85 206.95 462.449 208.951 462.988C210.376 463.372 211.983 463.384 213.461 463.193C216.962 462.739 220.419 461.942 223.921 461.502C239.134 459.591 254.449 459.431 269.743 458.911C274.895 458.735 280.047 458.545 285.178 458.362C284.736 448.794 284.303 439.424 283.854 429.719C280.256 431.259 277.31 430.004 274.447 428.297C273.049 427.464 271.65 426.632 270.238 425.825C268.113 424.612 265.871 423.997 263.38 424.198ZM362.158 448.39C361.714 448.323 361.228 448.555 360.759 448.638C352.297 450.137 343.835 451.637 335.372 453.13C330.474 453.994 325.569 454.818 320.673 455.691C328.936 455.327 337.236 455.549 345.49 455.033C349.95 454.755 354.398 453.973 358.791 453.107C360.378 452.795 361.841 451.661 363.249 450.733C363.655 450.464 363.967 449.48 363.786 449.053C363.621 448.661 362.747 448.48 362.158 448.39ZM180.887 413.774C180.98 413.935 181.074 414.142 181.057 414.317C180.665 418.305 180.261 422.292 179.834 426.277C179.83 426.312 179.802 426.343 179.745 426.384C179.295 426.696 178.67 426.457 178.498 425.935C178.276 425.266 178.079 424.682 178.112 424.112C178.295 421.047 178.637 417.99 178.939 414.932C178.976 414.557 179.07 414.162 179.242 413.831C179.586 413.17 180.523 413.152 180.887 413.774ZM164.937 414.404C164.938 414.406 164.939 414.409 164.94 414.411C165.153 414.82 165.076 415.321 164.75 415.646C164.296 416.1 163.845 416.561 163.304 416.847C160.433 418.366 157.507 419.78 154.592 421.213C154.17 421.421 153.656 421.697 153.249 421.616C152.774 421.522 152.241 421.148 151.99 420.737C151.869 420.539 152.231 419.772 152.548 419.614C156.222 417.784 159.922 416.005 163.642 414.271C163.98 414.113 164.501 414.35 164.937 414.404ZM215.216 425.555C215.304 425.562 215.389 425.591 215.477 425.638C216.292 426.074 216.116 427.327 215.233 427.597C215.108 427.635 214.991 427.655 214.875 427.651C211.838 427.546 208.805 427.349 205.771 427.177C205.582 427.167 205.34 427.18 205.219 427.073C205.103 426.971 204.993 426.866 204.884 426.758C204.383 426.257 204.433 425.369 205.044 425.011C205.12 424.967 205.194 424.942 205.268 424.945C208.588 425.066 211.906 425.276 215.216 425.555ZM239.54 421.927C239.777 422.371 239.747 422.912 239.467 423.331C239.25 423.657 239.029 423.943 238.784 423.966C236.805 424.147 234.805 424.172 232.816 424.109C232.474 424.097 232.01 423.43 231.888 422.986C231.831 422.782 232.452 422.136 232.79 422.117C235.036 421.989 237.289 421.977 239.54 421.927ZM325.18 425.585L325.183 425.592C325.332 426.001 325.2 426.461 324.856 426.727C324.39 427.088 323.924 427.46 323.445 427.479C320.014 427.609 316.575 427.6 313.143 427.509C313.031 427.506 312.92 427.456 312.81 427.376C312.128 426.878 312.235 425.762 313.004 425.412C313.105 425.366 313.206 425.338 313.309 425.334C316.931 425.208 320.556 425.191 324.182 425.179C324.514 425.178 324.847 425.443 325.18 425.585ZM376.969 424.199C377.405 424.296 377.806 424.638 378.18 424.929C380.439 426.687 382.7 428.443 384.928 430.239C385.099 430.377 385.278 430.515 385.444 430.664C386.415 431.54 385.263 433.099 384.137 432.437C383.889 432.291 383.654 432.14 383.433 431.971C381.159 430.234 378.923 428.446 376.674 426.674C376.375 426.438 375.938 426.245 375.823 425.935C375.65 425.467 375.561 424.86 375.725 424.421C375.804 424.209 376.567 424.11 376.969 424.199ZM297.579 413.37C292.797 412.904 289.713 415.593 289.394 420.681C294.207 418.807 298.948 416.96 303.703 415.108C301.689 413.904 300.964 413.699 297.579 413.37ZM359.687 415.697C360.003 415.937 360.279 416.422 360.295 416.816C360.314 417.254 360.108 417.762 359.856 418.145C358.175 420.682 356.499 423.226 354.727 425.699C354.429 426.113 354.095 426.527 353.649 426.795C352.665 427.386 351.491 426.222 352.133 425.267C352.136 425.263 352.139 425.259 352.142 425.255C354.022 422.509 355.941 419.79 357.847 417.062C358.118 416.675 358.335 416.221 358.686 415.93C358.935 415.723 359.504 415.558 359.687 415.697ZM158.666 389.179C159.583 391.83 160.479 394.499 160.517 397.309C160.522 397.677 160.297 398.01 159.963 398.16C159.846 398.213 159.706 398.194 159.611 398.107C159.193 397.73 158.656 397.388 158.521 396.926C157.852 394.644 157.284 392.329 156.802 390.002C156.722 389.614 157.16 388.983 157.535 388.697C157.707 388.565 158.57 388.899 158.666 389.179ZM406.175 410.55C406.552 410.765 406.735 411.21 406.621 411.63C406.477 412.168 406.333 412.706 406.011 413.095C404.674 414.708 403.209 416.217 401.744 417.717C401.222 418.249 400.467 418.897 399.841 418.003C399.585 417.637 399.724 416.649 400.054 416.269C401.678 414.398 403.411 412.622 405.147 410.853C405.366 410.63 405.826 410.645 406.175 410.55ZM280.945 394.393L280.95 394.398C281.18 394.611 281.264 394.936 281.177 395.238C281.022 395.774 280.891 396.352 280.544 396.551C278.489 397.726 276.348 398.759 274.184 399.723C273.878 399.859 273.161 399.432 272.867 399.074C272.721 398.896 272.983 398.046 273.266 397.899C275.702 396.634 278.097 395.251 280.687 394.34C280.776 394.309 280.876 394.329 280.945 394.393ZM182.091 376.554C182.622 379.082 183.019 381.64 183.39 384.198C183.446 384.588 183.119 385.034 182.969 385.454C182.539 385.581 182.077 385.422 181.817 385.056C181.547 384.677 181.285 384.296 181.193 383.878C180.698 381.633 180.338 379.358 179.935 377.093C179.788 376.273 179.852 375.388 180.831 375.343C181.248 375.324 181.987 376.058 182.091 376.554ZM234.889 384.341C234.871 384.829 234.664 385.447 234.309 385.75C233.906 386.096 233.274 386.216 232.721 386.334C230.623 386.781 228.519 387.198 226.288 387.648C225.809 387.744 225.306 387.631 224.923 387.326C224.698 387.148 224.51 386.96 224.492 386.758C224.458 386.367 224.972 385.64 225.361 385.547C228.147 384.885 230.958 384.32 233.776 383.805C234.124 383.741 234.895 384.165 234.889 384.341ZM216.323 374.252C216.132 374.646 215.958 374.957 215.696 375.086C213.148 376.344 210.551 377.505 207.924 378.585C207.82 378.628 207.696 378.619 207.559 378.58C206.836 378.374 206.497 377.572 206.885 376.926C206.951 376.815 207.03 376.73 207.127 376.684C209.877 375.4 212.675 374.218 215.472 373.037C215.52 373.018 215.573 373.01 215.635 373.012C216.235 373.032 216.585 373.71 216.323 374.252ZM318.426 377.721C318.488 377.843 318.52 377.96 318.506 378.071C318.06 381.4 317.498 384.713 316.879 388.015C316.859 388.116 316.81 388.211 316.735 388.309C316.147 389.077 314.866 388.593 314.976 387.63L314.977 387.617C315.389 384.377 315.809 381.137 316.346 377.917C316.362 377.816 316.405 377.718 316.465 377.624C316.92 376.907 318.04 376.965 318.426 377.721ZM422.678 393.02L422.758 393.243C422.116 393.713 421.538 394.383 420.82 394.618C418.381 395.415 415.895 396.068 413.419 396.749C413.063 396.848 412.626 396.913 412.299 396.794C411.905 396.65 411.369 396.339 411.298 396.013C411.227 395.682 411.574 395.166 411.877 394.877C412.123 394.642 412.571 394.612 412.934 394.51C415.314 393.838 417.686 393.138 420.08 392.523C420.592 392.391 421.131 392.367 421.67 392.344C422.117 392.325 422.526 392.598 422.678 393.02ZM252.518 368.88C252.625 368.89 252.724 368.915 252.812 368.961C254.487 369.848 256.111 370.852 257.67 371.933C257.928 372.112 258.133 372.367 258.364 372.705C258.834 373.391 258.295 374.368 257.476 374.243C257.387 374.229 257.31 374.205 257.241 374.167C255.34 373.097 253.451 371.995 251.652 370.765C251.57 370.71 251.505 370.63 251.452 370.532C251.036 369.779 251.664 368.802 252.518 368.88ZM277.558 367.518C277.848 367.812 277.772 368.766 277.524 369.242C276.6 371.012 275.555 372.72 274.515 374.426C274.232 374.89 273.918 375.332 273.462 375.545C272.732 375.885 271.906 375.168 272.111 374.386C272.128 374.322 272.15 374.262 272.18 374.207C273.309 372.116 274.494 370.056 275.699 368.009C276.135 367.268 276.884 366.832 277.558 367.518ZM351.129 377.982C351.563 378.039 351.924 378.348 352.046 378.771L352.049 378.783C351.344 379.285 350.706 380.014 349.921 380.249C346.555 381.258 343.147 382.128 339.749 383.028C339.391 383.123 338.968 383.178 338.629 383.074C338.317 382.979 337.929 382.687 337.848 382.402C337.763 382.103 337.898 381.597 338.124 381.385C338.452 381.079 338.931 380.89 339.378 380.767C342.86 379.813 346.341 378.856 349.842 377.977C350.245 377.875 350.686 377.925 351.129 377.982ZM308.829 351.06C308.866 351.203 308.873 351.336 308.833 351.454C307.617 355.092 306.303 358.7 304.932 362.284C304.902 362.361 304.875 362.437 304.849 362.51C304.6 363.212 303.835 363.606 303.134 363.359C303.105 363.349 302.751 363.028 302.732 363.018C302.747 362.37 302.937 361.982 303.131 361.393C304.302 357.836 305.515 354.292 306.816 350.782C306.85 350.691 306.908 350.608 306.982 350.531C307.564 349.931 308.623 350.248 308.829 351.06ZM408.004 370.865C409.921 371.88 411.779 373.033 413.55 374.289C413.978 374.593 414.203 375.185 414.454 375.741C414.584 376.029 414.502 376.368 414.257 376.566C414.12 376.677 413.939 376.72 413.768 376.679C413.331 376.574 412.875 376.5 412.506 376.28C410.637 375.168 408.809 373.986 406.958 372.844C406.295 372.435 405.458 371.95 406.064 371.142C406.354 370.755 407.512 370.605 408.004 370.865Z" fill="black"/>
<path fill-rule="evenodd" clip-rule="evenodd" d="M236.342 150.994C251.382 152.77 261.691 161.317 268.47 174.498C270.229 177.919 271.348 180.13 270.801 185.072C270.727 185.739 270.543 186.366 270.582 186.599C270.657 187.054 271.973 188.428 272.254 188.808C273.299 190.223 274.831 192.028 275.215 191.954C276.022 191.799 277.328 191.607 278.98 191.452C284.448 190.942 289.72 191.652 294.364 194.857C295.429 195.592 297.716 196.888 297.824 197.427C297.86 197.608 297.836 197.806 297.762 197.979C306.214 205.146 309.625 213.726 307.994 223.719C306.465 233.089 297.64 239.126 281.519 241.83L282.915 256.991H269.15C268.717 240.063 267.928 230.858 266.782 229.377C254.035 229.377 254.035 222.863 254.733 219.316C255.431 215.769 258.506 216.647 261.936 213.776C262.043 213.629 262.149 213.484 262.253 213.341C262.136 213.061 262.04 212.724 261.967 212.33C261.128 207.837 262.632 203.873 264.841 200.034C266.292 197.512 267.416 196.82 267.99 196.317C266.769 195.377 266.025 193.885 264.978 192.475C264.075 193.581 262.941 196.01 262.274 196.777C259.076 200.459 257.766 202.308 254.392 205.821C251.127 209.219 245.827 212.829 241.451 214.655C239.533 215.455 237.467 215.949 235.425 216.381C234.439 216.59 233.322 216.482 232.321 216.258C229.2 215.56 228.142 212.844 229.273 209.812C229.793 208.42 230.706 207.09 231.869 206.115C232.847 205.295 233.281 204.883 234.309 204.077C232.997 204.077 230.666 203.78 229.608 203.504C224.13 202.077 222.515 197.976 226.646 194.047C228.682 192.111 231.177 190.989 232.324 190.068C232.002 190.325 230.602 190.373 230.216 190.411C229.618 190.47 229.024 190.609 228.425 190.674C225.818 190.961 223.262 190.703 220.669 190.409C218.789 190.198 216.805 190.047 215.089 189.188C211.731 187.505 210.901 184.192 213.39 181.363C214.73 179.84 215.446 179.503 217.196 178.381C218.057 177.829 220.715 176.711 222.086 176.141C220.883 175.274 220.344 175.031 219.784 174.483C217.415 172.166 217.692 169.519 220.603 167.879C221.897 167.149 224.194 166.513 226.103 166.27C224.921 165.627 224.407 165.196 223.23 164.078C220.086 160.775 220.285 156.963 223.862 154.139C227.533 151.241 231.907 150.47 236.342 150.994Z" fill="white"/>
<path fill-rule="evenodd" clip-rule="evenodd" d="M236.342 150.994C251.382 152.77 261.691 161.317 268.47 174.498C270.229 177.919 271.348 180.13 270.801 185.072C270.727 185.739 270.543 186.366 270.582 186.599C270.657 187.054 271.973 188.428 272.254 188.808C273.299 190.223 274.831 192.028 275.215 191.954C276.022 191.799 277.328 191.607 278.98 191.452C284.448 190.942 289.72 191.652 294.364 194.857C295.429 195.592 297.716 196.888 297.824 197.427L297.827 197.451C298.783 198.228 300.075 199.351 300.822 200.074C303.816 202.97 306.06 206.401 307.968 210.109C311.069 216.133 310.6 221.97 307.358 227.715C304.997 231.898 301.669 235.184 297.649 237.752C293.572 240.356 289.127 242.079 284.4 243.077C283.856 243.193 283.316 243.337 282.538 243.524C283.04 246.358 283.522 249.078 284.001 251.798C284.201 252.933 284.4 254.069 284.587 255.206C284.74 256.143 285.126 257.403 283.896 257.65C282.752 257.928 282.513 256.343 282.265 254.955C281.758 252.128 281.977 252.361 281.414 250.1C280.543 246.603 280.628 246.597 279.131 245.653C278.784 245.499 277.748 244.719 277.018 244.23C276.678 244.003 276.368 243.736 276.11 243.418C275.895 243.151 275.83 242.98 275.857 242.505C275.934 241.149 277.361 241.314 278.36 241.178C279.592 241.01 280.843 240.987 282.075 240.822C291.006 239.626 298.522 235.805 303.915 228.42C308.047 222.762 308.893 216.721 305.355 210.318C303.241 206.495 300.448 202.102 297.015 199.375C296.744 199.16 296.5 198.976 296.303 198.802C294.208 199.544 292.314 199.861 290.043 200.29C287.385 200.791 283.435 200.967 280.765 200.575C278.352 200.221 276.769 199.854 274.449 199.105C274.144 199.977 273.888 200.667 273.659 201.367C272.072 206.236 269.337 210.317 265.356 213.534C264.676 214.083 264.087 214.373 263.593 214.396C263.528 214.529 263.446 214.64 263.349 214.712C262.673 215.217 261.806 215.454 261.048 215.858C259.703 216.574 258.232 217.152 257.076 218.109C253.275 221.252 254.044 226.13 258.606 227.947C259.823 228.432 261.196 228.572 262.513 228.741C263.357 228.849 264.232 228.744 265.09 228.694C267.919 228.528 268.127 228.73 268.256 231.663C268.37 234.254 268.462 236.847 268.669 239.43C269.106 244.885 269.6 250.336 270.103 255.785C270.15 256.3 270.277 256.822 270.16 257.34C269.943 258.294 268.581 258.322 268.258 257.399C268.024 256.732 267.826 256.115 267.772 255.486C267.154 248.216 266.623 240.938 266.062 233.664C266.004 232.91 265.933 232.159 265.84 231.066C264.742 231.066 263.729 231.074 262.716 231.065C260.436 231.046 258.275 230.569 256.324 229.359C252.495 226.985 251.368 222.181 253.848 218.41C255.844 215.376 259.003 214.207 262.138 213.029C262.072 212.82 262.015 212.587 261.967 212.33C261.128 207.837 262.632 203.873 264.841 200.034C266.292 197.512 267.416 196.82 267.99 196.317C266.769 195.377 266.025 193.885 264.978 192.475C264.075 193.581 262.941 196.01 262.274 196.777C259.076 200.459 257.766 202.308 254.392 205.821C251.127 209.219 245.827 212.829 241.451 214.655C239.533 215.455 237.467 215.949 235.425 216.381C234.439 216.59 233.322 216.482 232.321 216.258C229.2 215.56 228.142 212.844 229.273 209.812C229.793 208.42 230.706 207.09 231.869 206.115C232.847 205.295 233.281 204.883 234.309 204.077C232.997 204.077 230.666 203.78 229.608 203.504C224.13 202.077 222.515 197.976 226.646 194.047C228.682 192.111 231.177 190.989 232.324 190.068C232.002 190.325 230.602 190.373 230.216 190.411C229.618 190.47 229.024 190.609 228.425 190.674C225.818 190.961 223.262 190.703 220.669 190.409C218.789 190.198 216.805 190.047 215.089 189.188C211.731 187.505 210.901 184.192 213.39 181.363C214.73 179.84 215.446 179.503 217.196 178.381C218.057 177.829 220.715 176.711 222.086 176.141C220.883 175.274 220.344 175.031 219.784 174.483C217.415 172.166 217.692 169.519 220.603 167.879C221.897 167.149 224.194 166.513 226.103 166.27C224.921 165.627 224.407 165.196 223.23 164.078C220.086 160.775 220.285 156.963 223.862 154.139C227.533 151.241 231.907 150.47 236.342 150.994ZM262.179 193.068C261.679 193.068 260.254 194.091 260.112 194.167C259.358 194.571 258.599 194.975 257.883 195.442C252.333 199.071 246.468 201.928 239.955 203.428C238.523 203.877 236.328 204.444 236.182 204.537C235.33 205.075 234.12 206.263 232.88 207.626C231.594 209.039 230.141 211.063 231.309 213.062C232.454 215.021 234.032 214.862 236.452 214.346C241.461 212.776 242.398 212.215 245.035 210.585C251.374 206.668 256.591 201.14 260.997 195.195C261.154 194.984 262.939 193.115 262.179 193.068ZM268.197 198.958C265.424 201.82 264.061 205.33 263.834 209.284C263.797 209.925 263.753 210.618 264.11 211.754C265.094 211.156 265.47 210.908 265.836 210.583C268.769 207.979 270.708 204.724 271.794 200.975C272.107 199.895 272.795 197.573 271.926 197.004C270.944 196.208 269.04 198.089 268.197 198.958ZM237.457 189.322C234.976 190.222 232.932 191.846 230.663 193.24C229.641 193.869 228.949 194.746 227.807 195.702C225.414 198.672 226.75 200.351 229.624 201.307C230.87 201.722 232.233 201.9 233.553 201.958C238.522 202.176 243.317 201.104 247.68 198.866C252.935 196.17 257.955 193.005 263.032 189.969C263.883 189.46 266.151 188.391 266.94 187.624C266.517 187.261 265.251 187.128 264.701 187.012C264.146 186.894 263.2 186.75 262.639 186.651C253.954 185.117 245.66 186.347 237.457 189.322ZM277.321 193.652C276.335 193.904 274.119 194.557 273.893 195.377C273.51 196.769 275.312 197.235 276.41 197.724C282.253 199.02 288.412 199.355 294.636 197.121C293.777 196.562 292.096 195.761 291.803 195.568C286.559 192.586 283.133 192.167 277.321 193.652ZM269.407 188.749C268.422 189.425 267.866 190.201 266.675 191.018C267.554 192.361 267.734 193.094 268.578 194.199C269.362 195.226 269.391 195.766 271.96 194.363C272.344 193.999 273.004 193.235 273.004 193.235C271.946 191.908 271.447 190.38 269.407 188.749ZM224.909 177.545C223.636 177.658 220.924 178.793 218.143 180.452C217.179 181.027 216.253 181.799 215.565 182.682C214.075 184.594 214.445 186.365 216.637 187.369C218.087 188.033 220.453 188.771 222.039 188.938C231.458 190.085 237.537 186.65 246.061 184.251C240.823 183.772 234.065 178.53 234.065 178.53C232.335 178.972 228.239 178.259 224.909 177.545ZM239.773 170.109C237.809 170.599 235.666 171.553 235.293 173.92C234.932 176.215 236.376 177.643 238.139 178.611C240.381 179.841 243.485 181.57 245.943 182.133C251.23 183.343 256.934 183.768 262.291 184.66C263.694 184.894 264.923 185.209 266.27 185.516C266.27 185.516 267.936 185.565 267.873 185.15C267.164 183.515 266.305 182.196 265.687 181.2C261.57 176.743 258.92 175.426 253.067 171.843C248.789 170.254 244.296 168.981 239.773 170.109ZM233.287 153.268C230.565 153.429 228.003 154.129 225.817 155.824C222.988 158.017 222.832 160.799 225.569 163.045C226.866 164.109 228.44 165.138 230.036 165.474C234.97 166.513 239.947 167.612 244.956 167.951C253.385 168.52 258.421 171.914 265.833 178.127C267.149 179.883 268.3 181.614 268.612 182.204C268.768 182.657 269.347 183.384 269.404 183.248C269.655 182.65 269.272 180.908 269.04 180.176C268.729 178.127 266.923 175.344 266.059 173.789C262.412 167.22 257.469 161.837 251 157.988C245.559 154.751 239.706 152.887 233.287 153.268ZM224.709 168.59C223.47 168.983 221.375 169.739 220.931 171.107C220.292 173.076 223.572 174.575 224.871 175.066C227.359 176.005 230.688 176.679 233.324 176.41C233.197 176.423 232.74 175.243 232.862 174.296C232.943 173.663 233.162 173.052 233.434 172.477C234.073 171.126 235.082 169.996 236.216 169.024C233.702 168.518 231.721 168.056 229.432 167.963C227.843 167.898 226.226 168.109 224.709 168.59Z" fill="black"/>
<path fill-rule="evenodd" clip-rule="evenodd" d="M307.04 262.628C312.445 263.278 317.839 264.025 323.222 264.84C327.902 265.548 331.311 268.151 333.473 272.371C337.463 280.161 341.481 287.939 345.372 295.779C349.52 304.136 353.753 312.46 357.542 320.983C360.866 328.46 363.419 336.227 364.083 344.524C364.705 352.29 363.854 359.76 360.119 366.665C356.531 373.299 351.412 378.165 343.72 379.479C339.12 380.264 334.522 379.809 330.148 378.216C325.3 376.45 320.399 374.707 315.81 372.376C305.482 367.13 295.325 361.545 285.118 356.058C282.271 354.528 282.323 354.484 280.052 356.702C272.756 363.827 265.181 370.614 256.374 375.829C251.341 378.809 246.207 381.612 240.4 382.823C235.933 383.755 231.668 383.257 227.617 381.054C223.47 378.8 220.267 375.57 217.749 371.596C213.66 365.145 211.441 358.012 210.232 350.527C208.023 336.852 207.958 323.074 208.632 309.294C208.989 301.983 209.906 294.707 211.878 287.616C211.929 287.431 211.97 287.242 212.013 287.054C214.053 278.06 219.301 272.389 228.346 270.001C236.595 267.823 244.916 266.179 253.335 264.949C254.204 264.823 256.794 264.543 256.767 264.316C256.65 263.329 256.468 263.38 256.611 262.303C256.705 261.587 258.016 260.813 258.829 260.504C261.771 259.387 268.283 257.521 267.79 257.521C274.672 256.434 280.052 255.249 285.535 255.249C288.727 254.869 291.823 255.561 294.865 256.434C295.968 256.75 296.505 257.679 296.592 258.857C296.661 259.793 296.876 260.657 296.587 261.821C300.093 262.1 303.746 262.232 307.04 262.628Z" fill="white"/>
<path fill-rule="evenodd" clip-rule="evenodd" d="M294.866 256.434C295.968 256.75 296.505 257.679 296.592 258.857C296.661 259.793 296.876 260.657 296.586 261.821C300.092 262.1 303.745 262.232 307.04 262.628C312.444 263.278 317.839 264.025 323.222 264.84C327.902 265.548 331.311 268.151 333.473 272.371C337.463 280.161 341.481 287.939 345.372 295.779C349.52 304.136 353.753 312.46 357.542 320.983C360.866 328.46 363.419 336.227 364.083 344.524C364.705 352.29 363.854 359.76 360.119 366.665C356.531 373.299 351.411 378.165 343.72 379.479C339.12 380.264 334.522 379.809 330.148 378.216C325.301 376.45 320.399 374.707 315.81 372.376C305.483 367.13 295.324 361.545 285.118 356.058C282.271 354.528 282.323 354.484 280.052 356.702C272.756 363.827 265.181 370.614 256.374 375.829C251.341 378.809 246.206 381.612 240.4 382.823C235.933 383.755 231.668 383.257 227.617 381.054C223.469 378.8 220.267 375.57 217.749 371.596C213.661 365.145 211.441 358.012 210.232 350.527C208.022 336.852 207.958 323.074 208.632 309.294C208.989 301.983 209.906 294.707 211.877 287.616C211.929 287.431 211.97 287.242 212.012 287.054C214.052 278.06 219.3 272.389 228.346 270.001C236.595 267.823 244.917 266.179 253.335 264.949C254.204 264.823 256.794 264.543 256.767 264.316C256.649 263.329 256.468 263.38 256.61 262.303C256.705 261.587 258.015 260.813 258.829 260.504C261.771 259.387 264.76 258.367 267.79 257.521C269.463 257.054 269.992 257.476 270.511 259.208C271.035 260.957 271.357 262.767 271.841 264.53C273.545 270.749 275.29 276.957 276.998 283.175C277.351 284.459 277.982 285.731 278.361 285.693C280.228 285.504 284.872 284.978 284.756 284.473C284.946 284.282 284.758 282.137 284.658 281.12C284.357 278.055 283.795 275.01 283.581 271.94C283.266 267.428 283.118 262.902 282.994 258.379C282.936 256.243 283.57 255.484 285.535 255.249C288.727 254.869 291.823 255.561 294.866 256.434ZM255.421 266.509C254.571 266.509 253.823 266.656 253.377 266.733C248.012 267.656 241.068 269.047 235.759 270.231C231.483 271.186 230.326 271.669 226.157 273.048C221.822 274.482 217.988 277.392 216.302 281.646C215.418 283.877 214.618 286.159 214.017 288.48C212.077 295.966 210.706 303.504 210.267 311.218C209.497 324.737 210.008 338.178 212.273 351.524C213.494 358.715 215.858 365.542 220.152 371.499C225.677 379.163 234.436 383.492 245.583 378.756C251.428 376.272 256.013 373.376 261.161 369.658C276.69 358.443 289.299 344.921 299.738 328.936C301.207 326.685 301.1 325.683 299.036 323.99C295.773 321.315 292.426 318.743 289.09 316.161C288.849 315.975 288.586 315.817 288.309 315.666C287.514 315.234 286.514 315.367 285.89 316.026C285.766 316.157 285.658 316.293 285.572 316.443C284.292 318.68 282.187 319.552 279.812 320.095C277.765 320.564 275.723 321.062 273.709 321.662C267.076 323.639 260.434 325.594 253.855 327.746C251.694 328.453 249.714 329.714 247.614 330.636L247.6 330.642C246.785 330.993 246.134 329.894 246.824 329.334C248.635 327.866 250.799 327.034 252.652 325.91C252.558 325.438 251.98 324.085 251.828 323.644C248.961 315.375 246.347 307.99 243.381 299.757C241.979 295.869 240.281 292.089 238.723 288.258C238.684 288.164 238.643 288.07 238.604 287.976C238.203 287.031 239.324 286.56 240.043 287.289C241.057 288.317 242.697 290.306 242.965 290.684C244.933 285.996 245.939 282.968 247.959 278.965C250.019 274.886 251.954 271.448 255.421 266.509ZM302.947 264.168L302.115 265.67C302.606 266.111 303.593 266.62 304.169 266.96C307.243 268.771 309.94 271.005 312.394 273.634C314.466 275.854 316.995 278.273 319.249 280.268C319.3 280.153 319.283 279.456 319.355 279.298C319.77 278.379 321.128 278.659 321.154 279.668C321.177 280.548 321.417 281.92 321.212 284.349C321.009 286.74 321.1 289.159 321.107 291.566C321.115 293.974 321.151 296.383 321.235 298.79C321.318 301.162 321.479 303.532 321.612 306.022C322.907 306.022 323.529 305.737 324.468 305.721C325.52 305.702 326.179 305.493 327.227 305.537C330.139 305.946 331.808 307.355 330.034 310.42C329.954 310.557 329.818 310.851 329.818 310.851C331.704 312.054 332.497 314.086 331.171 316.24C331.042 316.45 330.843 316.899 330.818 316.87L330.815 316.858L330.839 317.024C331.234 320.143 329.318 321.215 326.973 321.947C325.82 322.307 324.665 322.662 323.233 323.106C323.817 326.057 324.261 328.801 324.959 331.477C325.131 332.136 326.054 332.748 326.77 333.079C328.329 333.8 330 334.27 331.574 334.961C332.162 335.219 332.606 335.808 333.115 336.246C332.914 336.639 332.477 336.848 332.047 336.759C331.515 336.649 330.983 336.539 330.474 336.362C327.945 335.485 325.457 334.48 322.909 333.669C318.539 332.278 314.147 330.953 309.735 329.711C308.895 329.474 307.385 328.666 306.975 329.145C300.423 336.809 296.616 344.432 288.639 350.785C287.973 351.314 286.787 352.423 285.785 353.239C286.696 353.908 287.262 354.417 287.908 354.785L291.021 356.558C301.056 362.27 311.136 367.902 321.761 372.443C326.054 374.278 330.489 375.92 335.008 377.04C342.085 378.793 348.332 376.615 353.865 371.431C356.786 368.694 358.062 365.768 359.607 362.079C362.453 355.282 362.077 348.43 360.962 341.323C359.446 331.654 356.257 323.513 352.062 314.724C349.288 308.91 346.344 303.177 343.447 297.422C339.536 289.651 335.566 281.911 331.683 274.125C329.611 269.97 325.609 267.148 321.027 266.578C315.343 265.872 310.339 264.836 304.657 264.115C304.096 264.044 303.498 264.052 302.947 264.168ZM311.201 322.484C310.63 322.485 309.876 322.953 309.161 323.298C306.76 324.866 307.083 324.866 304.862 326.345C310.829 327.999 316.705 329.785 323.077 331.551C322.436 328.439 321.924 325.95 321.362 323.219C317.703 323.219 315.893 323.495 311.201 322.484ZM307.119 302.941C301.919 302.968 294.44 308.74 291.08 315.253C294.916 318.358 299.131 321.802 302.981 324.919C307.161 321.679 311.557 320.114 316.534 319.045C320.167 318.266 323.711 317.048 327.264 315.923C327.969 315.7 328.62 315.303 329.296 314.896C329.949 314.504 330.106 313.613 329.617 313.026C328.703 311.926 326.984 312.067 325.34 312.673C322.109 313.865 318.887 315.075 315.66 316.273C314.882 316.561 314.082 317.054 313.299 316.061C313.579 314.91 314.626 314.847 315.466 314.515C319.201 313.041 322.949 311.599 326.665 310.076C327.217 309.85 327.846 309.648 328.301 309.21C328.824 308.707 328.603 307.838 327.908 307.636C326.794 307.313 325.69 307.501 324.635 307.723C319.311 308.847 314.012 310.091 308.689 311.227C306.732 311.644 304.744 311.961 302.755 312.151C302.236 312.199 301.479 311.719 301.173 311.254C300.984 310.968 301.3 310.114 301.638 309.75C302.877 308.416 304.255 307.213 305.513 305.896C306.167 305.21 306.743 304.449 307.421 303.593C307.627 303.334 307.449 302.939 307.119 302.941ZM257.222 267.865C256.254 269.051 255.572 269.826 254.954 270.651C250.118 277.119 246.87 285.158 244.288 292.759C244.529 293.682 246.978 298.397 247.642 300.483C251.167 308.17 253.655 313.5 257.101 321.224C257.484 322.083 257.932 322.914 258.415 323.891C263.768 322.422 266.913 321.652 271.886 320.317C272.51 320.15 273.65 319.875 273.725 319.673C273.725 319.673 273.893 318.424 273.987 317.633C274.841 310.468 275.368 303.713 276.193 296.546C276.445 294.355 276.521 291.74 276.531 289.527C276.508 288.602 276.512 287.68 276.512 287.68C276.149 287.514 275.688 287.083 274.708 286.519C272.791 285.745 270.914 284.678 269.296 283.386C265.055 279.999 261.762 275.762 259.129 271C258.6 270.043 257.994 269.129 257.222 267.865ZM328.805 317.474C324.855 318.631 319.917 320.001 316.129 321.11C316.184 321.355 316.462 321.574 317.444 321.582C320.768 321.562 324.035 321.091 327.191 319.947C328.138 319.604 329.92 319.409 328.805 317.474ZM285.15 286.644C282.763 287.116 280.635 287.537 278.333 287.991C278.333 290.253 278.514 292.555 278.299 294.818C277.679 301.327 276.893 307.818 276.187 314.318C276.026 315.799 275.927 317.286 275.783 318.974C279.457 318.487 282.648 318.108 284.581 314.85C285.234 313.749 286.256 313.166 287.712 313.262C288.482 313.313 289.875 313.788 289.875 313.788C290.32 312.863 291.954 310.67 292.341 310.232C292.341 310.232 291.744 308.97 291.415 308.147C288.973 302.04 286.879 296.873 285.905 290.378C285.86 290.083 285.81 289.786 285.747 289.495C285.475 288.229 285.363 287.465 285.15 286.644ZM268.933 312.469C270.276 312.474 271.851 313.845 271.945 315.09C272.056 316.571 270.854 317.785 269.245 317.816C267.781 317.845 266.68 316.795 266.641 315.333C266.603 313.894 267.747 312.465 268.933 312.469ZM269.04 314.192C268.985 314.201 268.93 314.226 268.88 314.252C268.463 314.471 268.338 314.551 268.295 315.224C268.265 315.694 269.129 315.97 269.347 315.985C269.406 315.989 269.485 315.976 269.574 315.948C270.252 315.736 270.345 314.815 269.762 314.408C269.526 314.244 269.264 314.158 269.04 314.192ZM301.174 267.144C300.332 268.323 299.835 269.014 299.345 269.709C296.743 273.397 294.173 277.11 291.525 280.765C290.515 282.159 289.196 283.338 288.27 284.779C287.752 285.584 287.306 285.801 287.472 286.002C288.297 291.079 289.57 297.166 291.392 302.398C292.029 304.225 292.894 305.956 293.912 307.598C293.971 307.693 294.031 307.794 294.094 307.901C295.31 306.789 296.157 306.277 297.343 305.46C299.436 303.379 301.922 301.987 304.726 301.188C305.629 300.931 306.61 300.775 307.539 300.833C309.171 300.935 310.037 302.159 309.356 303.629C308.769 304.896 307.757 305.982 306.841 307.069C306.131 307.912 305.065 309.188 303.994 310.241C304.847 310.424 305.433 310.07 305.742 309.998C309.834 309.039 313.919 308.047 318.003 307.051C318.584 306.909 319.123 306.988 319.302 306.606L319.302 305.852C319.302 305.476 319.301 305.049 319.299 304.796C319.255 298.338 319.268 291.88 319.143 285.424C319.125 284.456 318.738 283.264 318.097 282.578C314.629 278.86 311.121 275.168 307.433 271.676C305.656 269.994 303.453 268.768 301.174 267.144ZM270.985 295.538C272.672 295.516 274.089 296.767 274.05 298.245C274.013 299.629 272.817 300.649 271.351 300.545C269.944 300.445 268.833 299.324 268.796 297.966C268.758 296.57 269.673 295.556 270.985 295.538ZM271.158 296.954C270.739 297.022 270.521 297.327 270.485 297.419C270.292 297.926 270.312 298.582 271.35 298.904C271.442 298.933 271.544 298.922 271.637 298.901C272.255 298.767 272.694 298.397 272.616 297.994C272.555 297.685 272.005 296.818 271.158 296.954ZM260.684 261.727C257.825 262.855 258.176 263.073 258.886 265.411C260.85 271.867 264.72 277.02 269.666 281.432C270.197 281.906 270.86 282.23 271.462 282.623C272.415 283.039 272.67 283.058 272.79 282.906C270.654 279.619 267.345 275.708 265.472 272.275C263.63 268.899 262.263 265.26 260.684 261.727ZM267.07 259.619C265.698 260.034 264.079 260.484 262.926 260.832C264.798 267.631 271.003 277.57 274.672 281.855C272.148 273.994 270.048 267.947 267.07 259.619ZM292.665 257.912C291.295 265.028 289.333 274.441 287.952 281.615C288.154 281.702 288.94 280.706 289.228 280.026C289.673 279.362 290.191 278.561 290.537 277.847C292.509 273.772 293.925 269.507 294.573 265.01C294.806 263.402 294.973 261.777 295.036 260.154C295.087 258.86 294.476 257.96 292.665 257.912ZM288.706 257.327C288.256 257.327 287.867 257.649 287.78 258.093C287.201 261.041 286.71 263.908 286.01 266.722C285.178 270.071 285.256 273.402 285.762 276.754C285.847 277.312 286.312 279.492 286.444 280.728C286.831 279.358 287.401 276.657 287.566 275.828C288.164 272.816 288.799 269.744 289.365 266.7C289.658 265.126 289.935 263.548 290.184 261.966C290.305 261.192 290.42 260.416 290.527 259.64C290.62 258.968 290.848 258.23 290.875 257.635L288.706 257.327Z" fill="black"/>
<path fill-rule="evenodd" clip-rule="evenodd" d="M285.595 228.102C286.181 228.566 286.539 229.306 287.074 229.851C289.316 232.132 291.102 232.253 293.645 230.333C294.256 229.873 294.785 229.245 295.462 228.955C295.853 228.786 296.554 229.02 296.939 229.309C297.115 229.443 297.027 230.287 296.783 230.569C295.114 232.504 293.169 234.003 291.097 234.062C288.004 234.013 284.431 231.538 283.751 229.293C283.618 228.854 283.792 228.02 284.103 227.829C284.438 227.624 285.224 227.809 285.595 228.102ZM294.626 215.485C295.233 217.895 295.848 220.306 296.367 222.736C296.875 225.117 296.163 225.927 293.73 225.811C292.687 225.761 291.634 225.633 290.621 225.391C290.286 225.31 289.839 224.752 289.848 224.423C289.857 224.074 290.297 223.511 290.635 223.436C291.631 223.217 292.67 223.193 293.968 223.065C293.393 220.62 292.809 218.339 292.338 216.033C292.146 215.097 291.426 213.715 292.893 213.366C294.326 213.025 294.381 214.507 294.626 215.485ZM285.815 219.511C286.404 221.409 285.447 223.542 283.822 223.956C282.682 224.246 281.721 223.589 281.31 222.239C280.754 220.417 281.669 218.101 283.138 217.612C284.263 217.237 285.348 218.006 285.815 219.511ZM301.836 217.741C303.154 217.752 304.289 219.226 304.209 220.825C304.124 222.53 302.958 223.826 301.63 223.693C300.367 223.566 299.605 222.378 299.674 220.645C299.743 218.904 300.616 217.731 301.836 217.741Z" fill="black"/>
</g>
</g>
<rect x="1" y="1" width="600" height="508" rx="31" stroke="#CFCFCF" stroke-width="2"/>
<defs>
<clipPath id="clip0_2061_11818">
<rect x="2" y="2" width="598" height="506" rx="30" fill="white"/>
</clipPath>
<clipPath id="clip1_2061_11818">
<rect width="800" height="800" fill="white" transform="translate(-99 -145)"/>
</clipPath>
<clipPath id="clip2_2061_11818">
<rect width="555" height="450" fill="white" transform="translate(16 52)"/>
</clipPath>
</defs>
</svg>
