<svg width="42" height="43" viewBox="0 0 42 43" fill="none" xmlns="http://www.w3.org/2000/svg">
<path d="M20.999 25.6298L36.2792 17.9594L20.999 10.2891L5.71884 17.9594L20.999 25.6298ZM6.62449 22.7017C7.04068 22.4942 7.54442 22.6628 7.75251 23.0792C7.95918 23.4957 7.79126 24.0029 7.37652 24.2118L5.72035 25.0447L21.0005 32.715L36.2807 25.0447L34.6245 24.2118C34.2098 24.0029 34.0418 23.4971 34.2485 23.0792C34.4552 22.6613 34.9604 22.4942 35.3765 22.7017L38.5339 24.2868C38.6918 24.366 38.8267 24.4943 38.9113 24.6657C39.118 25.0822 38.9515 25.5894 38.5353 25.7969L21.3811 34.4083C21.1514 34.525 20.873 34.5351 20.6247 34.4111L3.46753 25.7983C3.30966 25.7191 3.17475 25.5908 3.0901 25.4193C2.88344 25.0029 3.04991 24.4957 3.46609 24.2882L6.62632 22.7017L6.62449 22.7017ZM38.5339 18.7133L21.3796 27.3246C21.15 27.4413 20.8716 27.4514 20.6233 27.3275L3.46609 18.7147C3.30823 18.6354 3.17332 18.5072 3.08866 18.3357C2.882 17.9193 3.04848 17.412 3.46466 17.2031L20.6189 8.59175C20.8486 8.47503 21.127 8.46494 21.3753 8.58887L38.5325 17.2017C38.6903 17.281 38.8252 17.4092 38.9099 17.5807C39.1166 17.9985 38.9501 18.5043 38.5339 18.7133Z" fill="black"/>
</svg>
