<svg width="260" height="607" viewBox="0 0 260 607" fill="none" xmlns="http://www.w3.org/2000/svg">
<g filter="url(#filter0_d_2495_9213)">
<path d="M248.494 170.673C247.665 172.692 247.191 174.977 245.924 176.667C244.216 178.95 243.318 181.533 242.189 184.04C241.48 185.618 241.817 187.219 242.489 188.772C243.683 191.536 244.898 194.298 245.986 197.107C247.607 201.291 247.364 205.417 245.184 209.355C243.373 212.626 241.472 215.845 239.61 219.085C239.47 219.332 239.371 219.657 239.156 219.793C236.283 221.665 236.243 224.789 235.929 227.639C235.427 232.216 233.353 236.038 230.477 239.353C228.754 241.338 226.315 242.696 223.791 244.646C225.134 248.173 226.557 251.968 228.024 255.742C229.235 258.862 230.231 262.095 229.662 265.421C229.184 268.219 227.414 270.505 225.497 272.612C222.682 275.708 219.912 278.846 217.159 281.997C216.903 282.291 216.807 282.798 216.786 283.215C216.732 284.18 216.667 285.165 216.786 286.12C217.261 289.9 215.046 292.316 212.495 294.451C209.305 297.119 205.255 297.841 201.404 298.967C199.817 299.429 198.211 299.819 196.641 300.325C189.371 302.662 182.152 305.163 174.834 307.322C170.72 308.536 166.428 309.203 162.225 307.496C161.321 307.13 160.52 306.401 159.806 305.7C159.223 305.126 158.889 304.595 157.862 304.999C152.287 307.192 146.624 309.169 141.09 311.462C137.037 313.141 133.142 315.204 129.167 317.079C126.22 318.469 123.698 320.491 121.774 323.036C120.979 324.086 121.137 325.872 120.908 327.333C120.676 328.832 120.15 330.108 118.687 330.806C117.715 331.271 117.151 331.09 116.773 329.968C113.768 321.048 110.574 312.191 107.783 303.202C107.173 301.235 106.228 300.452 104.58 300.01C102.728 299.514 101.574 298.303 101.145 296.521C100.479 293.78 100.022 290.988 99.3873 288.241C99.1349 287.143 98.8654 286.356 97.3441 285.784C94.7578 284.816 92.3904 283.047 90.2038 281.279C86.8707 278.582 84.3837 275.117 82.357 271.333C81.6713 270.053 81.5384 268.818 81.9474 267.333C82.9026 263.864 83.9091 260.364 84.3358 256.806C85.3081 248.69 86.5257 240.664 89.8147 233.229C85.1752 229.681 80.6549 226.225 76.1306 222.767C75.9537 222.63 75.8032 222.438 75.6086 222.346C71.6273 220.433 72.0644 218.394 72.6035 214.504C72.9684 211.849 73.0742 211.623 70.8739 210.361C70.0173 209.872 69.1988 209.318 68.3527 208.811C67.1037 208.062 65.9335 207.532 64.2925 207.497C61.5018 207.439 59.0115 206.013 56.9307 204.062C55.6239 202.837 54.3958 201.52 53.0586 200.329C50.3158 197.901 49.2581 194.804 49.2344 191.232C49.2305 190.678 48.9064 190.127 48.5961 189.156C48.7664 187.831 49.0701 185.94 49.241 184.037C49.4218 182.029 49.241 179.952 49.6946 178.019C49.9234 177.04 51.2027 176.305 52.2599 175.193C52.1067 174.598 51.8371 173.551 51.6734 172.918C50.1725 172.593 48.8044 172.514 47.6612 171.966C47.0538 171.676 46.4982 170.554 46.5285 169.832C46.5693 168.867 47.0031 167.755 47.6342 167.019C48.3502 166.181 49.1214 165.548 48.9477 164.296C48.8932 163.902 49.0977 163.423 49.3022 163.051C50.1246 161.555 51.0285 160.105 51.8338 158.599C52.9968 156.423 53.9488 155.947 56.0472 157.193C57.5481 158.083 58.8925 158.069 60.4716 157.703C62.0889 157.327 63.7706 157.251 65.4082 156.964C65.9202 156.875 66.5034 156.653 66.8551 156.297C68.9017 154.23 71.4978 154.268 73.8382 155.031C76.2469 155.814 78.3961 154.678 80.6885 154.887C82.0092 155.007 83.4009 154.555 84.7348 154.254C86.3146 153.895 89.9001 155.031 90.5378 156.18C92.8578 155.831 92.5574 153.806 92.8815 152.294C93.3661 150.029 93.629 147.716 93.963 145.424C94.0209 145.02 94.1372 144.438 93.9288 144.213C92.3155 142.464 92.6737 140.545 93.5843 138.752C94.8603 136.238 96.4092 133.86 97.7806 131.389C98.6267 129.864 99.3399 128.259 100.152 126.712C100.64 125.785 101.315 124.947 101.704 123.985C101.977 123.308 102.049 122.473 101.953 121.744C101.793 120.509 101.319 119.308 101.179 118.073C100.95 116.048 102.356 113.821 104.208 112.839C106.047 111.86 107.913 110.902 109.636 109.739C110.649 109.055 111.471 108.042 112.246 107.074C112.426 106.848 112.177 106.123 111.945 105.739C109.51 101.713 107.04 97.7267 105.439 93.2343C105.061 92.1702 103.676 91.3664 102.608 90.6683C101.056 89.6523 100.162 88.3798 100.448 86.5048C100.909 83.4872 100.087 81.1743 97.3815 79.4602C94.9011 77.8864 94.9254 75.0053 94.2805 72.4769C93.3561 68.8402 93.5981 64.8337 90.7291 61.7685C90.1322 61.1317 90.3742 59.7188 90.2 58.6719C89.9172 56.9853 89.4768 55.3122 89.3814 53.6186C89.344 52.9788 90.1493 51.6924 90.4458 51.7266C92.687 51.997 93.7447 50.0981 95.0582 49.0785C98.6129 46.3243 102.622 44.5658 106.767 43.2007C114.699 40.5867 122.695 38.1473 130.75 35.9577C136.191 34.4762 141.78 33.5456 147.303 32.3584C147.388 32.3413 147.446 32.201 147.518 32.1189C148.542 32.1189 149.565 32.1189 150.588 32.1189C153.638 32.769 155.314 34.8355 156.248 37.6581C156.422 38.1815 156.542 38.729 156.777 39.2216C157.684 41.1273 158.408 43.1801 160.584 44.1073C160.823 44.21 161.096 44.4905 161.147 44.7334C161.648 47.0941 159.547 51.5043 157.555 52.5067C158.063 55.302 158.565 58.0632 159.069 60.8277C159.653 60.6292 160.093 60.5402 160.475 60.3418C161.826 59.6298 162.505 59.9963 162.512 61.5562C162.512 62.2063 162.379 62.8801 162.188 63.5098C161.71 65.0769 161.13 66.6131 160.66 68.1802C159.8 71.0574 159.442 73.8285 161.277 76.6134C162.56 78.5636 163.382 80.815 164.306 82.7171C170.938 80.5243 176.489 82.4369 181.89 85.7347C183.125 84.2605 184.895 83.4667 186.812 83.8426C189.548 84.3799 192.203 85.3345 194.904 86.0631C197.716 86.8226 200.523 87.6164 203.369 88.2189C205.996 88.7767 208.067 89.8883 209.636 92.2183C211.28 94.661 213.355 96.8096 215.176 99.133C216.861 101.285 218.492 103.488 220.082 105.712C220.383 106.129 220.587 106.8 220.492 107.286C220.017 109.677 219.431 112.049 218.847 114.57C218.874 114.584 219.281 114.751 219.649 114.977C223.988 117.639 228.191 120.458 229.651 125.768C230.136 127.53 230.532 129.162 232.869 128.995C233.026 128.984 233.234 129.231 233.363 129.401C234.431 130.77 236.256 131.434 236.765 133.37C236.99 134.226 237.655 135.125 238.379 135.659C241.817 138.204 243.912 141.739 245.635 145.502C246.457 147.299 247.45 149.215 246.136 151.322C245.103 152.975 245.665 154.703 246.089 156.451C246.573 158.442 246.713 160.518 247.166 162.517C247.457 163.793 248.047 165.004 248.5 166.242C248.5 167.724 248.5 169.209 248.5 170.691L248.494 170.673Z" fill="white"/>
<path d="M12.7539 553.18C13.6987 550.07 15.7932 547.963 18.8843 547.319C20.7843 546.922 22.934 547.052 24.8444 547.494C29.7738 548.633 34.6695 548.616 39.589 547.713C46.7022 546.409 53.4163 543.905 59.0149 539.317C64.5957 534.742 69.7748 529.651 71.4841 522.117C71.6445 521.416 72.5038 520.886 72.9988 520.243C73.2236 519.952 73.367 519.589 73.5103 519.24C74.2709 517.407 74.9908 515.552 75.7961 513.735C76.0078 513.256 76.4818 512.894 76.8334 512.476C77.1675 512.863 77.5021 513.249 77.932 513.742C80.5381 512.726 82.7798 513.982 84.9526 515.59C86.4712 516.712 88.0983 517.69 89.5722 518.867C91.6155 520.503 93.7067 522.125 95.464 524.044C96.0813 524.718 96.1766 526.384 95.8288 527.356C94.372 531.451 92.7449 535.492 91.0119 539.481C89.968 541.886 90.3466 543.357 93.3143 545.581C92.2946 549.283 91.1889 553.095 90.2033 556.94C89.0739 561.351 87.9109 565.762 87.0234 570.228C86.0004 575.358 82.7897 579.377 80.4973 583.86C80.1665 584.507 79.2449 584.855 78.5967 585.341H76.2089C75.7994 585.115 75.407 584.728 74.9776 584.689C73.1316 584.507 71.2757 584.346 69.4231 584.335C65.858 584.308 62.3954 583.954 59.0149 582.622C54.8765 580.991 50.6868 579.416 46.409 578.222C42.4789 577.127 38.7534 575.839 35.4131 573.396C31.2411 570.339 27.3243 566.901 22.5244 564.734C20.2695 563.717 18.2124 562.213 16.1548 560.798C14.1253 559.4 13.2142 557.255 12.7539 554.894V553.184V553.18Z" fill="white"/>
<path d="M216.287 504.987C217.123 505.692 217.72 506.157 218.27 506.677C218.498 506.892 218.703 507.197 218.792 507.498C220.118 512.028 221.421 516.561 222.759 521.197C224.031 520.674 224.885 520.325 225.676 520C228.982 522.894 229.36 527.054 230.663 530.681C232.806 536.651 234.386 542.823 236.228 548.903C236.511 549.837 236.838 550.782 237.313 551.626C238.012 552.879 237.402 553.645 236.531 554.386C236.32 554.568 236.078 554.712 235.846 554.872C231.39 557.924 226.996 561.069 222.465 563.999C218.839 566.342 215.039 568.421 211.32 570.621C208.444 572.323 205.718 574.385 202.669 575.662C199.059 577.182 195.187 578.089 191.4 579.15C189.336 579.731 187.19 580.516 185.109 580.444C179.818 580.261 174.4 581.019 169.3 578.791C168.006 578.227 166.41 578.216 165.281 577.453C162.958 575.889 162.562 572.395 164.107 569.869C164.271 569.604 164.274 569.233 164.581 569.355C165.646 568.869 166.853 568.565 167.744 567.863C170.702 565.53 173.571 563.076 176.433 560.627C179.886 557.669 183.512 554.872 186.661 551.62C189.07 549.129 191.025 546.132 192.843 543.156C193.614 541.893 193.686 540.11 193.784 538.547C193.948 535.936 193.986 533.302 193.849 530.692C193.788 529.504 193.614 528.385 194.607 527.588C195.296 527.034 196.125 526.61 196.954 526.291C197.896 525.929 198.943 525.833 199.861 525.433C200.168 525.299 200.372 524.571 200.335 524.139C200.311 523.869 199.738 523.657 199.42 523.407C199.069 523.13 198.431 522.843 198.428 522.555C198.411 520.629 198.462 518.696 198.622 516.773C198.929 513.096 201.604 511.046 204.268 509.175C206.295 507.751 208.618 506.756 210.808 505.565C210.951 505.487 211.19 505.301 211.224 505.336C213.159 507.234 214.858 504.976 216.294 504.984L216.287 504.987Z" fill="white"/>
<path d="M141.121 422.789C138.863 420.51 137.85 417.636 137.662 414.633C137.877 414.102 138.195 413.586 138.287 413.034C138.706 410.592 139.057 408.139 139.484 405.381C140.371 405.942 140.838 406.236 141.241 406.49C141.841 404.772 142.186 402.781 143.161 401.173C146.355 395.914 147.529 389.841 150.169 384.371C151.018 382.612 151.376 380.6 152.325 378.91C153.352 377.083 154.805 375.499 156.126 373.734C157.916 374.356 158.009 374.616 157.412 376.751C155.337 384.203 152.994 391.593 149.446 398.449C147.713 401.795 146.249 405.176 144.987 408.686C144.929 408.843 144.874 409.093 144.765 409.127C142.466 409.832 143.202 412.135 142.404 413.623C141.851 414.653 141.125 415.676 140.92 416.781C140.719 417.869 141.06 419.063 141.204 420.202C141.306 421.013 141.473 421.817 141.613 422.625C141.446 422.679 141.279 422.734 141.115 422.789H141.121Z" fill="white"/>
<path d="M48.8789 137.264C48.7323 138.273 49.9874 139.108 48.0973 139.683C46.3952 140.199 46.5589 139.187 46.1152 138.297C47.0231 137.958 47.835 137.654 48.8789 137.264Z" fill="white"/>
<path d="M63.66 153.577C62.4319 155.39 60.129 154.644 58.6214 155.787C58.5393 155.606 58.461 155.421 58.3789 155.239C60.0645 154.514 61.7534 153.789 63.4384 153.06C63.5133 153.231 63.585 153.406 63.66 153.577Z" fill="white"/>
<path d="M73.6356 150.651H79.9264C79.9198 150.792 79.9132 150.935 79.9061 151.076C77.8049 151.226 75.7098 151.212 73.6152 151.107C73.6218 150.956 73.629 150.802 73.6356 150.651Z" fill="white"/>
<path d="M58.2954 155.825C58.2171 155.955 58.135 156.088 58.0567 156.218C57.9751 156.125 57.8147 156.023 57.8247 155.941C57.8384 155.825 57.9784 155.725 58.0633 155.616C58.135 155.681 58.2066 155.742 58.2954 155.825Z" fill="white"/>
<path d="M157.642 69.8225C158.168 71.0231 157.093 71.598 156.489 72.0972C156.032 72.4775 154.934 72.5079 154.354 72.2205C153.293 71.697 152.593 70.8418 152.071 69.5655C151.055 67.0852 151.911 65.1112 153.064 63.161C153.5 62.4252 154.309 61.642 155.49 62.6817C155.865 63.0139 156.956 62.5281 157.823 62.4015C156.025 58.8123 154.412 58.5282 151.85 61.1356C151.024 61.9736 150.342 62.9554 149.543 63.821C149.253 64.1361 148.813 64.3102 148.441 64.5501C148.254 64.0709 147.834 63.5441 147.92 63.1201C148.799 58.5934 152.699 55.8803 156.517 57.5741C156.66 57.6354 156.824 57.6559 157.025 57.7073V52.6916C156.557 53.0474 156.179 53.3895 155.752 53.6496C153.988 54.7273 151.901 53.5708 151.631 51.4735C151.225 48.3293 151.669 45.5923 154.688 43.8303C156.018 43.0536 155.432 41.3122 154.944 41.0521C153.477 40.2755 154.224 39.0746 153.91 38.0072C144.702 40.9085 135.208 43.1494 128.054 50.3719C127.542 50.8885 126.89 51.2683 126.42 51.8157C125.314 53.1021 123.895 54.3201 125.181 56.3591C122.234 56.1471 122.254 53.3827 120.975 52.281C117.543 52.9892 114.271 53.7214 110.976 54.3304C107.864 54.9086 104.739 55.3979 101.607 55.8529C96.8924 56.537 92.1604 57.249 87.4047 56.332C86.9069 56.2361 86.4119 55.3842 86.1837 54.782C85.3443 52.5684 84.604 50.3206 83.8638 48.0693C83.7271 47.6485 83.608 47.1182 83.7441 46.7316C84.3753 44.9798 83.1472 43.9021 82.4411 42.5849C81.2775 40.4055 79.3946 38.5306 79.6024 35.7388C79.7458 33.7852 79.9541 33.4773 81.8238 33.4705C85.5796 33.4602 85.6276 33.4705 86.7702 29.6967C87.1048 28.595 87.0976 27.3907 87.3126 25.7416C88.6504 24.9445 90.547 23.8189 92.6449 22.5734C92.56 21.6394 92.3858 20.5104 92.3825 19.3779C92.3792 18.5226 92.3313 17.4346 92.8053 16.8975C93.1162 16.5484 94.3575 16.8906 95.1253 17.1164C96.118 17.4072 97.0357 17.9786 98.0318 18.242C98.4209 18.3447 99.3045 17.9923 99.3453 17.7459C99.6556 15.8436 101.191 15.3852 102.597 14.7557C103.2 14.4854 103.801 14.092 104.432 14.0235C106.22 13.8319 106.789 12.7165 106.926 11.1325C107.004 10.2395 107.103 9.10706 108.297 9.25073C109.27 9.36703 110.72 9.07284 110.75 10.9819C110.764 11.6833 111.423 12.6139 112.732 11.9741C113.896 11.4062 115.274 11.3069 116.512 10.869C117.031 10.6843 117.454 10.1882 117.863 9.77763C118.133 9.50732 118.324 9.1515 118.512 8.81281C119.515 7.00634 120.919 6.23538 122.725 6.49996C123.192 7.46818 123.353 8.37142 123.885 8.78545C125.321 9.89736 123.878 10.9272 124.001 12.2341C124.871 12.3916 125.802 12.5592 126.717 12.72C127.242 11.4678 127.621 10.3661 128.149 9.34652C128.64 8.39884 129.296 7.53662 129.876 6.6368C130.08 6.6813 130.288 6.72237 130.493 6.76682C130.585 7.61533 130.681 8.46722 130.786 9.4526C131.615 9.28494 132.799 8.67937 133.779 8.91884C136.436 9.57233 138.087 8.58015 139.285 6.33574C139.465 6.00045 139.759 5.72674 140.001 5.42224C140.571 5.42224 141.137 5.42224 141.707 5.42224C142.171 7.3998 142.631 9.37731 143.14 11.5499C144.518 12.0905 146.234 12.7645 147.51 13.2674C148.475 12.9868 149.141 12.6071 149.768 12.6618C150.488 12.7234 151.174 13.1716 151.948 13.483C151.948 14.1159 151.635 15.1696 152.003 15.5392C153.566 17.1027 152.535 18.6937 152.303 20.2675C154.934 21.4376 157.144 23.9489 158.454 26.8809C158.639 27.2915 158.513 27.9107 158.365 28.3829C158.181 28.968 157.666 29.4709 157.567 30.0594C157.223 32.1053 156.715 34.1821 156.803 36.228C156.885 38.1338 156.657 40.5629 159.553 41.0795C160.017 41.1616 160.47 41.7159 160.791 42.1538C163.053 45.257 163.411 49.5679 160.04 52.6642C159.795 52.89 159.7 53.2766 159.502 53.6496C160.007 53.6906 160.378 53.7248 161.197 53.7933C160.682 54.7205 160.457 55.6579 159.864 56.0958C158.376 57.2043 158.307 57.1153 158.543 58.5215C159.174 58.118 159.962 57.2181 160.682 57.2662C161.443 57.317 162.562 58.1451 162.784 58.8604C163.22 60.2799 163.483 61.9255 163.197 63.3522C162.773 65.4534 161.842 67.4478 162.159 69.6821C162.2 69.9729 161.938 70.2979 161.863 70.6157C161.593 71.7727 160.877 73.0795 161.18 74.0684C162.005 76.7676 163.268 79.3369 164.254 81.7117C166.516 81.239 168.928 80.6885 171.357 80.2435C174.27 79.71 177.126 79.888 179.865 81.1539C180.473 81.4342 181.131 81.7183 181.786 81.7763C184.962 82.0571 188.176 82.0605 191.318 82.543C195.586 83.1964 199.659 84.5922 203.572 86.491C206.578 87.9486 209.703 89.2079 211.763 91.9856C212.599 93.1149 213.534 93.5289 214.878 93.765C216.891 94.1204 218.723 95.0237 220.04 96.7654C220.395 97.2342 221.022 97.5349 221.578 97.8091C223.885 98.955 225.222 99.9097 224.973 102.746C224.775 104.99 224.861 107.262 224.574 109.489C224.332 111.374 223.731 113.208 223.315 115.073C223.257 115.329 223.236 115.751 223.384 115.867C225.045 117.222 226.74 118.532 228.425 119.856C228.548 119.747 228.675 119.634 228.797 119.524C229.009 120.558 229.251 121.584 229.429 122.624C229.701 124.215 229.701 125.902 230.278 127.366C230.548 128.047 231.906 128.286 232.765 128.741C233.106 128.923 233.441 129.121 233.754 129.343C238.033 132.389 241.434 136.224 244.153 140.72C246.725 144.969 248.291 149.563 249.185 154.422C249.492 156.088 249.86 157.741 250.202 159.397V168.634C249.86 170.451 249.574 172.278 249.168 174.081C248.018 179.162 246.456 184.065 242.932 187.804C244.242 191.79 245.736 195.594 246.694 199.532C247.203 201.626 247.23 204.062 246.684 206.136C245.93 208.999 244.433 211.668 243.184 214.586C243.928 214.183 244.566 213.775 245.255 213.481C245.6 213.334 246.275 213.235 246.377 213.392C246.616 213.758 246.821 214.422 246.64 214.733C246.197 215.503 245.62 216.252 244.934 216.81C243.211 218.206 241.379 219.469 239.64 220.84C239.216 221.176 238.719 221.723 238.688 222.199C238.326 227.765 237.838 233.339 238.906 238.895C238.985 239.312 238.811 240.048 238.513 240.216C237.596 240.739 236.538 241.009 235.576 241.468C232.008 243.161 228.456 244.889 225.099 246.507C226.488 250.316 227.661 253.898 229.095 257.377C230.954 261.9 230.486 266.615 230.292 271.254C230.231 272.756 228.855 274.296 227.836 275.633C227.017 276.708 225.812 277.485 224.81 278.425C224.236 278.963 223.827 279.797 223.165 280.085C221.19 280.947 219.129 281.604 217.372 282.243C217.979 286.797 218.56 291.129 219.139 295.456L218.454 295.806C217.761 295.32 217.069 294.831 216.632 294.526C213.585 296.408 210.621 298.481 207.445 300.144C201.335 303.346 194.675 304.985 188.002 306.545C187.599 306.641 187.115 307.079 186.965 307.473C185.372 311.605 183.809 315.749 182.301 319.912C181.857 321.144 181.295 322.465 181.349 323.721C181.544 328.336 182.178 332.938 182.264 337.549C182.424 346.127 182.226 354.711 182.335 363.292C182.468 373.672 182.694 384.052 183.031 394.426C183.151 398.128 183.591 401.833 184.116 405.505C184.498 408.173 184.669 410.667 182.41 412.768C183.13 413.203 183.741 413.589 184.372 413.942C185.191 414.4 186.054 414.783 186.852 415.276C188.835 416.504 190.209 417.992 191.141 420.391C192.894 424.893 195.862 428.927 197.561 433.443C201.266 443.286 204.419 453.335 207.929 463.253C211.051 472.07 214.312 480.839 217.597 489.598C219.3 494.138 221.2 498.6 222.967 503.115C223.175 503.646 223.346 504.47 223.087 504.85C222.029 506.396 220.797 507.823 219.358 509.64C219.975 511.717 220.722 514.338 221.582 516.924C221.681 517.218 222.592 517.577 222.841 517.427C224.796 516.254 224.823 516.226 226.055 518.169C226.502 518.874 227.02 519.555 227.331 520.318C229.115 524.704 231.032 529.049 232.547 533.528C234.785 540.131 237.016 546.769 237.818 553.748C237.907 554.507 237.105 555.37 236.715 556.182C236.105 555.795 235.495 555.408 234.884 555.016C234.635 554.861 234.386 554.701 234.136 554.541L234.195 554.601C234.106 554.17 234.106 553.697 233.915 553.317C233.482 552.445 232.816 551.671 232.489 550.768C230.848 546.225 229.285 541.65 227.696 537.086C225.983 532.173 224.274 527.26 222.524 522.241C220.715 524.711 219.02 527.027 217.266 529.422C216.724 529.351 215.922 529.248 215.121 529.142L215.448 528.738C214.871 528.071 214.373 527.315 213.705 526.764C212.678 525.919 211.579 525.135 210.423 524.488C209.785 524.133 208.888 523.818 208.236 523.986C204.961 524.824 201.726 525.833 198.479 526.771C197.721 526.99 196.323 525.915 196.691 525.409C197.633 524.122 196.712 522.829 196.947 521.55C197.176 520.308 196.347 519.815 195.221 520.041C193.645 520.356 192.099 520.821 190.53 521.177C185.972 522.22 181.363 522.795 176.713 522.018C175.116 521.752 173.585 521.05 172.046 520.492C170.903 520.078 170.695 518.166 169.006 518.535C168.948 518.549 168.614 517.971 168.693 517.844C169.047 517.27 169.505 516.757 169.979 516.157C169 513.992 167.696 511.532 166.755 508.942C163.473 499.906 160.18 490.871 157.148 481.753C154.152 472.751 151.505 463.636 148.639 454.591C144.951 442.944 141.188 431.322 137.494 419.676C137.327 419.152 137.364 418.454 137.562 417.938C138.602 415.228 139.718 412.549 140.82 409.863C142.597 405.535 144.381 401.207 146.162 396.882C147.462 393.882 148.759 390.878 150.058 387.878C149.912 387.816 149.762 387.751 149.615 387.69C148.359 390.632 147.101 393.571 145.845 396.513C142.188 405.135 138.53 413.753 134.88 422.375C134.44 423.415 133.509 424.592 133.714 425.502C135.116 431.815 135.334 438.226 135.549 444.635C135.692 448.918 135.955 453.249 134.658 457.43C133.038 462.661 131.336 467.869 129.626 473.073C128.818 475.536 127.617 477.904 127.095 480.421C126.065 485.4 125.669 490.518 124.485 495.451C122.974 501.757 122.462 508.145 121.937 514.557C121.503 519.812 121.179 525.088 120.494 530.312C120.077 533.477 119.385 536.672 117.396 539.354C116.679 540.323 115.977 541.304 114.977 542.68H119.689C117.526 544.709 115.069 543.587 112.989 544.038C112.661 545.058 112.695 546.68 111.129 546.136C105.582 544.199 100.082 542.112 94.6237 539.936C93.5014 539.488 93.082 539.368 92.3175 540.507C91.5667 541.629 92.113 542.091 92.7645 542.584C95.0641 544.322 95.8727 546.416 95.0228 549.297C94.003 552.756 93.3135 556.315 92.4029 559.809C91.731 562.373 91.0381 564.944 90.1546 567.448C88.8444 571.157 87.4868 574.866 85.8971 578.465C84.986 580.532 83.2839 582.262 82.4891 584.357C81.8271 586.11 80.8443 586.983 79.1968 587.459C78.2856 587.724 77.1667 587.895 76.5934 588.525C75.6625 589.554 74.9184 589.426 73.8099 588.99C72.6568 588.531 71.4012 588.277 70.1665 588.111C66.5771 587.635 62.9337 587.475 59.3928 586.779C50.9589 585.12 43.0988 581.715 35.5182 577.813C29.299 574.612 23.2639 570.98 17.4405 567.1C14.4894 565.132 11.9241 562.407 10.8118 558.709C10.6409 558.139 9.84279 557.763 9.33789 557.299C9.33789 556.73 9.33789 556.16 9.33789 555.591C11.1017 552.859 12.8077 550.087 14.6636 547.422C15.1784 546.68 16.062 546.057 16.9081 545.722C17.8633 545.342 18.6173 545.923 19.0235 546.908C19.0781 547.039 19.5455 547.042 19.8184 547.028C24.4617 546.816 29.1044 546.628 33.7444 546.358C36.3675 546.204 39.032 546.153 41.5874 545.619C44.0441 545.106 46.4594 544.199 48.7585 543.173C54.8724 540.439 60.3612 536.751 64.9328 531.793C65.2603 531.437 65.6014 530.842 65.5331 530.425C65.2569 528.724 65.6935 527.804 67.2595 527.195C69.5591 526.299 71.6602 527.024 73.5674 528.197C76.5664 530.045 79.1488 532.32 80.0836 535.977C80.1724 536.323 80.8818 536.751 81.2913 536.737C84.6691 536.638 87.4217 538.099 90.0046 540.039C90.9907 536.857 91.9835 533.651 93.1123 530.004C87.3881 526.117 81.3701 522.032 75.3351 517.933C74.3628 520.222 73.4687 522.467 72.4622 524.66C71.6266 526.476 70.7634 526.641 69.2862 525.546C69.5354 523.952 69.7332 522.429 70.0193 520.927C70.2993 519.449 70.6714 517.988 71.0021 516.52C71.0396 516.356 71.152 516.14 71.0908 516.031C69.7195 513.605 71.5549 511.621 72.2269 509.653C76.5527 496.97 80.1349 484.089 83.0143 471.013C85.2798 460.725 87.3605 450.4 89.5372 440.091C89.7076 439.28 89.9159 438.466 90.2058 437.692C91.4168 434.479 90.1651 431.404 89.3598 428.465C87.8963 423.145 88.2474 417.969 89.7318 412.84C92.5358 403.167 95.4869 393.533 98.4892 383.919C100.73 376.737 103.289 369.655 105.445 362.45C107.99 353.945 110.184 345.333 112.674 336.81C114.298 331.251 116.165 325.763 117.942 320.251C118.999 316.973 120.098 313.713 121.159 310.436C121.258 310.124 121.214 309.768 120.896 309.317C118.744 314.846 116.587 320.375 114.302 326.242C111.525 319.05 108.901 312.201 106.196 305.385C105.981 304.845 105.237 304.387 104.637 304.16C103.415 303.699 102.126 303.408 100.857 303.069C99.3624 302.665 99.0658 301.615 99.0145 300.195C98.9087 297.28 98.5846 294.372 98.4143 291.457C98.3322 290.058 98.4005 288.652 98.4005 286.986C97.2777 286.469 95.8347 285.829 94.4087 285.145C93.3003 284.611 92.0479 284.139 92.8124 282.162C93.5455 282.309 94.5046 282.322 95.2824 282.702C96.5138 283.301 97.6327 284.142 98.7891 284.892C100.802 286.195 101.055 288.402 101.419 290.451C101.843 292.826 101.989 295.248 102.245 297.54C105.322 298.45 108.427 299.371 112.029 300.435C112.029 297.989 112.16 295.628 111.996 293.284C111.798 290.424 111.133 287.588 111.054 284.728C110.733 273.074 110.371 261.414 110.406 249.758C110.423 243.757 111.242 237.762 111.688 231.762C111.927 228.563 112.139 225.356 112.384 222.158C112.596 219.386 112.756 216.605 113.115 213.851C113.203 213.17 113.889 212.174 114.469 212.041C115.472 211.808 116.301 212.184 116.526 213.653C117.372 219.164 117.369 224.666 116.854 230.191C116.696 231.874 116.635 233.568 116.468 235.248C115.458 245.362 115.38 255.506 115.383 265.657C115.383 268.879 115.404 272.103 115.417 275.325C115.417 276.016 115.513 276.721 115.424 277.402C115.192 279.147 116.318 279.151 117.508 279.151C122.452 279.144 127.395 279.188 132.339 279.13C136.637 279.079 140.936 278.983 145.231 278.785C148.943 278.613 152.644 278.268 156.421 277.994C155.811 275.137 155.111 272.298 154.613 269.424C153.879 265.198 153.173 260.959 152.665 256.7C152.085 251.838 151.638 246.956 151.32 242.066C151.119 238.953 151.242 235.816 151.242 232.692C151.242 228.997 151.191 225.298 151.311 221.607C151.348 220.468 151.013 218.928 152.986 218.384C150.192 215.332 147.479 212.328 144.716 209.365C142.812 207.323 140.386 206.29 137.654 205.913C137.497 205.893 137.354 205.773 137.204 205.701C134.345 204.377 131.359 203.864 128.211 204.186C127.457 204.264 126.662 204.011 125.891 203.867C122.773 203.286 120.746 205.037 118.761 207.06C118.235 207.593 117.287 207.785 116.492 207.959C110.215 209.348 103.951 210.792 97.6399 212.007C94.9511 212.523 92.1709 212.609 89.4248 212.745C85.6375 212.937 81.8442 212.999 78.0536 213.101C77.4467 213.119 76.8327 213.053 76.0582 213.016C75.065 215.141 74.0215 217.371 72.998 219.561C79.4834 222.144 84.4673 226.725 89.9501 230.564C91.1473 226.927 90.8744 222.787 93.9209 219.65C95.2686 221.891 94.5388 223.917 94.105 225.788C93.324 229.165 92.065 232.432 91.2597 235.806C90.1105 240.63 89.271 245.529 88.1521 250.36C86.8077 256.149 85.4567 261.945 83.8059 267.651C83.1334 269.964 84.1366 271.534 85.1569 273.167C86.7906 275.791 88.6537 278.271 90.3591 280.851C90.7173 281.395 90.8265 282.107 91.0486 282.743C90.8981 282.853 90.7482 282.965 90.5983 283.075C89.3564 282.182 87.9062 281.473 86.9135 280.355C84.6961 277.85 82.5844 275.23 80.6536 272.496C78.6985 269.728 78.7602 266.704 79.7083 263.443C81.2434 258.171 82.3044 252.762 83.7513 247.459C84.7506 243.791 86.0575 240.205 87.231 236.586C87.3468 236.226 87.4802 235.874 87.6367 235.429C80.7285 232.62 74.5331 228.693 68.5696 224.361C67.5973 223.656 67.287 221.559 68.0648 220.026C69.0575 218.076 70.1455 216.177 71.3361 213.991C69.9515 213.122 68.4572 212.188 66.9662 211.244C64.8 209.875 62.6542 208.476 60.4637 207.152C60.0784 206.919 59.5019 207.022 59.0207 206.94C56.4857 206.508 53.9579 205.975 52.2178 203.867C51.6176 203.139 51.3546 202.119 50.9693 201.219C50.6656 200.518 50.5427 199.697 50.1095 199.098C48.366 196.707 47.7658 194.041 48.4344 191.027C45.4904 189.275 44.8902 187.257 46.9847 183.907C48.2332 181.909 48.7072 179.877 48.8985 177.67C49.0247 176.206 49.7137 175.535 51.2697 175.798C50.8635 174.95 50.5124 174.211 50.1574 173.472C46.6231 174.687 44.5352 172.244 43.8837 170.112C43.1738 167.792 44.5214 166.273 47.7283 165.637C46.0736 163.04 47.8066 161.34 49.2667 159.516C49.6421 159.044 49.615 158.247 49.9904 157.778C50.6485 156.954 51.4775 156.266 52.4328 155.325C51.0305 151.162 49.4987 146.481 47.8479 141.838C47.537 140.966 46.6876 140.302 46.2103 139.474C45.6916 138.568 46.5002 136.327 47.4042 136.155C48.7414 135.905 49.4271 136.73 49.598 137.924C49.7242 138.807 49.6079 139.727 49.6046 140.631C49.6046 141.25 49.4513 141.92 49.6387 142.478C50.9523 146.385 52.3302 150.272 53.695 154.162C54.265 155.787 56.6395 156.383 57.9393 155.318C62.0159 151.982 66.7446 150.07 71.879 149.132C73.6291 148.814 75.4166 148.452 77.1805 148.479C81.9737 148.554 86.6512 149.331 91.4957 151.77C91.4957 148.955 91.7652 146.361 91.4306 143.853C90.9527 140.281 91.618 136.891 92.4608 133.514C92.6658 132.697 93.5218 131.848 94.3029 131.41C95.8964 130.517 97.0324 129.378 97.3973 127.568C97.6806 126.172 99.8298 125.351 98.5912 123.407C98.3972 123.099 99.1849 122.162 99.6115 121.331C98.4005 118.967 97.8818 116.287 99.5536 113.588C99.8265 113.147 100.239 112.729 100.686 112.473C103.555 110.82 106.452 109.216 109.45 107.536C106.223 103.625 103.825 99.646 102.89 94.8086C100.492 94.4184 99.5806 93.3272 99.4031 90.8021C99.2394 88.4721 98.9258 86.1521 98.6017 83.836C98.4584 82.8095 95.2791 80.2302 94.1497 79.9665C93.8289 79.8914 93.4298 79.4536 93.3548 79.118C92.2767 74.4106 91.1749 69.7059 90.2433 64.9675C89.766 62.5314 89.6122 60.0339 89.3118 57.5602C89.5301 57.4779 89.7489 57.3961 89.9705 57.3137C90.2775 57.673 90.7587 57.9881 90.8678 58.4016C92.0479 62.7912 93.2319 67.1808 94.2621 71.6047C94.5145 72.6925 94.9787 72.7578 95.8556 72.7097C97.3632 72.6245 98.8949 72.5831 100.57 74.0717C98.6083 74.4924 97.0528 74.824 95.1424 75.2314C95.6985 76.2165 96.2134 77.332 96.9128 78.3176C97.6531 79.3679 98.5708 80.2916 99.3998 81.2805C99.5398 81.4447 99.5878 81.7835 99.7377 81.8277C102.273 82.553 101.341 84.6126 101.481 86.2688C101.59 87.5584 101.365 89.0879 101.986 90.0663C102.583 91.0072 104.05 91.4212 105.182 91.9723C105.827 92.2868 106.564 92.4068 107.257 92.6152C106.704 93.1387 106.155 93.6588 105.606 94.1823C105.483 94.2984 105.367 94.425 105.142 94.6577C106.213 96.6455 107.298 98.6952 108.423 100.721C108.761 101.329 109.112 101.562 110.013 101.326C111.498 100.936 113.108 101.015 114.946 100.878C113.977 102.722 112.289 102.921 110.628 103.509C114.209 106.82 118.109 108.901 123.042 107.714C126.836 106.8 130.585 105.709 134.331 104.601C135.153 104.357 135.863 103.721 136.62 103.269C137.449 104.59 137.2 105.319 135.269 107.012C134.256 107.902 133.192 108.733 132.138 109.606C132.71 109.951 133.4 110.235 133.918 110.704C136.9 113.396 140.411 113.479 143.853 112.277C148.919 110.512 153.862 108.388 158.809 106.297C159.758 105.897 160.481 104.963 161.654 103.988C160.89 106.656 159.716 108.467 157.707 109.647C153.303 112.23 148.762 114.673 143.686 115.418C139.906 115.973 135.9 116.264 132.595 113.51C131.674 112.743 130.929 111.765 130.063 110.841C129.35 111.173 128.45 111.59 127.546 112.008L128.033 111.994C128.043 113.738 128.354 115.545 128.009 117.218C126.328 125.436 124.342 133.596 122.731 141.828C121.756 146.81 121.193 151.88 120.599 156.93C120.18 160.495 120.023 164.09 119.75 167.676C119.586 167.721 119.423 167.765 119.256 167.81C119.013 166.763 118.621 165.729 118.552 164.673C118.358 161.726 118.116 158.767 118.232 155.825C118.358 152.534 118.754 149.238 119.218 145.975C119.928 140.987 120.617 135.981 121.637 131.054C122.916 124.868 124.526 118.751 125.99 112.613C121.241 114.673 116.748 113.496 112.91 110.379C110.03 112.394 107.349 114.46 104.473 116.212C102.586 117.362 101.594 118.487 101.826 120.595C101.87 120.995 102.221 121.522 102.576 121.697C104.207 122.501 105.879 123.223 107.557 123.924C108.178 124.184 108.898 124.225 109.498 124.519C110.051 124.79 110.713 125.163 110.958 125.669C111.917 127.643 112.709 129.696 113.616 131.697C113.759 132.012 114.257 132.153 114.441 132.464C114.735 132.963 115.158 133.583 115.073 134.075C114.585 136.871 114.138 139.693 113.34 142.403C112.572 145.003 111.276 147.446 110.44 150.029C109.972 151.469 109.836 153.053 109.771 154.583C109.563 159.455 109.45 164.33 109.324 169.205C109.293 170.441 109.116 171.498 107.315 171.426C107.809 171.683 108.182 171.782 108.423 172.015C109.737 173.277 111.006 172.637 112.381 172.086C114.561 171.214 116.761 170.277 119.04 169.822C120.197 169.592 121.63 170.188 122.807 170.708C127.928 172.969 133 175.34 138.131 177.687C138.326 176.089 139.827 176.178 140.99 176.212C144.528 176.318 148.066 176.572 151.59 176.92C152.034 176.965 152.385 177.94 152.965 178.741C155.531 178.364 158.717 178.173 161.74 177.376C164.646 176.609 167.334 175.035 170.224 174.177C171.531 173.787 173.356 173.797 174.499 174.433C179.04 176.969 183.423 179.791 187.831 182.566C191.819 185.077 195.763 187.66 199.704 190.195C199.055 191.745 197.936 192.32 196.66 191.739C188.595 188.057 180.258 184.944 172.687 180.229C172.35 180.02 171.954 179.867 171.685 179.589C169.651 177.506 167.447 178.409 165.206 179.117C163.715 179.589 162.19 180.041 160.645 180.236C158.587 180.496 156.496 180.51 154.418 180.602C153.869 180.626 153.316 180.551 152.747 180.52C152.559 183.729 152.364 187.082 152.167 190.431C152 190.452 151.836 190.473 151.669 190.493C151.43 189.775 151.099 189.073 150.973 188.338C150.775 187.178 150.447 185.943 150.655 184.831C151.034 182.799 149.714 181.553 148.902 180.058C148.779 179.832 148.445 179.641 148.182 179.593C145.971 179.196 143.754 178.837 141.666 178.484C141.591 187.37 140.963 195.854 135 202.499C137.613 203.378 140.397 204.346 143.211 205.229C143.61 205.355 144.313 205.219 144.587 204.928C147.268 202.092 149.871 199.184 152.539 196.337C152.914 195.937 153.511 195.749 154.081 195.424C154.654 197.931 154.5 199.029 147.288 208.182C152.082 212.246 156.322 216.827 159.993 221.922C160.508 222.637 160.798 223.694 160.774 224.584C160.74 225.822 161.18 226.414 162.282 226.821C164.278 227.56 166.253 228.364 168.194 229.236C168.658 229.445 168.952 230.03 169.293 230.105C171.34 230.4 173.417 230.564 175.43 231.012C179.142 231.84 182.813 232.836 186.504 233.749C186.801 233.821 187.156 233.91 187.418 233.815C194.016 231.447 200.897 230.331 207.772 229.223C210.808 228.733 213.906 228.631 216.936 228.111C218.03 227.922 219.003 227.019 220.04 226.462C225.597 223.489 231.052 220.29 236.763 217.645C239.769 216.253 241.888 214.658 242.389 211.268C242.768 208.729 243.467 206.228 243.658 203.683C243.767 202.235 243.29 200.685 242.819 199.269C241.85 196.371 240.745 193.518 239.615 190.675C239.278 189.819 238.64 189.09 238.214 188.266C237.999 187.848 237.961 187.346 237.835 186.884C237.412 185.337 236.995 183.791 236.556 182.251C235.054 177.013 233.427 171.806 232.069 166.53C230.851 161.795 229.923 156.985 228.89 152.318C228.224 152.804 227.184 153.584 226.119 154.336C219.743 158.842 211.9 157.002 207.956 150.679C206.353 148.106 206.172 145.222 206.459 142.17C206.834 138.177 208.54 135.009 211.446 132.47C213.773 130.438 216.461 129.148 219.675 128.902C222.292 128.704 224.642 129.227 226.952 130.479C226.723 127.345 226.498 124.3 226.245 120.841C224.185 119.726 221.691 118.453 219.269 117.051C215.683 114.974 212.279 112.654 209.829 109.188C209.669 108.959 209.246 108.757 208.976 108.792C206.008 109.164 203.074 109.76 200.451 111.231C199.857 111.563 199.659 112.713 199.4 113.527C197.732 118.768 195.988 123.986 194.498 129.275C193.634 132.327 192.959 135.474 192.621 138.626C191.987 144.538 191.322 150.481 191.291 156.413C191.26 162.243 192.106 168.056 193.382 173.783C193.768 175.508 193.771 177.317 193.631 179.22C193.324 178.621 193.017 178.019 192.594 177.195C192.358 178.375 192.154 179.394 191.953 180.417C191.85 180.572 191.744 180.725 191.642 180.883C191.843 180.804 192.045 180.725 192.246 180.647H198.032C197.084 178.354 198.421 177.232 200.089 176.318C206.53 172.801 212.975 169.294 219.443 165.825C219.75 165.661 220.286 165.921 220.715 165.983C220.589 166.759 220.732 167.792 220.286 168.261C219.426 169.164 218.259 169.797 217.171 170.461C212.05 173.565 206.912 176.647 201.771 179.716C201.167 180.075 200.488 180.308 199.707 180.664C202.331 181.122 204.797 181.464 207.226 181.998C213.943 183.476 220.023 186.354 225.301 190.784C226.3 191.622 226.931 192.912 227.688 194.024C227.832 194.233 227.761 194.588 227.828 195.276C222.722 190.117 216.635 187.79 210.194 186.501C205.025 185.464 199.731 185.06 194.491 184.372C193.665 184.263 192.771 184.301 192.034 183.979C191.437 183.722 190.533 182.918 190.615 182.549C191.107 180.349 188.872 179.507 188.459 177.769C188.036 175.993 187.459 174.225 186.692 172.572C184.778 168.442 183.431 164.179 182.625 159.68C181.1 151.158 181.036 142.56 181.39 133.99C181.65 127.742 182.68 121.519 185.388 115.528C182.376 116.014 179.521 116.473 176.866 116.9C176.764 116.428 176.597 115.668 176.43 114.909C176.269 114.943 176.113 114.977 175.952 115.012C174.895 120.992 174.598 127.01 174.97 133.072C175.283 138.16 175.512 143.251 175.857 148.339C176.065 151.39 175.611 154.022 173.329 156.423C171.487 158.36 170.054 160.799 168.887 163.229C167.915 165.251 167.624 167.591 166.966 169.774C166.816 170.273 166.396 170.694 166.1 171.152C165.912 171.088 165.728 171.019 165.54 170.954C165.731 168.357 165.823 165.747 166.151 163.17C166.328 161.778 166.649 160.276 167.372 159.116C168.617 157.118 170.108 155.233 171.722 153.509C173.469 151.64 174.021 149.888 173.196 147.271C171.456 141.746 170.76 136.015 170.641 130.181C170.535 124.954 171.172 119.846 172.172 114.772C172.445 113.379 173.496 112.11 174.312 110.861C174.795 110.122 175.515 110.187 176.263 110.7C176.668 110.978 177.266 111.203 177.726 111.135C181.117 110.622 184.495 109.999 187.883 109.462C193.044 108.644 198.216 107.864 203.384 107.078C203.607 107.043 203.879 106.985 204.06 107.078C206.445 108.309 208.174 106.239 210.371 105.832C207.847 105.23 206.793 103.735 207.076 101.22C207.281 99.3795 205.285 97.2513 207.82 95.7152C206.458 91.9137 202.812 91.5754 199.748 90.7164C194.075 89.1255 188.278 87.9691 182.346 86.5905C181.721 89.4025 181.168 91.8794 180.623 94.357C180.374 95.4963 180.217 96.6626 179.875 97.7748C179.435 99.2148 178.633 100.361 176.856 100.385V83.9797C175.386 82.7172 173.114 82.8885 171.019 82.8338C168.918 82.7757 166.803 83.2373 164.165 83.5281C164.919 84.161 165.359 84.5375 165.81 84.9034C167.144 86.0018 168.58 87.0006 169.76 88.2427C170.183 88.6877 170.272 89.8132 170.047 90.4699C167.768 97.1623 165.359 103.81 163.057 110.495C162.101 113.266 161.252 116.076 160.478 118.901C160.187 119.959 160.276 121.119 160.146 122.224C159.624 126.671 159.096 131.123 158.543 135.567C158.192 138.39 157.701 141.195 157.441 144.025C156.905 149.865 156.482 155.719 156.015 161.555C154.647 161.398 154.544 161.412 154.367 159.971C153.965 156.69 153.45 153.403 153.381 150.107C153.286 145.455 153.313 140.774 153.736 136.149C154.21 130.948 155.176 125.792 155.95 120.619C156.097 119.637 156.179 118.594 156.595 117.725C156.926 117.034 157.745 116.582 158.307 115.987C158.622 115.654 158.969 115.285 159.109 114.868C161.33 108.196 163.517 101.518 165.711 94.839C166.236 93.2343 166.748 91.6263 167.267 90.0221C167.027 90.1072 166.792 90.1929 166.553 90.2819C165.878 89.7518 165.158 89.2659 164.534 88.6772C163.828 88.01 162.705 87.2986 162.637 86.5286C162.371 83.4938 160.478 81.1263 159.655 78.3447C159.553 77.9959 159.42 77.6537 159.236 77.1302C157.693 78.3176 156.663 80.3872 154.347 79.6791C153.644 79.4635 153.003 79.06 152.15 78.6564C155.657 77.4348 157.008 74.7627 158.096 71.8717C158.27 71.4134 158.424 70.9104 158.403 70.4311C158.396 70.2399 157.898 70.0718 157.625 69.8872C158.127 68.0636 158.625 66.2433 159.123 64.4235C159.256 64.4578 159.389 64.4921 159.522 64.5258C159.242 64.0675 158.963 63.6126 158.686 63.1577C159.28 63.4208 159.867 63.6811 160.682 64.0405C162.002 63.3113 161.985 61.4264 160.46 60.386C160.201 60.8752 159.969 61.3783 159.679 61.8437C159.389 62.3125 159.044 62.7503 158.727 63.2019C158.035 64.0233 157.342 64.8475 156.649 65.6689C156.707 65.8331 156.769 66.0006 156.827 66.1648C156.018 66.052 155.21 65.9392 154.128 65.7883C154.002 65.9868 153.627 66.5755 153.207 67.2394C154.22 67.188 155.053 67.1432 155.885 67.1023C155.923 67.3007 155.957 67.4959 155.995 67.6943C155.377 67.995 154.759 68.2996 154.245 68.5495C154.688 69.2648 155.183 70.0619 155.452 70.4963C156.39 70.2155 157.022 70.0276 157.656 69.8396L157.642 69.8225ZM90.9053 154.22C90.5129 154.159 90.1204 154.097 89.728 154.039C89.3564 153.768 89.0219 153.372 88.6057 153.245C83.2938 151.637 77.9312 151.315 72.4109 152.133C67.454 152.869 63.0224 154.75 58.7578 157.269C59.6926 157.258 60.6346 157.227 61.5044 156.964C63.309 156.42 65.2024 156.584 66.9084 155.103C68.5388 153.69 71.077 152.899 73.2642 154.042C74.963 154.928 76.5631 154.597 78.2008 154.552C82.0591 154.446 85.9142 154.186 89.7792 153.981C90.0559 154.138 90.3288 154.292 90.6049 154.449C95.1049 159.578 99.6082 164.71 104.347 170.112C102.344 162.383 97.9706 157.152 90.9053 154.22ZM213.459 283.947C213.374 283.951 213.251 283.93 213.152 283.964C206.783 286.308 200.41 288.658 193.658 289.661C192.297 289.863 190.864 289.569 189.206 289.49C189.783 287.878 190.632 287.269 191.782 286.996C193.075 286.691 194.402 286.486 195.664 286.089C204.091 283.437 212.514 280.772 220.907 278.011C221.586 277.789 222.152 276.879 222.541 276.164C223.523 274.367 224.059 272.222 225.355 270.724C227.331 268.438 227.504 265.9 226.761 263.436C225.434 259.047 223.561 254.821 222.036 250.486C220.757 246.85 219.532 243.185 218.508 239.47C217.836 237.027 217.563 234.475 217.082 231.81C210.055 233.393 202.862 235.012 195.211 236.736C198.448 238.272 200.386 240.462 202.116 242.977C203.262 244.643 203.794 246.412 203.757 248.3C203.709 250.75 203.252 253.189 203.143 255.639C202.951 259.881 202.887 264.131 202.784 268.377C202.761 269.345 202.849 270.32 202.764 271.281C202.723 271.757 202.402 272.209 202.211 272.67C201.986 272.626 201.764 272.581 201.539 272.537C201.27 267.135 200.997 261.729 200.734 256.327C200.611 253.778 200.512 251.229 200.383 248.684C200.369 248.427 200.294 248.092 200.12 247.941C198.234 246.319 196.551 244.239 194.375 243.219C188.95 240.677 183.304 238.604 177.733 236.377C176.72 235.973 175.263 235.145 174.666 235.528C173.281 236.421 172.333 235.713 171.214 235.361C170.507 235.138 169.801 234.923 169.003 234.676C169.003 242.385 168.938 249.946 169.044 257.504C169.075 259.676 169.457 261.869 169.924 264.001C170.637 267.251 171.623 270.44 172.343 273.686C172.466 274.248 171.828 274.977 171.541 275.627C171.036 275.295 170.309 275.083 170.057 274.611C166.854 268.643 165.213 262.167 164.64 255.492C164.176 250.089 164.285 244.632 164.257 239.2C164.247 237.147 164.578 235.09 164.762 232.925C163.988 232.603 163.138 232.158 162.234 231.899C159.273 231.053 157.991 228.539 157.898 226.044C157.772 222.701 155.066 221.685 153.698 219.208C154.272 226.034 154.872 232.46 155.34 238.892C155.763 244.691 155.903 250.514 156.421 256.299C156.916 261.832 157.673 267.343 158.437 272.845C159.624 281.371 162.211 289.514 165.475 297.448C165.653 297.879 165.991 298.266 166.328 298.597C166.949 299.203 167.775 299.651 168.252 300.349C169.259 301.821 170.04 303.449 171.036 304.927C171.292 305.307 172.076 305.659 172.496 305.553C178.183 304.089 183.84 302.515 189.52 301.02C196.678 299.138 203.726 296.948 210.433 293.78C212.16 292.966 213.804 291.974 215.468 291.071C214.831 288.813 214.145 286.38 213.459 283.94V283.947ZM50.0621 557.432C49.9662 557.653 49.8708 557.879 49.7716 558.106C48.861 557.808 47.7592 557.741 47.0663 557.172C41.9358 552.975 35.6344 552.27 29.4935 551.151C26.4741 550.6 23.4006 550.31 20.3404 550.053C19.1459 549.954 17.6384 549.882 16.7581 550.494C14.9943 551.723 13.5617 553.43 11.7058 555.221C12.4323 555.221 12.623 555.27 12.7663 555.215C15.8883 553.899 18.6686 554.618 21.3568 556.481C24.9627 558.974 28.5521 561.511 32.308 563.766C37.4766 566.873 42.8226 569.687 48.0254 572.733C49.7413 573.739 51.3789 574.546 53.453 574.446C54.7048 574.385 56.0971 574.562 57.2227 575.082C59.5598 576.149 61.9547 577.271 63.9776 578.824C67.1878 581.29 70.5722 583.318 74.441 584.457C77.7262 585.424 78.8556 584.811 80.4761 581.87C81.3938 580.212 82.6015 578.719 83.6455 577.122C83.9558 576.646 84.2832 576.116 84.3791 575.574C84.7881 573.214 84.8736 570.765 85.5113 568.471C87.6538 560.77 88.8411 552.77 92.5633 545.745C90.2742 544.062 88.0462 542.393 85.788 540.771C83.9354 539.44 83.0006 539.477 81.7245 540.59C81.223 541.024 80.4899 541.192 79.862 541.479C79.5517 540.747 78.8931 539.957 79.0055 539.296C79.2717 537.695 78.586 536.436 77.5862 535.615C75.7512 534.109 73.752 532.697 71.6095 531.694C69.279 530.603 67.6552 531.389 66.1951 533.606C65.8539 534.123 65.4824 534.626 65.0695 535.088C63.2715 537.099 61.4531 539.094 59.7268 541C63.2682 541.962 66.8466 542.933 70.4222 543.901L70.4531 544.439C70.0265 544.712 69.5524 545.277 69.1771 545.215C65.6219 544.64 62.0705 544.025 58.5467 543.282C57.1576 542.988 56.0216 543.022 55.0157 544.216C56.3562 545.294 59.2935 544.603 58.652 547.949C56.6357 547.641 54.7015 547.436 52.8114 547.025C51.3342 546.703 50.0891 546.792 48.6868 547.528C45.3405 549.28 41.7682 550.34 37.9164 550.118C37.5962 550.101 37.2688 550.248 36.7909 550.354C39.295 551.353 41.6795 552.068 43.8291 553.224C46.0223 554.402 47.9874 556.017 50.0516 557.437L50.0621 557.432ZM94.8491 178.491C91.7547 172.439 88.442 165.962 85.2147 159.653C73.7449 160.936 62.2138 162.229 50.5907 163.529C51.8088 167.386 53.0639 171.351 54.384 175.521C55.7284 175.891 57.4922 176.202 59.1128 176.866C62.1763 178.118 65.1715 179.545 68.1568 180.985C68.5697 181.183 68.9891 181.885 68.9654 182.323C68.9417 182.733 68.3922 183.26 67.9523 183.466C66.7617 184.01 65.5061 184.41 64.1038 184.93C64.4076 185.518 64.595 186.118 64.967 186.555C66.1372 187.923 67.362 189.251 68.5972 190.562C70.0232 192.074 70.1389 193.34 69.0304 195.18C68.8563 195.471 68.9279 195.909 68.8701 196.388C68.0273 196.251 67.2253 196.121 66.1471 195.947C68.3856 200.867 70.5281 205.578 72.5714 210.07C84.7506 209.831 96.6334 209.174 108.584 206.269C107.25 203.597 106.029 200.949 104.623 198.404C103.842 196.99 103.098 195.464 101.427 194.753C99.9731 194.133 99.342 192.868 99.0487 191.366C98.885 190.524 98.5951 189.826 97.4519 189.761C96.9371 189.73 96.2613 189.125 96.0089 188.608C95.4389 187.441 95.0845 186.172 94.5763 184.759C92.6691 185.146 92.0788 183.254 92.2188 182.002C92.3516 180.831 93.7947 179.808 94.842 178.495L94.8491 178.491ZM109.379 196.159C109.29 196.426 109.198 196.693 109.109 196.96C109.874 197.442 110.59 198.246 111.405 198.355C115.51 198.92 119.641 199.3 123.758 199.751C125.754 199.97 127.747 200.234 129.746 200.412C130.804 200.504 132.4 200.904 132.833 200.391C133.976 199.026 135.819 197.99 135.624 195.677C135.488 194.072 135.719 192.416 135.948 190.808C136.453 187.219 137.05 183.647 137.63 180.068C137.78 179.134 137.302 178.786 136.501 178.573C131.462 177.245 126.43 175.884 121.388 174.56C120.415 174.304 119.368 173.903 118.426 174.047C116.741 174.3 115.076 174.82 113.463 175.401C107.318 177.615 101.201 179.9 95.074 182.159C95.0674 182.316 95.0569 182.474 95.0503 182.631C98.3801 183.521 101.74 182.381 105.056 182.131C108.448 181.878 111.811 181.218 115.185 180.736C115.219 180.941 115.257 181.15 115.291 181.355C109.686 182.696 104.081 184.037 98.4314 185.388C99.0553 186.1 98.4893 187.787 100.403 187.804C104.299 187.842 108.195 187.992 112.091 188.129C114.404 188.211 116.717 188.304 119.024 188.492C119.876 188.56 120.705 188.909 121.545 189.128L121.48 189.71C114.827 190.055 108.174 190.404 101.12 190.77C101.659 191.335 102.034 192.108 102.515 192.177C108.464 193.056 114.432 193.816 120.384 194.65C121.398 194.794 122.387 195.136 123.387 195.389C123.332 195.646 123.278 195.906 123.226 196.163H109.386L109.379 196.159ZM230.636 129.6C230.803 131.317 230.93 132.884 231.117 134.444C231.666 139.057 232.267 143.662 232.799 148.274C233.103 150.895 233.161 153.553 233.601 156.146C234.232 159.862 235.129 163.533 235.873 167.228C236.269 169.192 236.333 171.265 236.992 173.13C238.118 176.318 239.599 179.381 240.908 182.453C250.826 169.178 246.166 140.203 230.64 129.597L230.636 129.6ZM103.692 163.748C103.89 160.577 103.811 157.826 104.289 155.181C104.944 151.541 105.667 147.952 105.612 144.209C105.582 142.061 106.128 139.898 106.458 137.749C106.831 135.365 108.219 133.062 106.929 130.551C106.503 129.72 106.339 128.734 105.838 127.961C105.312 127.151 105.783 125.59 104.296 125.535C102.699 125.477 102.842 127.024 102.515 127.958C101.682 130.329 100.55 132.412 98.4347 133.897C97.9397 134.246 97.5919 134.938 97.3907 135.539C96.7563 137.466 96.2922 139.447 95.6335 141.362C94.4192 144.9 93.1123 148.407 91.8363 151.948C97.0186 154.531 100.905 158.353 103.692 163.745V163.748ZM219.508 138.982C221.302 139.932 222.008 141.517 221.848 143.429C221.732 144.839 220.972 145.954 219.46 146.238C217.195 146.662 214.639 146.744 213.114 145.089C211.279 143.097 209.768 144.503 208.048 144.466C208.635 147.412 209.583 149.492 210.822 150.491C216.219 154.846 224.315 153.659 228.388 148.866C228.743 148.449 228.715 147.702 228.811 147.326C227.702 147.497 226.638 148.01 226.109 147.675C224.581 146.707 224.028 147.199 223.581 148.698C223.029 150.546 222.36 150.802 220.637 150.026C219.893 149.69 219.156 149.335 218.409 148.985C218.211 149.3 218.095 149.488 217.979 149.677C217.618 150.268 217.256 150.864 216.894 151.456C216.741 150.717 216.56 149.981 216.444 149.238C216.403 148.979 216.444 148.65 216.574 148.424C217.161 147.419 217.584 146.163 219.218 147.241C219.968 147.737 220.978 147.832 221.998 148.147C222.315 147.412 222.49 146.611 222.954 146.053C223.346 145.581 224.366 144.975 224.605 145.147C225.529 145.803 226.403 146.317 227.347 145.465C228.183 144.709 228.569 143.706 228.395 142.468C227.931 139.146 227.566 135.806 227.153 132.395C226.604 132.269 225.921 132.228 225.341 131.964C223.769 131.253 223.117 131.964 222.503 133.37C221.674 135.263 220.569 137.031 219.511 138.985L219.508 138.982ZM200.464 521.827C203.327 521.064 205.892 520.109 208.891 520.205C212.439 520.321 213.5 523.294 215.895 525.019C217.201 523.103 218.505 521.187 219.638 519.52C217.277 516.914 216.355 513.718 215.035 511.118C209.969 513.763 204.903 516.407 199.734 519.107C199.939 519.873 200.208 520.872 200.464 521.82V521.827ZM105.271 174.704C100.212 168.384 95.149 162.055 89.9705 155.585C88.8378 156.738 87.9509 157.641 87.139 158.466C90.6495 165.018 94.0951 171.446 97.5302 177.862C100.205 176.77 102.801 175.713 105.268 174.704H105.271ZM66.485 194.602C67.1161 192.553 66.1852 191.311 65.0795 190.114C64.2367 189.203 63.3294 188.32 62.6503 187.294C62.0126 186.333 61.2244 185.946 60.1429 185.693C56.6941 184.885 52.9614 185.183 49.7584 182.809C49.5704 184.345 49.3422 185.607 49.308 186.877C49.2976 187.284 49.7071 187.934 50.0792 188.088C55.5239 190.295 60.9956 192.436 66.4883 194.605L66.485 194.602ZM64.5746 195.66C59.5802 194.418 54.4287 193.135 49.2976 191.858C49.9116 194.558 51.7879 196.32 54.217 197.678C56.5265 198.971 58.7991 200.34 61.0265 201.773C61.5998 202.143 61.9305 202.886 62.3709 203.457C62.2755 203.597 62.1829 203.737 62.0876 203.874C60.9345 203.758 59.7847 203.641 58.6315 203.525L58.5908 203.772C60.6241 204.555 62.6542 205.338 65.0486 206.262C64.2846 204.668 63.7285 203.508 63.1552 202.317C63.9335 201.804 64.5713 201.383 64.9841 201.113C64.8375 199.159 64.7041 197.377 64.5746 195.66ZM208.284 142.317C210.951 141.503 213.5 140.911 215.209 138.615C215.496 138.232 216.414 138.352 217.024 138.174C217.519 138.03 218.218 137.927 218.423 137.575C219.515 135.669 220.477 133.692 221.49 131.725C216.372 131.256 209.768 135.837 208.284 142.317ZM50.4033 176.893C49.8774 178.662 51.0515 179.117 52.3099 179.583C55.1794 180.643 58.0792 181.656 60.8766 182.888C62.0605 183.411 62.8179 183.223 63.6601 182.422C64.1072 181.998 64.6429 181.669 65.0657 181.348C60.4946 178.122 55.5377 177.253 50.4033 176.893ZM159.317 45.4588C158.318 43.5942 158.342 43.6113 157.056 45.2502C156.568 45.8729 156.042 46.6187 155.364 46.9061C153.18 47.8299 153.593 49.5337 153.767 51.3196C154.859 51.3196 155.94 51.0972 156.878 51.3675C158.71 51.891 159.744 51.4325 160.395 49.4345C160.785 48.2438 160.051 47.2893 158.243 46.9232C158.625 46.4031 158.942 45.972 159.317 45.4588ZM51.0956 162.058C57.339 161.261 63.4523 160.485 69.5216 159.711C68.713 159.253 68.0135 158.839 67.3008 158.452C67.0241 158.302 66.7033 158.066 66.4338 158.103C64.2846 158.401 62.1388 158.73 59.9996 159.099C59.1502 159.246 58.1542 159.294 57.5231 159.777C56.3049 160.707 55.1623 161.268 53.5997 160.799C52.5182 160.474 51.6038 160.854 51.0956 162.058ZM72.3393 159.472C75.4778 159.174 78.613 158.88 81.4859 158.61C80.7798 158.035 79.9436 157.358 79.108 156.68C76.4744 155.91 74.7106 158.346 72.3393 159.472ZM116.107 203.569C116.069 203.457 116.035 203.344 115.998 203.231C113.766 202.92 111.535 202.608 108.922 202.242C109.601 203.621 110.164 204.764 110.856 206.166C112.668 205.27 114.387 204.418 116.103 203.566L116.107 203.569ZM116.717 305.385C116.833 305.598 116.953 305.806 117.068 306.018C120.037 304.376 123.008 302.737 125.976 301.095C125.874 300.91 125.771 300.729 125.673 300.544C122.534 301.882 119.163 302.799 116.717 305.385ZM80.5714 155.852C81.8271 156.314 83.1169 156.512 82.591 158.192C85.1431 159.113 86.3441 157.381 87.6268 155.852H80.5681H80.5714ZM46.8177 170.813C46.8006 171.008 46.7835 171.2 46.7665 171.395C47.6533 171.788 48.5402 172.179 49.4271 172.572C49.5125 172.425 49.598 172.274 49.6795 172.127C49.1713 170.53 48.6631 168.932 48.0182 166.892C47.2984 168.1 46.821 168.905 46.2445 169.873C47.0972 169.958 47.5817 170.006 48.2365 170.071C47.6429 170.386 47.23 170.602 46.821 170.817L46.8177 170.813ZM67.9727 156.677C69.849 157.713 72.6496 157.261 74.4101 155.75C72.1006 154.771 70.0502 155.363 67.9727 156.677Z" fill="black"/>
<path d="M94.2906 593.207C93.8364 592.782 93.0895 592.146 94.236 591.925C95.5457 591.671 96.938 591.864 98.4626 591.864C97.6441 592.384 96.9926 592.798 96.3405 593.207H94.2939H94.2906Z" fill="black"/>
<path d="M104.309 265.499C104.043 264.719 103.634 263.956 103.535 263.156C103.023 258.923 102.488 254.691 102.16 250.442C101.713 244.653 101.454 238.85 101.109 233.055C100.884 229.284 100.618 225.514 100.444 221.737C100.355 219.783 100.427 217.823 100.717 215.842C102.532 217.447 102.628 219.557 102.798 221.583C103.265 227.197 103.647 232.819 104.016 238.44C104.077 239.405 103.859 240.383 103.852 241.355C103.832 245.481 103.743 249.611 103.873 253.73C103.995 257.593 104.367 261.448 104.63 265.305C104.524 265.366 104.415 265.431 104.309 265.493V265.499Z" fill="black"/>
<path d="M187.916 209.146C179.353 210.429 171.441 213.916 162.97 215.722C162.735 214.309 163.666 213.526 164.833 213.129C168.698 211.805 172.57 210.494 176.494 209.368C179.465 208.517 182.556 208.079 185.531 207.234C188.192 206.474 189.925 207.063 191.607 209.437C193.245 211.743 195.623 213.515 197.635 215.565C197.99 215.924 198.144 216.485 198.389 216.954C197.864 217.019 197.25 217.299 196.83 217.118C193.091 215.517 189.605 213.587 187.919 209.15L187.916 209.146Z" fill="black"/>
<path d="M204.187 195.207C205.913 197.555 207.482 199.898 209.266 202.064C211.985 205.363 214.837 208.551 217.683 211.743C218.106 212.219 218.771 212.509 219.368 212.793C220.603 213.386 221.766 213.297 222.561 212.061C223.489 210.621 223.189 209.334 221.933 208.325C219.453 206.33 217.004 204.295 214.571 202.242C214.083 201.831 213.661 201.305 213.34 200.753C213.125 200.387 212.964 199.567 213.084 199.498C213.531 199.248 214.162 199.033 214.619 199.166C215.169 199.331 215.649 199.82 216.096 200.24C218.28 202.3 220.415 204.408 222.613 206.45C224.513 208.216 224.802 209.951 223.557 211.938C222.357 213.858 219.979 214.542 217.604 213.478C214.36 212.027 212.033 209.444 209.823 206.868C207.847 204.569 206.329 201.862 204.722 199.265C203.559 197.38 203.596 197.014 204.187 195.204V195.207Z" fill="black"/>
<path d="M141.523 99.8035C141.564 99.2115 141.438 98.5443 141.67 98.0379C144.061 92.7451 146.476 87.4627 148.977 82.218C149.329 81.4789 150.165 80.9759 150.779 80.3634C151.051 81.3042 151.7 82.3169 151.536 83.1759C150.533 88.482 148.05 93.0977 144.549 97.1795C143.758 98.1031 142.973 99.0301 142.185 99.9538C141.963 99.9024 141.742 99.8549 141.523 99.8035Z" fill="black"/>
<path d="M120.573 71.7551C117.345 72.1453 114.545 72.467 111.751 72.8297C110.325 73.0143 108.912 73.3327 107.479 73.4692C107.09 73.5068 106.657 73.1 106.244 72.8949C106.466 72.4737 106.582 71.8783 106.933 71.6561C109.816 69.8187 112.989 68.7822 116.401 69.1653C117.84 69.3262 119.433 69.8563 120.576 71.7551H120.573Z" fill="black"/>
<path d="M221.141 120.588C213.042 124.981 204.946 129.374 196.847 133.767C196.721 133.644 196.595 133.521 196.469 133.397C196.929 132.912 197.308 132.275 197.867 131.967C202.48 129.425 207.109 126.907 211.773 124.461C214.157 123.209 216.624 122.111 219.067 120.968C219.687 120.677 220.353 120.489 221.001 120.253C221.049 120.366 221.093 120.478 221.141 120.592V120.588Z" fill="black"/>
<path d="M162.418 200.884C162.347 200.107 162.077 199.395 162.265 198.831C164.063 193.391 164.752 187.807 164.557 182.029C166.014 181.864 166.225 182.812 166.263 183.784C166.475 189.118 165.598 194.263 163.53 199.19C163.322 199.687 163.042 200.155 162.79 200.634C162.766 200.678 162.701 200.695 162.418 200.884Z" fill="black"/>
<path d="M111.064 78.7963C111.87 79.3745 112.675 79.9527 113.469 80.5209C115.861 80.3601 118.334 80.192 121.272 79.9903C119.709 82.0295 118.027 83.0455 116.011 83.391C114.851 83.5894 113.623 83.4667 112.436 83.3877C112.112 83.3672 111.641 83.025 111.538 82.7243C111.136 81.5541 110.853 80.343 110.525 79.149C110.706 79.029 110.887 78.9129 111.068 78.793L111.064 78.7963Z" fill="black"/>
<path d="M130.52 60.516C133.484 60.9372 137.489 64.5292 137.906 66.9448C135.497 64.8476 133.167 62.8222 130.52 60.516Z" fill="black"/>
<path d="M137.814 57.3137C139.561 56.5166 141.219 55.7605 142.973 54.96C142.348 57.0058 139.189 58.5215 137.814 57.3137Z" fill="black"/>
<path d="M146.168 396.862L145.852 396.493C147.107 393.55 148.366 390.611 149.621 387.669C149.768 387.731 149.918 387.796 150.065 387.857C148.765 390.858 147.469 393.861 146.168 396.862Z" fill="white"/>
<path d="M234.133 554.524C233.686 555.619 233.475 556.906 232.759 557.769C227.665 563.91 221.081 568.31 214.752 572.992C212.136 574.927 209.307 576.574 206.544 578.305C205.817 578.758 204.985 579.04 203.89 579.548C209.273 579.338 214.353 579.134 219.436 578.935C219.505 579.172 219.57 579.41 219.637 579.648C218.887 580.057 218.167 580.726 217.376 580.831C214.65 581.184 211.897 581.317 209.161 581.588C204.821 582.014 200.488 582.506 196.149 582.92C193.242 583.197 190.329 583.379 187.422 583.639C185.253 583.832 183.086 584.23 180.916 584.258C178.675 584.291 176.423 584.07 174.192 583.81C171.542 583.495 168.901 583.053 166.27 582.589C164.93 582.345 163.599 581.997 162.306 581.571C161.279 581.234 160.754 579.416 161.242 578.476C161.385 578.2 161.354 577.79 161.3 577.459C161.044 575.872 160.778 574.28 160.471 572.699C160.137 570.986 160.914 569.72 162.026 568.581C162.173 568.426 162.463 568.211 162.572 568.261C164.081 568.974 164.599 567.597 165.384 566.901C168.048 564.524 170.699 562.136 173.292 559.676C179.333 553.949 185.348 548.195 191.335 542.409C191.96 541.807 192.618 541.229 191.762 539.98C191.039 538.927 191.021 537.325 190.881 535.947C190.578 532.926 190.336 529.898 190.182 526.866C190.083 524.909 191.09 524.738 192.891 524.968C195.692 525.324 195.33 527.116 195.258 528.848C195.112 532.45 194.842 536.046 194.621 539.69C197.285 539.854 199.912 540.069 202.542 540.158C205.074 540.244 207.646 540.015 209.881 541.493C209.877 541.671 209.87 541.848 209.867 542.026C204.398 542.328 198.933 542.629 193.27 542.94C192.396 546.242 189.954 549.009 187.415 551.524C182.342 556.558 176.963 561.285 171.674 566.16C178.412 566.552 185.256 567.172 192.188 565.756C191.23 566.215 190.315 566.856 189.306 567.1C184.167 568.338 178.992 568.918 173.67 568.31C170.303 567.929 166.765 567.172 163.726 569.46C164.025 571.594 164.333 573.777 164.595 575.646C168.406 576.74 172.108 577.63 175.687 578.879C179.49 580.212 183.209 580.073 187.068 579.266C191.192 578.41 195.371 577.807 199.53 577.138C201.317 576.851 202.785 576.215 204.231 574.949C206.919 572.594 209.898 570.549 212.866 568.537C219.153 564.281 225.505 560.124 231.841 555.939C232.595 555.436 233.41 555.033 234.195 554.579L234.137 554.519L234.133 554.524Z" fill="black"/>
<path d="M196.046 547.138C197.366 547.562 198.69 547.812 199.836 548.404C200.815 548.91 200.56 549.837 199.56 549.971C198.257 550.145 196.854 550.125 195.589 549.803C195.029 549.663 194.709 548.582 194.275 547.928C194.841 547.675 195.411 547.422 196.046 547.138Z" fill="black"/>
<path d="M97.569 202.769C94.9552 201.236 93.4273 199.31 92.5366 196.854C92.4071 196.491 91.6497 196.104 91.2231 196.145C87.8288 196.494 84.4411 196.953 81.0535 197.357C78.3515 197.678 75.6495 197.976 72.7221 198.311C74.643 201.062 76.4377 203.648 78.2628 206.211C78.4127 206.423 78.7913 206.618 79.0405 206.591C83.0901 206.163 87.1398 205.708 91.1856 205.236C93.4339 204.972 95.679 204.671 98.0635 204.641C97.1082 205.058 96.1872 205.677 95.1912 205.855C90.8207 206.628 86.4332 207.296 82.0462 207.952C80.7156 208.151 79.3613 208.26 78.0202 208.257C77.7033 208.257 77.3687 207.641 77.0788 207.278C76.898 207.052 76.8059 206.758 76.6455 206.516C75.1375 204.25 73.6432 201.975 72.1048 199.731C71.682 199.115 71.0371 198.643 70.6755 198C70.5454 197.771 70.88 196.96 71.1358 196.884C72.8246 196.399 74.5339 195.882 76.2702 195.677C81.7155 195.027 87.1701 194.489 92.6286 193.969C93.1473 193.921 93.9901 194.158 94.1979 194.534C95.372 196.652 96.4325 198.834 97.4422 201.038C97.6677 201.531 97.5415 202.187 97.5756 202.769H97.569Z" fill="black"/>
<path d="M62.0119 175.484C61.3091 174.522 60.603 173.561 59.6412 172.251C59.7503 173.28 59.8523 173.81 59.8457 174.338C59.8385 174.817 59.709 175.289 59.6307 175.768C59.02 175.6 58.0069 175.593 57.8635 175.237C57.0549 173.205 56.3863 171.108 55.8473 168.986C55.7585 168.641 56.485 167.762 56.9596 167.645C60.1764 166.865 63.4207 166.212 66.6651 165.548C67.4704 165.384 68.3236 165.151 69.108 165.261C70.8751 165.511 71.643 166.883 72.0762 168.442C72.4003 169.613 72.4686 170.868 72.9052 171.987C73.4784 173.451 72.8639 173.982 71.6154 174.478C69.0534 175.498 63.5778 176.373 60.5826 175.795C61.0533 175.686 61.5241 175.579 61.9915 175.467C65.2017 174.857 68.4085 174.249 71.6154 173.64C70.1894 171.324 70.2065 171.375 67.7846 172.202C67.2725 172.377 66.5356 172.086 65.9728 171.85C65.5533 171.672 65.2391 171.235 64.7171 170.766C64.5981 173.585 62.1998 171.949 61.2066 172.952C61.4728 173.797 61.7357 174.639 61.9981 175.484H62.0119ZM70.3978 171.43C69.9607 169.903 69.7358 168.826 69.323 167.823C69.1593 167.43 68.521 166.903 68.1969 166.961C65.2799 167.495 62.3839 168.145 59.402 168.775C59.7057 169.37 59.8865 169.842 60.1665 170.249C60.5176 170.762 60.8792 171.529 61.357 171.631C62.1827 171.809 63.1821 172.015 63.6803 170.68C63.8441 170.246 65.1234 169.931 65.8091 170.054C67.283 170.314 68.6985 170.896 70.4044 171.426L70.3978 171.43Z" fill="black"/>
<path d="M82.3565 172.384C79.2317 172.371 77.2496 170.625 77.2325 167.878C77.2154 165.36 79.3001 163.465 82.0632 163.489C84.4003 163.506 86.4982 166.192 86.4541 169.052C86.4166 171.282 84.5844 172.548 82.3565 172.387V172.384ZM84.9151 169.503C84.1065 167.32 83.1072 165.952 81.0534 165.534C80.5485 167.122 80.8418 168.692 81.8009 169.753C82.2099 170.205 83.7521 169.627 84.9151 169.503ZM79.8149 165.315C77.792 167.235 77.6895 168.247 79.2213 169.065C79.4125 167.854 79.6203 166.558 79.8149 165.315Z" fill="black"/>
<path d="M89.4728 199.098C87.1803 200.973 78.6412 201.674 76.5703 200.159C78.7779 198.441 88.1427 197.671 89.4728 199.098Z" fill="black"/>
<path d="M88.8691 182.72C88.9611 184.215 87.8251 185.665 86.5083 185.741C84.7208 185.843 83.4618 184.862 83.3797 183.264C83.3113 181.991 83.3935 180.458 84.8845 180.332C88.2854 180.048 88.7324 180.455 88.8724 182.716L88.8691 182.72ZM84.7886 181.721C85.0206 183.148 85.563 183.565 87.1427 183.507C87.1052 181.882 86.3104 181.352 84.7886 181.721Z" fill="black"/>
<path d="M87.3338 203.333C85.2899 203.84 83.2499 204.346 81.0391 204.897C81.3632 202.806 84.952 201.872 87.3338 203.333Z" fill="black"/>
<path d="M225.99 140.75C225.39 139.57 224.748 138.41 224.223 137.196C224.111 136.935 224.424 136.491 224.544 136.131C224.882 136.279 225.421 136.343 225.52 136.59C226.021 137.838 226.41 139.132 226.836 140.412C226.557 140.524 226.274 140.637 225.994 140.75H225.99Z" fill="black"/>
<path d="M98.4901 173.26C95.4574 171.618 94.4917 168.768 93.0112 166.331C92.9191 166.184 93.2703 165.511 93.4681 165.487C94.123 165.404 95.1399 165.234 95.4128 165.579C96.8288 167.365 98.1318 169.257 99.2849 171.221C99.4933 171.573 98.828 172.442 98.4868 173.26H98.4901Z" fill="black"/>
<path d="M155.267 47.6793C155.864 48.0694 156.55 48.3807 157.028 48.8871C157.266 49.1403 157.127 49.7527 157.161 50.2043C156.987 50.2693 156.813 50.3309 156.642 50.3959C156.024 49.6774 155.407 48.9589 154.793 48.2404C154.953 48.0523 155.11 47.8675 155.271 47.6793H155.267Z" fill="black"/>
<path d="M79.8145 165.315C79.6166 166.558 79.4121 167.85 79.2209 169.065C77.6891 168.251 77.7916 167.235 79.8145 165.315Z" fill="white"/>
</g>
<defs>
<filter id="filter0_d_2495_9213" x="-6" y="-4" width="271" height="615" filterUnits="userSpaceOnUse" color-interpolation-filters="sRGB">
<feFlood flood-opacity="0" result="BackgroundImageFix"/>
<feColorMatrix in="SourceAlpha" type="matrix" values="0 0 0 0 0 0 0 0 0 0 0 0 0 0 0 0 0 0 127 0" result="hardAlpha"/>
<feOffset dy="4"/>
<feGaussianBlur stdDeviation="4.5"/>
<feComposite in2="hardAlpha" operator="out"/>
<feColorMatrix type="matrix" values="0 0 0 0 1 0 0 0 0 1 0 0 0 0 1 0 0 0 0.25 0"/>
<feBlend mode="normal" in2="BackgroundImageFix" result="effect1_dropShadow_2495_9213"/>
<feBlend mode="normal" in="SourceGraphic" in2="effect1_dropShadow_2495_9213" result="shape"/>
</filter>
</defs>
</svg>
