<svg width="35" height="43" viewBox="0 0 35 43" fill="none" xmlns="http://www.w3.org/2000/svg">
<path d="M33.6427 20.2424C33.884 20.1309 34.0401 19.8877 34.0401 19.6221V15.4219C34.0401 15.1543 33.886 14.913 33.6427 14.8016L30.6081 13.4008L29.5418 10.8263L30.6973 7.69235C30.7905 7.44301 30.7277 7.16125 30.5392 6.97272L27.5673 4.0009C27.3788 3.81237 27.0991 3.75156 26.8477 3.84278L23.7137 4.99827L21.1393 3.93199L19.7385 0.897318C19.627 0.65609 19.3838 0.5 19.1182 0.5H14.9179C14.6503 0.5 14.4091 0.65609 14.2976 0.897318L12.8989 3.92996L10.3244 4.99625L7.18842 3.84075C6.93908 3.7475 6.65733 3.81035 6.46879 3.99887L3.49697 6.97069C3.30845 7.15922 3.24763 7.43896 3.33885 7.69032L4.49435 10.8243L3.43008 13.3988L0.397441 14.7995C0.156212 14.911 0.00012207 15.1543 0.00012207 15.4198V19.6201C0.00012207 19.8877 0.156212 20.1289 0.397441 20.2404L3.43008 21.6412L4.49435 24.2156L3.33885 27.3496C3.2456 27.599 3.30844 27.8807 3.49697 28.0692L5.99037 30.5627V33.3561H4.22475C3.93689 32.4945 3.124 31.8722 2.16721 31.8722C0.971187 31.8722 0.00017849 32.8452 0.00017849 34.0392C0.00017849 35.2352 0.973211 36.2062 2.16721 36.2062C3.12405 36.2062 3.93694 35.5839 4.22475 34.7223H6.67357C7.05062 34.7223 7.35672 34.4162 7.35672 34.0392V31.1363L10.3245 30.0436L11.1881 30.4025V34.3351L8.91564 35.523C8.6886 35.6406 8.5467 35.8758 8.54873 36.1312L8.55684 37.7894C7.69735 38.0773 7.07498 38.8901 7.07498 39.8449C7.07498 41.0409 8.04801 42.0119 9.24201 42.0119C10.438 42.0119 11.409 41.0389 11.409 39.8449C11.409 38.8881 10.7847 38.0732 9.92313 37.7874L9.91705 36.5407L12.1875 35.3528C12.4125 35.2352 12.5544 35.0021 12.5544 34.7466V30.966L12.897 31.1079L14.2957 34.1405C14.4072 34.3818 14.6504 34.5378 14.916 34.5378H16.335V37.7853C15.4734 38.0732 14.8511 38.8861 14.8511 39.8429C14.8511 41.0389 15.8242 42.0099 17.0182 42.0099C18.2142 42.0099 19.1852 41.0369 19.1852 39.8429C19.1852 38.886 18.5629 38.0731 17.7013 37.7853V34.5378H19.1183C19.3859 34.5378 19.6271 34.3838 19.7386 34.1405L21.1393 31.1059L21.4799 30.964V34.7425C21.4799 34.9959 21.6218 35.2311 21.8468 35.3487L24.1193 36.5366L24.1132 37.7833C23.2516 38.0691 22.6273 38.884 22.6273 39.8408C22.6273 41.0368 23.6003 42.0078 24.7943 42.0078C25.9903 42.0078 26.9613 41.0348 26.9613 39.8408C26.9613 38.886 26.339 38.0732 25.4795 37.7853L25.4876 36.1271C25.4896 35.8717 25.3477 35.6365 25.1207 35.5189L22.8462 34.331V30.4004L23.7138 30.0416L26.6795 31.1342V34.0371C26.6795 34.4142 26.9856 34.7203 27.3627 34.7203H29.8156C30.1034 35.5818 30.9163 36.2042 31.8731 36.2042C33.0691 36.2042 34.0401 35.2311 34.0401 34.0371C34.0401 32.8411 33.0671 31.8701 31.8731 31.8701C30.9163 31.8701 30.1034 32.4924 29.8156 33.354H28.0479V30.5606L30.5413 28.0672C30.7298 27.8786 30.7906 27.5989 30.6994 27.3475L29.5439 24.2136L30.6102 21.6391L33.6449 20.2383L33.6427 20.2424ZM2.16736 34.8421C1.72545 34.8421 1.36662 34.4833 1.36662 34.0413C1.36662 33.5994 1.72543 33.2406 2.16736 33.2406C2.60928 33.2406 2.9681 33.5994 2.9681 34.0413C2.9681 34.4832 2.6093 34.8421 2.16736 34.8421ZM9.24222 40.6481C8.8003 40.6481 8.44147 40.2893 8.44147 39.8473C8.44147 39.4054 8.80028 39.0466 9.24222 39.0466C9.68413 39.0466 10.043 39.4054 10.043 39.8473C10.043 40.2893 9.68415 40.6481 9.24222 40.6481ZM17.0202 40.6481C16.5783 40.6481 16.2195 40.2893 16.2195 39.8473C16.2195 39.4054 16.5783 39.0466 17.0202 39.0466C17.4622 39.0466 17.821 39.4054 17.821 39.8473C17.821 40.2893 17.4622 40.6481 17.0202 40.6481ZM24.7983 40.6481C24.3564 40.6481 23.9975 40.2893 23.9975 39.8473C23.9975 39.4054 24.3563 39.0466 24.7983 39.0466C25.2402 39.0466 25.599 39.4054 25.599 39.8473C25.599 40.2893 25.2402 40.6481 24.7983 40.6481ZM31.8731 33.239C32.315 33.239 32.6739 33.5978 32.6739 34.0398C32.6739 34.4817 32.3151 34.8405 31.8731 34.8405C31.4312 34.8405 31.0724 34.4817 31.0724 34.0398C31.0724 33.5979 31.4312 33.239 31.8731 33.239ZM29.4507 20.8735L28.1797 23.9406C28.1128 24.0987 28.1107 24.2771 28.1695 24.4393L29.2662 27.4131L26.9127 29.7667L23.9388 28.67C23.7766 28.6112 23.6003 28.6132 23.4401 28.6801L20.373 29.9511C20.2149 30.018 20.0852 30.1396 20.0142 30.2957L18.6844 33.1743H15.3578L14.0301 30.2957C13.9571 30.1396 13.8294 30.016 13.6713 29.9511L10.6042 28.6801C10.446 28.6132 10.2676 28.6112 10.1055 28.67L7.12758 29.7667L4.77403 27.4131L5.87073 24.4393C5.92952 24.2791 5.9275 24.1007 5.8606 23.9426L4.59161 20.8755C4.52471 20.7174 4.40308 20.5877 4.24699 20.5167L1.36843 19.1869V15.8603L4.24699 14.5305C4.40308 14.4575 4.52674 14.3298 4.59161 14.1717L5.8606 11.1046C5.92749 10.9465 5.92952 10.7681 5.87073 10.6079L4.77403 7.6341L7.12758 5.28056L10.1055 6.37725C10.2676 6.43604 10.444 6.43402 10.6042 6.36712L13.6713 5.09611C13.8294 5.02921 13.9591 4.90758 14.0301 4.75149L15.3578 1.87292H18.6844L20.0142 4.75149C20.0872 4.90758 20.2149 5.03124 20.373 5.09611L23.4401 6.36712C23.5983 6.43402 23.7766 6.43604 23.9388 6.37725L26.9127 5.28056L29.2662 7.6341L28.1695 10.6079C28.1107 10.7701 28.1128 10.9465 28.1797 11.1066L29.4507 14.1737C29.5176 14.3318 29.6392 14.4616 29.7953 14.5325L32.6738 15.8623V19.1889L29.7953 20.5187C29.6392 20.5917 29.5155 20.7194 29.4507 20.8775V20.8735ZM9.54788 20.2735C9.67964 20.6282 9.4972 21.0215 9.14245 21.1512C9.06541 21.1796 8.98433 21.1938 8.9073 21.1938C8.62958 21.1938 8.36806 21.0235 8.26671 20.7458C7.88763 19.716 7.69503 18.6315 7.69503 17.5206C7.69503 15.307 8.48358 13.1602 9.91676 11.4759C10.9607 10.2494 12.2986 9.32105 13.7886 8.76966C13.4683 8.57911 13.3609 8.16555 13.5474 7.84121C13.7359 7.51484 14.1535 7.40131 14.4819 7.59187L15.8969 8.40678C16.2232 8.5953 16.3368 9.01291 16.1462 9.3413L15.3313 10.7563C15.2056 10.9752 14.9745 11.0989 14.7394 11.0989C14.6238 11.0989 14.5063 11.0685 14.3988 11.0076C14.0806 10.8232 13.967 10.4238 14.1353 10.1015C11.1229 11.2651 9.06541 14.1761 9.06541 17.523C9.06541 18.4697 9.22961 19.3961 9.55395 20.2739L9.54788 20.2735ZM24.188 23.4885C22.4102 25.6231 19.7992 26.8496 17.0202 26.8496C14.8188 26.8496 12.7206 26.0792 11.0585 24.6967C11.0525 25.0697 10.7504 25.3718 10.3754 25.3718C9.99835 25.3718 9.69225 25.0657 9.69225 24.6887V23.0548C9.69225 22.6777 9.99835 22.3716 10.3754 22.3716H12.0093C12.3863 22.3716 12.6924 22.6777 12.6924 23.0548C12.6924 23.4217 12.4025 23.7197 12.0397 23.7359C13.4404 24.859 15.1878 25.4853 17.0184 25.4853C19.3881 25.4853 21.618 24.4393 23.1342 22.6169C23.3754 22.3271 23.8072 22.2865 24.0971 22.5278C24.387 22.769 24.4275 23.2008 24.1863 23.4907L24.188 23.4885ZM27.1415 19.3511C27.3301 19.6775 27.2186 20.0951 26.8922 20.2856L25.4772 21.1005C25.3718 21.1613 25.2542 21.1917 25.1367 21.1917C25.0779 21.1917 25.0171 21.1836 24.9603 21.1674C24.786 21.1208 24.636 21.0052 24.5447 20.8492L23.7298 19.4342C23.5413 19.1078 23.6528 18.6902 23.9792 18.4997C24.2954 18.3172 24.6948 18.4165 24.8914 18.7186C24.9502 18.3233 24.9826 17.924 24.9826 17.5185C24.9826 13.6264 22.2034 10.3264 18.3743 9.67147C18.0013 9.60863 17.752 9.25388 17.8168 8.88293C17.8797 8.50993 18.2324 8.2606 18.6054 8.32547C20.7481 8.69238 22.7104 9.81138 24.1275 11.4757C25.5607 13.1582 26.3513 15.307 26.3513 17.5204C26.3513 18.0535 26.3047 18.5786 26.2176 19.0955C26.5439 18.9131 26.9554 19.0246 27.144 19.3489L27.1415 19.3511ZM12.4226 17.5206C12.4226 20.0566 14.4862 22.1202 17.0222 22.1202C19.5581 22.1202 21.6218 20.0566 21.6218 17.5206C21.6218 14.9846 19.5581 12.919 17.0222 12.919C14.4862 12.919 12.4226 14.9826 12.4226 17.5206ZM17.0222 14.2853C18.804 14.2853 20.2535 15.7367 20.2535 17.5206C20.2535 19.3045 18.804 20.7519 17.0222 20.7519C15.2403 20.7519 13.7909 19.3025 13.7909 17.5206C13.7909 15.7387 15.2403 14.2853 17.0222 14.2853Z" fill="black"/>
</svg>
