<svg width="173" height="173" viewBox="0 0 173 173" fill="none" xmlns="http://www.w3.org/2000/svg">
<path d="M96.5814 32.0476C91.7577 25.5102 81.9829 25.5102 77.1592 32.0476L75.6287 34.122C73.1975 37.4169 68.9397 38.8003 65.0361 37.5637L62.5786 36.7852C54.8336 34.3315 46.9256 40.077 46.8657 48.2012L46.8468 50.779C46.8166 54.8737 44.1851 58.4956 40.3002 59.7896L37.8544 60.6043C30.1463 63.1717 27.1257 72.4681 31.8526 79.0758L33.3525 81.1725C35.7349 84.5028 35.7349 88.9798 33.3525 92.3102L31.8527 94.4068C27.1257 101.015 30.1463 110.311 37.8544 112.879L40.3002 113.693C44.1851 114.987 46.8166 118.609 46.8468 122.704L46.8657 125.282C46.9256 133.406 54.8336 139.151 62.5786 136.698L65.0361 135.919C68.9397 134.682 73.1975 136.066 75.6287 139.361L77.1592 141.435C81.9829 147.973 91.7577 147.973 96.5814 141.435L98.112 139.361C100.543 136.066 104.801 134.682 108.705 135.919L111.162 136.698C118.907 139.151 126.815 133.406 126.875 125.282L126.894 122.704C126.924 118.609 129.556 114.987 133.441 113.693L135.886 112.879C143.594 110.311 146.615 101.015 141.888 94.4068L140.388 92.3102C138.006 88.9798 138.006 84.5028 140.388 81.1725L141.888 79.0758C146.615 72.4681 143.594 63.1717 135.886 60.6042L133.441 59.7896C129.556 58.4956 126.924 54.8737 126.894 50.779L126.875 48.2012C126.815 40.077 118.907 34.3315 111.162 36.7852L108.705 37.5637C104.801 38.8003 100.543 37.4169 98.112 34.122L96.5814 32.0476Z" fill="#0D9152" stroke="#0D9152" stroke-width="2.49692"/>
<path d="M67.5551 25.9734C68.5218 25.9734 69.3055 25.1897 69.3055 24.223C69.3055 23.2563 68.5218 22.4727 67.5551 22.4727C66.5884 22.4727 65.8047 23.2563 65.8047 24.223C65.8047 25.1897 66.5884 25.9734 67.5551 25.9734Z" fill="#0D9152"/>
<path d="M21.1799 50.4848C21.6632 50.4848 22.0551 50.0929 22.0551 49.6096C22.0551 49.1262 21.6632 48.7344 21.1799 48.7344C20.6965 48.7344 20.3047 49.1262 20.3047 49.6096C20.3047 50.0929 20.6965 50.4848 21.1799 50.4848Z" fill="#0D9152"/>
<path d="M16.8049 80.5238C17.2882 80.5238 17.6801 80.132 17.6801 79.6486C17.6801 79.1653 17.2882 78.7734 16.8049 78.7734C16.3215 78.7734 15.9297 79.1653 15.9297 79.6486C15.9297 80.132 16.3215 80.5238 16.8049 80.5238Z" fill="#0D9152"/>
<path d="M28.6175 31.2271C29.3425 31.2271 29.9303 30.6394 29.9303 29.9144C29.9303 29.1893 29.3425 28.6016 28.6175 28.6016C27.8924 28.6016 27.3047 29.1893 27.3047 29.9144C27.3047 30.6394 27.8924 31.2271 28.6175 31.2271Z" fill="#0D9152"/>
<path d="M99.0549 5.84413C99.5382 5.84413 99.9301 5.45229 99.9301 4.96894C99.9301 4.48559 99.5382 4.09375 99.0549 4.09375C98.5715 4.09375 98.1797 4.48559 98.1797 4.96894C98.1797 5.45229 98.5715 5.84413 99.0549 5.84413Z" fill="#0D9152"/>
<path d="M119.203 21.0043C119.687 21.0043 120.079 20.6125 120.079 20.1291C120.079 19.6457 119.687 19.2539 119.203 19.2539C118.72 19.2539 118.328 19.6457 118.328 20.1291C118.328 20.6125 118.72 21.0043 119.203 21.0043Z" fill="#0D9152"/>
<path d="M135.836 37.641C136.319 37.641 136.711 37.2492 136.711 36.7658C136.711 36.2825 136.319 35.8906 135.836 35.8906C135.353 35.8906 134.961 36.2825 134.961 36.7658C134.961 37.2492 135.353 37.641 135.836 37.641Z" fill="#0D9152"/>
<path d="M22.9221 126.614C23.4054 126.614 23.7973 126.222 23.7973 125.738C23.7973 125.255 23.4054 124.863 22.9221 124.863C22.4387 124.863 22.0469 125.255 22.0469 125.738C22.0469 126.222 22.4387 126.614 22.9221 126.614Z" fill="#0D9152"/>
<path d="M162.078 54.8558C162.562 54.8558 162.954 54.464 162.954 53.9807C162.954 53.4973 162.562 53.1055 162.078 53.1055C161.595 53.1055 161.203 53.4973 161.203 53.9807C161.203 54.464 161.595 54.8558 162.078 54.8558Z" fill="#0D9152"/>
<path d="M101.25 19.2545C101.975 19.2545 102.563 18.6667 102.563 17.9417C102.563 17.2167 101.975 16.6289 101.25 16.6289C100.525 16.6289 99.9375 17.2167 99.9375 17.9417C99.9375 18.6667 100.525 19.2545 101.25 19.2545Z" fill="#0D9152"/>
<path d="M147.196 124.871C147.679 124.871 148.071 124.48 148.071 123.996C148.071 123.513 147.679 123.121 147.196 123.121C146.712 123.121 146.32 123.513 146.32 123.996C146.32 124.48 146.712 124.871 147.196 124.871Z" fill="#0D9152"/>
<path d="M137.133 131.001C137.858 131.001 138.446 130.413 138.446 129.688C138.446 128.963 137.858 128.375 137.133 128.375C136.408 128.375 135.82 128.963 135.82 129.688C135.82 130.413 136.408 131.001 137.133 131.001Z" fill="#0D9152"/>
<path d="M149.828 147.625C150.312 147.625 150.704 147.234 150.704 146.75C150.704 146.267 150.312 145.875 149.828 145.875C149.345 145.875 148.953 146.267 148.953 146.75C148.953 147.234 149.345 147.625 149.828 147.625Z" fill="#0D9152"/>
<path d="M65.3596 154.297C65.8429 154.297 66.2347 153.905 66.2347 153.422C66.2347 152.939 65.8429 152.547 65.3596 152.547C64.8762 152.547 64.4844 152.939 64.4844 153.422C64.4844 153.905 64.8762 154.297 65.3596 154.297Z" fill="#0D9152"/>
<path d="M51.7971 159.879C52.2804 159.879 52.6723 159.487 52.6723 159.004C52.6723 158.521 52.2804 158.129 51.7971 158.129C51.3137 158.129 50.9219 158.521 50.9219 159.004C50.9219 159.487 51.3137 159.879 51.7971 159.879Z" fill="#0D9152"/>
<path d="M63.2346 170.289C63.7179 170.289 64.1098 169.898 64.1098 169.414C64.1098 168.931 63.7179 168.539 63.2346 168.539C62.7512 168.539 62.3594 168.931 62.3594 169.414C62.3594 169.898 62.7512 170.289 63.2346 170.289Z" fill="#0D9152"/>
<path d="M30.8051 48.7273C31.7718 48.7273 32.5554 47.9436 32.5554 46.9769C32.5554 46.0102 31.7718 45.2266 30.8051 45.2266C29.8384 45.2266 29.0547 46.0102 29.0547 46.9769C29.0547 47.9436 29.8384 48.7273 30.8051 48.7273Z" fill="#0D9152"/>
<path d="M151.578 87.2347C152.062 87.2347 152.454 86.8429 152.454 86.3596C152.454 85.8762 152.062 85.4844 151.578 85.4844C151.095 85.4844 150.703 85.8762 150.703 86.3596C150.703 86.8429 151.095 87.2347 151.578 87.2347Z" fill="#0D9152"/>
<path d="M164.266 83.735C164.991 83.735 165.579 83.1472 165.579 82.4222C165.579 81.6971 164.991 81.1094 164.266 81.1094C163.541 81.1094 162.953 81.6971 162.953 82.4222C162.953 83.1472 163.541 83.735 164.266 83.735Z" fill="#0D9152"/>
<path d="M131.446 172.13C132.412 172.13 133.196 171.346 133.196 170.379C133.196 169.413 132.412 168.629 131.446 168.629C130.479 168.629 129.695 169.413 129.695 170.379C129.695 171.346 130.479 172.13 131.446 172.13Z" fill="#0D9152"/>
<path d="M11.5473 148.497C12.514 148.497 13.2976 147.713 13.2976 146.746C13.2976 145.78 12.514 144.996 11.5473 144.996C10.5805 144.996 9.79688 145.78 9.79688 146.746C9.79688 147.713 10.5805 148.497 11.5473 148.497Z" fill="#0D9152"/>
<path d="M23.1071 92.0605L6.1753 98.7046C5.17129 99.0986 4.04694 98.5373 3.75836 97.4981C3.4711 96.4637 4.13765 95.4068 5.19492 95.2203L23.1071 92.0605Z" fill="#0D9152"/>
<path d="M21.137 88.0363L8.9461 88.7981C8.22321 88.8433 7.62003 88.2531 7.64947 87.5294C7.67879 86.809 8.32241 86.2706 9.03664 86.369L21.137 88.0363Z" fill="#0D9152"/>
<path d="M109.516 150.422L121.162 166.436C121.852 167.386 121.57 168.724 120.554 169.314C119.543 169.9 118.247 169.488 117.76 168.425L109.516 150.422Z" fill="#0D9152"/>
<path d="M105.82 153.586L109.968 166.22C110.214 166.969 109.757 167.767 108.987 167.934C108.22 168.101 107.476 167.571 107.384 166.791L105.82 153.586Z" fill="#0D9152"/>
<path d="M75.1005 156.924L73.5865 170.356C73.5268 170.886 73.0306 171.254 72.5064 171.157C71.984 171.061 71.6518 170.543 71.7823 170.028L75.1005 156.924Z" fill="#0D9152"/>
<path d="M86.1762 15.5592L86.6969 2.05215C86.7174 1.51956 86.2821 1.08124 85.7494 1.09813C85.2184 1.11497 84.8122 1.57721 84.8638 2.10598L86.1762 15.5592Z" fill="#0D9152"/>
<path d="M48.5297 145.18L43.6421 152.62C43.3523 153.062 42.7444 153.155 42.3353 152.821C41.9281 152.489 41.8957 151.879 42.2655 151.505L48.5297 145.18Z" fill="#0D9152"/>
<path d="M61.0774 15.9388L53.5794 4.95686C53.1348 4.30566 53.3513 3.41282 54.0448 3.03758C54.7351 2.66407 55.5972 2.96661 55.9026 3.68962L61.0774 15.9388Z" fill="#0D9152"/>
<path d="M112.383 20.2377L122.378 3.65871C122.971 2.67562 122.583 1.39567 121.544 0.90729C120.51 0.421152 119.282 0.931773 118.897 2.0078L112.383 20.2377Z" fill="#0D9152"/>
<path d="M34.1506 130.102L17.8051 140.475C16.8359 141.09 16.6117 142.409 17.3232 143.309C18.0315 144.206 19.3583 144.297 20.1827 143.506L34.1506 130.102Z" fill="#0D9152"/>
<path d="M129.574 27.5044C129.898 26.9036 131.057 25.4879 133.091 24.6319C135.635 23.5618 136.118 22.1089 135.777 20.5027C135.436 18.8966 132.139 18.2839 131.87 20.8786C131.601 23.4733 136.791 24.2175 139.065 20.0118C140.884 16.6472 142.876 15.9449 143.644 16.0143" stroke="#0D9152" stroke-width="1.01448"/>
<path d="M18.1226 60.5187C17.6534 60.0224 16.1684 58.9545 13.9815 58.6539C11.2478 58.2782 10.4053 56.9997 10.3191 55.36C10.233 53.7204 13.2591 52.2757 14.1902 54.7125C15.1214 57.1493 10.3004 59.2107 7.01623 55.7363C4.38892 52.9567 2.28309 52.7935 1.55859 53.0593" stroke="#0D9152" stroke-width="1.01448"/>
<path d="M131.449 141.881C131.62 142.542 132.405 144.194 134.175 145.514C136.387 147.163 136.508 148.689 135.791 150.166C135.075 151.644 131.727 151.448 132.089 148.864C132.45 146.281 137.667 146.804 138.865 151.432C139.824 155.135 141.589 156.294 142.352 156.411" stroke="#0D9152" stroke-width="1.01448"/>
<path d="M154.766 105.381L170.033 111.998C170.938 112.39 171.984 111.913 172.281 110.972C172.577 110.036 172.001 109.048 171.041 108.844L154.766 105.381Z" fill="#0D9152"/>
<path d="M23.2562 41.1189L15.4227 34.8306C14.9581 34.4578 14.273 34.5687 13.9499 35.0691C13.6283 35.5672 13.8059 36.2341 14.3326 36.5063L23.2562 41.1189Z" fill="#0D9152"/>
<path d="M140.949 46.3171L154.658 32.0291C155.471 31.1819 156.838 31.2241 157.597 32.1199C158.353 33.0115 158.176 34.3602 157.215 35.0267L140.949 46.3171Z" fill="#0D9152"/>
<path d="M144.727 49.4028L156.431 43.0914C157.125 42.7172 157.99 43.0256 158.291 43.7545C158.591 44.48 158.2 45.3057 157.449 45.534L144.727 49.4028Z" fill="#0D9152"/>
<path fill-rule="evenodd" clip-rule="evenodd" d="M106 76.1313L81.5004 100.564L67 86.1033L72.5819 80.5365L81.5004 89.4308L100.418 70.5645L106 76.1313Z" fill="white"/>
</svg>
