<svg width="36" height="37" viewBox="0 0 36 37" fill="none" xmlns="http://www.w3.org/2000/svg">
<path d="M9.70196 10.2121C9.82397 10.2121 9.94777 10.1745 10.0536 10.0973C10.1218 10.0471 16.9849 5.10757 25.1073 9.88737C25.389 10.0506 25.7532 9.95914 25.9183 9.67564C26.0852 9.39394 25.9901 9.03152 25.7084 8.86465C16.9163 3.69532 9.42369 9.08893 9.3502 9.14276C9.08644 9.33654 9.03082 9.70797 9.2246 9.97172C9.34123 10.1296 9.52072 10.2121 9.70196 10.2121Z" fill="black"/>
<path d="M22.9425 10.3744C22.6483 10.2362 22.2948 10.3636 22.1549 10.6579C22.0167 10.9539 22.1441 11.3074 22.4402 11.4455C24.0568 12.2045 25.9013 13.2093 27.315 14.9085C27.4317 15.0485 27.6003 15.122 27.7708 15.122C27.9036 15.122 28.0381 15.0772 28.1494 14.9857C28.4006 14.7775 28.4347 14.4025 28.2247 14.1513C26.6637 12.2745 24.6794 11.189 22.9425 10.3744Z" fill="black"/>
<path d="M7.98537 15.1501C8.08405 15.2147 8.1953 15.2452 8.30655 15.2452C8.50033 15.2452 8.69052 15.1501 8.80354 14.9743C8.95605 14.741 12.6199 9.25052 20.4752 10.7129C20.7963 10.7757 21.1067 10.5604 21.166 10.2392C21.2252 9.91627 21.0134 9.60765 20.6923 9.54844C12.0422 7.94436 7.85259 14.2672 7.80941 14.3319C7.63178 14.6082 7.71085 14.9743 7.98537 15.1501Z" fill="black"/>
<path d="M21.3995 28.0846C18.2847 27.0277 15.6831 24.322 15.5986 22.0522C15.586 21.7256 15.3007 21.4637 14.985 21.4816C14.6584 21.4941 14.4036 21.7687 14.4144 22.0952C14.5167 24.8619 17.418 27.9857 21.0173 29.2057C21.0801 29.2272 21.1447 29.2362 21.2075 29.2362C21.4533 29.2362 21.6848 29.0801 21.7673 28.8343C21.875 28.5256 21.7099 28.1887 21.3995 28.0846Z" fill="black"/>
<path d="M24.6505 23.208C23.2725 23.3893 22.0811 22.3827 21.4621 20.5005C20.922 18.857 20.0033 18.1411 19.3269 17.8289C18.5231 17.4556 17.599 17.4467 16.727 17.8055C15.8998 18.1429 15.3275 18.6219 14.9238 19.3163C14.7587 19.5998 14.8556 19.9622 15.1373 20.1255C15.419 20.2906 15.7814 20.1937 15.9465 19.912C16.2192 19.4437 16.5852 19.1423 17.1738 18.9018C17.7461 18.6686 18.3203 18.6686 18.8299 18.9054C19.4938 19.2105 20.0141 19.8905 20.3352 20.8701C21.0673 23.0986 22.5673 24.4156 24.3221 24.4156C24.4818 24.4156 24.6451 24.4049 24.8102 24.3815C26.8377 24.1034 27.8927 22.0382 27.7061 20.2816C27.5608 18.9126 26.9722 16.3163 24.6559 14.2906C24.41 14.077 24.0368 14.1004 23.8197 14.348C23.6044 14.5938 23.6295 14.9688 23.8754 15.1841C25.8867 16.9425 26.3999 19.2104 26.5273 20.4072C26.6565 21.6183 25.9333 23.034 24.6505 23.208Z" fill="black"/>
<path d="M21.3199 13.7592C21.4849 13.8077 21.6482 13.8579 21.8043 13.9153C22.1093 14.0284 22.4502 13.8669 22.5633 13.5601C22.6745 13.2533 22.5166 12.9142 22.208 12.8011C22.0304 12.7365 21.8473 12.6809 21.6608 12.6253C17.2343 11.2832 13.7497 12.0296 11.0065 14.904C10.7805 15.1408 10.7894 15.5158 11.0263 15.7419C11.1411 15.8513 11.2882 15.9052 11.4354 15.9052C11.5915 15.9052 11.7476 15.8442 11.8642 15.7222C14.2667 13.203 17.36 12.5607 21.3199 13.7592Z" fill="black"/>
<path d="M10.3556 17.7013C10.4848 17.4016 10.3466 17.0535 10.047 16.9226C9.74373 16.7898 9.39743 16.9297 9.26826 17.2294C7.8221 20.5703 8.61693 24.7992 9.82267 26.3623C9.9393 26.513 10.1151 26.592 10.2928 26.592C10.4184 26.592 10.5457 26.5525 10.6534 26.4682C10.9118 26.2672 10.9602 25.8976 10.7611 25.6374C9.89981 24.5267 9.00451 20.8197 10.3556 17.7013Z" fill="black"/>
<path d="M12.7762 19.9556C13.0687 18.4018 13.851 17.266 15.0998 16.5806C16.851 15.6188 18.936 15.8342 19.8401 16.1984C21.2917 16.7798 23.0572 17.9801 23.233 20.388C23.2564 20.7146 23.5381 20.9497 23.8664 20.9353C24.193 20.912 24.4388 20.6285 24.4137 20.3019C24.184 17.126 21.7258 15.6801 20.2815 15.0986C18.864 14.5298 16.431 14.4993 14.5306 15.5436C12.9768 16.3959 11.9684 17.8456 11.6114 19.7368C10.664 24.766 14.6419 28.7746 15.0061 28.9574C15.0922 29.0005 15.1819 29.0202 15.2716 29.0202C15.4887 29.0202 15.6969 28.9018 15.8009 28.6937C15.9319 28.4317 15.8512 28.1159 15.6197 27.949C15.4403 27.7822 11.9455 24.3658 12.7762 19.9556Z" fill="black"/>
<path d="M24.742 25.8129C18.8515 25.6981 18.3168 21.2017 18.2971 21.0097C18.2648 20.6849 17.9795 20.4624 17.6512 20.4786C17.3246 20.5109 17.0877 20.7998 17.1182 21.1245C17.1236 21.1819 17.7498 26.8625 24.7188 26.9971H24.7296C25.0507 26.9971 25.3163 26.7387 25.3217 26.4176C25.3289 26.0892 25.0685 25.8183 24.742 25.8129Z" fill="black"/>
<path d="M7.96729 16.6903C8.11442 16.3979 7.99959 16.0426 7.70712 15.8937C7.41645 15.7483 7.05937 15.8632 6.91046 16.1538C5.88233 18.1778 4.75734 24.7898 8.07312 29.1516C8.18975 29.3041 8.36558 29.3848 8.54499 29.3848C8.67059 29.3848 8.79619 29.3454 8.90384 29.2646C9.16401 29.0672 9.21425 28.6958 9.01688 28.4339C6.05993 24.5475 7.06838 18.4574 7.96729 16.6903Z" fill="black"/>
<path d="M28.4438 28.9836C28.512 29.0087 28.5802 29.0194 28.6484 29.0194C28.8888 29.0194 29.1149 28.8723 29.2046 28.6319C32.3535 20.0947 29.3427 15.9125 29.3086 15.8799C29.0772 15.6502 28.6842 15.6251 28.4528 15.8566C28.2213 16.0862 28.2016 16.4415 28.433 16.6729C28.4582 16.7088 30.9073 20.5934 28.0939 28.2228C27.9809 28.5297 28.137 28.8706 28.4438 28.9836Z" fill="black"/>
<path d="M35.0751 0.499756H27.8764C27.6037 0.499756 27.3812 0.720452 27.3812 0.993171C27.3812 1.26589 27.6019 1.48659 27.8764 1.48659H34.5799V8.11108C34.5799 8.38381 34.8006 8.60449 35.0751 8.60449C35.3479 8.60449 35.5703 8.3838 35.5703 8.11108V0.9951C35.5703 0.722372 35.3496 0.499756 35.0751 0.499756Z" fill="black"/>
<path d="M0.497925 8.60629C0.770653 8.60629 0.99313 8.38559 0.99313 8.11287L0.991336 1.48838H7.69483C7.96755 1.48838 8.19003 1.26768 8.19003 0.994965C8.19003 0.722245 7.96934 0.50155 7.69483 0.50155L0.498013 0.499756C0.225285 0.499756 0.00280762 0.720452 0.00280762 0.993171V8.11099C0.00280762 8.38551 0.223414 8.60629 0.497925 8.60629Z" fill="black"/>
<path d="M35.0751 28.2324C34.8024 28.2324 34.5799 28.4531 34.5799 28.7258V35.3485H27.8764C27.6037 35.3485 27.3812 35.5692 27.3812 35.8419C27.3812 36.1146 27.6019 36.3353 27.8764 36.3353H35.0751C35.3478 36.3353 35.5703 36.1146 35.5703 35.8419V28.7259C35.5703 28.4532 35.3496 28.2324 35.0751 28.2324Z" fill="black"/>
<path d="M7.69402 35.349H0.990533V28.7263C0.990533 28.4536 0.769838 28.2329 0.495327 28.2329C0.222599 28.2329 0.00012207 28.4536 0.00012207 28.7263V35.8441C0.00012207 36.1169 0.220817 36.3376 0.495327 36.3376H7.69398C7.96671 36.3376 8.18918 36.1169 8.18918 35.8441C8.18918 35.5714 7.96853 35.349 7.69402 35.349Z" fill="black"/>
</svg>
