<svg width="36" height="35" viewBox="0 0 36 35" fill="none" xmlns="http://www.w3.org/2000/svg">
<path d="M16.0939 2.63306H15.7068C7.04546 2.63306 0 9.67823 0 18.3392C0 27.0003 7.04546 34.0454 15.7068 34.0454C20.6927 34.0454 25.4318 31.6414 28.3846 27.6148L28.6118 27.3023L16.0941 18.1445L16.0939 2.63306ZM27.5284 27.4671C24.7088 31.1104 20.3198 33.2727 15.7084 33.2727C7.47344 33.2727 0.774346 26.5739 0.774346 18.3392C0.774346 10.2341 7.26571 3.61665 15.3216 3.41075V18.5342L27.5284 27.4671Z" fill="black"/>
<path d="M33.9402 10.5911L19.2738 17.8158L32.152 27.2381L32.5 27.4192L32.6935 27.1565C34.6751 24.4524 35.7244 21.244 35.7244 17.8814C35.7244 15.4436 35.1811 13.1088 34.1104 10.9394L33.9402 10.5911Z" fill="black"/>
<path d="M18.4485 0H18.0614V16.3275L32.7132 9.11009L32.5428 8.76387C29.8723 3.35908 24.473 0 18.4485 0ZM18.8338 15.0862V0.777696C24.2779 0.914409 29.1392 3.93807 31.671 8.7601L18.8338 15.0862Z" fill="black"/>
</svg>
